<?xml version="1.0" encoding="utf-8"?>
<!-- Generator: Adobe Illustrator 16.0.0, SVG Export Plug-In . SVG Version: 6.00 Build 0)  -->
<!DOCTYPE svg PUBLIC "-//W3C//DTD SVG 1.1//EN" "http://www.w3.org/Graphics/SVG/1.1/DTD/svg11.dtd">
<svg version="1.1" id="Layer_1" xmlns="http://www.w3.org/2000/svg" xmlns:xlink="http://www.w3.org/1999/xlink" x="0px" y="0px"
	 width="80px" height="80px" viewBox="0 0 80 80" enable-background="new 0 0 80 80" xml:space="preserve">
<g id="Group_12381" transform="translate(3358 -8156)">
	<rect id="Rectangle_3172" x="-3358" y="8156" fill="#FFFFFF" fill-opacity="0" width="80" height="80"/>
	<g id="Group_12380" transform="translate(-3348.469 8166.701)">
		<path id="Path_21436" fill="#FFFFFF" d="M30.981,18.832l6.961,17.18L27.428,27.73L30.981,18.832z"/>
		<path id="Path_21437" fill="#FFFFFF" d="M30.469,2.4c-14.856,0-26.9,12.043-26.9,26.9s12.043,26.9,26.9,26.9
			s26.9-12.044,26.9-26.9l0,0C57.369,14.443,45.325,2.4,30.469,2.4z M41.569,42.686c-0.559-0.027-1.088-0.261-1.484-0.656
			L26.2,30.813l-4.652,11.654h-4.02L29.28,14.2c0.272-0.698,0.951-1.151,1.701-1.136c0.74-0.017,1.41,0.44,1.663,1.136l10.707,25.77
			c0.104,0.253,0.165,0.521,0.183,0.794c0.002,1.06-0.856,1.92-1.917,1.922C41.601,42.686,41.584,42.686,41.569,42.686z"/>
	</g>
</g>
</svg>
