<?xml version="1.0" encoding="utf-8"?>
<!-- Generator: Adobe Illustrator 16.0.0, SVG Export Plug-In . SVG Version: 6.00 Build 0)  -->
<!DOCTYPE svg PUBLIC "-//W3C//DTD SVG 1.1//EN" "http://www.w3.org/Graphics/SVG/1.1/DTD/svg11.dtd">
<svg version="1.1" id="Layer_1" xmlns="http://www.w3.org/2000/svg" xmlns:xlink="http://www.w3.org/1999/xlink" x="0px" y="0px"
	 width="80px" height="80px" viewBox="0 0 80 80" enable-background="new 0 0 80 80" xml:space="preserve">
<g id="amazon_web_services_logo" transform="translate(3898 -9016)">
	<rect id="Rectangle_8338" x="-3898" y="9016" fill="#FFFFFF" fill-opacity="0" width="80" height="80"/>
	<g id="aws-2" transform="translate(-3887.06 9038.52)">
		<path id="Path_21438" fill="#FFFFFF" d="M17.106,13c-0.014,0.548,0.053,1.094,0.2,1.622c0.162,0.451,0.356,0.89,0.583,1.312
			c0.081,0.125,0.125,0.27,0.128,0.419c-0.022,0.227-0.151,0.43-0.346,0.547l-1.148,0.765c-0.139,0.1-0.303,0.157-0.474,0.164
			c-0.208-0.014-0.402-0.105-0.547-0.255c-0.246-0.264-0.465-0.551-0.656-0.856c-0.182-0.31-0.364-0.656-0.565-1.075
			c-1.302,1.62-3.279,2.548-5.357,2.514c-1.342,0.071-2.655-0.402-3.644-1.313c-0.917-0.928-1.406-2.196-1.348-3.5
			C3.879,11.906,4.49,10.522,5.59,9.592C6.855,8.59,8.443,8.084,10.055,8.17c0.646,0.005,1.291,0.054,1.931,0.146
			c0.674,0.091,1.367,0.237,2.1,0.4v-1.33c0.105-1.046-0.202-2.092-0.856-2.915c-0.848-0.647-1.91-0.946-2.97-0.838
			c-0.663,0-1.324,0.08-1.968,0.237c-0.67,0.159-1.328,0.366-1.968,0.619c-0.208,0.093-0.42,0.172-0.638,0.237
			c-0.095,0.031-0.193,0.05-0.292,0.055c-0.255,0-0.383-0.182-0.383-0.565V3.323c-0.02-0.221,0.025-0.442,0.128-0.638
			c0.137-0.167,0.312-0.297,0.51-0.383c0.732-0.362,1.504-0.637,2.3-0.82c0.928-0.238,1.883-0.354,2.842-0.346
			c1.723-0.146,3.435,0.383,4.774,1.476c1.093,1.226,1.64,2.845,1.512,4.482V13H17.106z M9.706,15.77
			c0.639-0.007,1.273-0.118,1.877-0.328c0.669-0.231,1.266-0.633,1.731-1.166c0.293-0.335,0.505-0.735,0.619-1.166
			c0.125-0.519,0.186-1.051,0.182-1.585V10.76c-0.553-0.134-1.112-0.238-1.676-0.31c-0.568-0.072-1.14-0.108-1.713-0.109
			c-0.962-0.076-1.921,0.182-2.715,0.729c-0.613,0.52-0.944,1.298-0.893,2.1c-0.148,1.29,0.777,2.456,2.067,2.604
			c0.173,0.02,0.347,0.021,0.52,0.002L9.706,15.77z M24.337,17.738c-0.245,0.025-0.491-0.04-0.692-0.182
			c-0.191-0.197-0.323-0.443-0.383-0.711L18.983,2.758c-0.083-0.235-0.138-0.48-0.164-0.729c-0.032-0.218,0.119-0.421,0.338-0.454
			c0.033-0.005,0.066-0.006,0.099-0.002h1.786c0.251-0.031,0.505,0.034,0.711,0.182c0.184,0.2,0.31,0.445,0.364,0.711l3.061,12.062
			L28.02,2.467c0.037-0.268,0.158-0.517,0.346-0.711c0.218-0.134,0.473-0.197,0.729-0.182h1.458
			c0.257-0.027,0.515,0.038,0.729,0.182c0.189,0.192,0.312,0.442,0.346,0.711l2.879,12.208L37.66,2.467
			c0.057-0.264,0.183-0.509,0.363-0.711c0.212-0.134,0.461-0.198,0.711-0.182h1.699c0.222-0.03,0.426,0.125,0.456,0.346
			c0.005,0.037,0.005,0.073,0,0.11c-0.005,0.098-0.017,0.195-0.036,0.292c-0.029,0.155-0.071,0.308-0.128,0.456l-4.392,14.083
			c-0.056,0.27-0.189,0.517-0.383,0.711c-0.207,0.131-0.449,0.195-0.693,0.182h-1.57c-0.257,0.027-0.516-0.038-0.729-0.182
			c-0.191-0.2-0.313-0.456-0.347-0.729L29.789,5.09l-2.807,11.734c-0.042,0.271-0.163,0.524-0.346,0.729
			c-0.215,0.143-0.473,0.207-0.729,0.182L24.337,17.738z M47.75,18.23c-0.944,0-1.887-0.109-2.806-0.329
			c-0.729-0.147-1.436-0.393-2.1-0.729c-0.235-0.11-0.432-0.288-0.565-0.51c-0.07-0.161-0.107-0.334-0.109-0.51v-0.929
			c0-0.383,0.146-0.565,0.42-0.565c0.111,0,0.223,0.019,0.328,0.055c0.108,0.036,0.272,0.109,0.455,0.182
			c0.643,0.283,1.313,0.497,2,0.638c0.714,0.145,1.44,0.218,2.168,0.219c0.926,0.055,1.848-0.153,2.66-0.6
			c0.604-0.365,0.966-1.025,0.947-1.731c0.013-0.474-0.164-0.933-0.492-1.275c-0.527-0.452-1.15-0.778-1.822-0.953l-2.643-0.82
			c-1.145-0.294-2.166-0.944-2.915-1.858c-0.587-0.756-0.907-1.685-0.911-2.642c-0.015-0.705,0.155-1.402,0.492-2.022
			c0.326-0.586,0.773-1.096,1.313-1.494c0.567-0.43,1.21-0.75,1.895-0.947c0.748-0.215,1.522-0.32,2.3-0.31
			c0.408-0.003,0.816,0.021,1.222,0.073c0.418,0.055,0.8,0.128,1.184,0.2c0.363,0.091,0.711,0.182,1.039,0.292
			c0.266,0.082,0.521,0.192,0.765,0.328c0.215,0.108,0.402,0.264,0.548,0.456c0.117,0.177,0.176,0.387,0.164,0.6v0.856
			c0,0.383-0.146,0.583-0.42,0.583c-0.242-0.028-0.478-0.103-0.691-0.219c-1.102-0.487-2.296-0.729-3.5-0.711
			c-0.839-0.05-1.676,0.126-2.424,0.51c-0.566,0.337-0.896,0.964-0.855,1.622c-0.012,0.488,0.184,0.959,0.539,1.294
			c0.59,0.468,1.271,0.809,2,1l2.587,0.82c1.099,0.28,2.083,0.891,2.824,1.749c0.556,0.733,0.851,1.631,0.838,2.551
			c0.009,0.732-0.153,1.456-0.474,2.114c-0.324,0.623-0.777,1.168-1.33,1.6c-0.602,0.468-1.289,0.814-2.022,1.02
			c-0.845,0.26-1.723,0.39-2.606,0.384V18.23z"/>
		<g id="Group_12382" transform="translate(1.668 21.524)">
			<path id="Path_21439" fill="#FFFFFF" d="M49.533,5.558c-6,4.428-14.707,6.783-22.201,6.783C17.33,12.39,7.67,8.705,0.243,2.005
				c-0.565-0.51-0.055-1.2,0.619-0.801c14.588,8.414,32.274,9.514,47.792,2.971C49.658,3.718,50.513,4.83,49.533,5.558z"/>
			<path id="Path_21440" fill="#FFFFFF" d="M52.029,2.717c-0.765-0.984-5.064-0.474-7.015-0.237
				c-0.583,0.073-0.675-0.438-0.146-0.82c3.424-2.404,9.055-1.713,9.711-0.91c0.656,0.819-0.182,6.449-3.389,9.146
				c-0.492,0.419-0.966,0.2-0.747-0.346C51.169,7.746,52.79,3.682,52.029,2.717z"/>
		</g>
	</g>
</g>
</svg>
