<?xml version="1.0" encoding="utf-8"?>
<!-- Generator: Adobe Illustrator 23.0.2, SVG Export Plug-In . SVG Version: 6.00 Build 0)  -->
<svg version="1.1" id="Layer_1" xmlns="http://www.w3.org/2000/svg" xmlns:xlink="http://www.w3.org/1999/xlink" x="0px" y="0px"
	 viewBox="0 0 80 80" style="enable-background:new 0 0 80 80;" xml:space="preserve">
<style type="text/css">
	.st0{fill:#FFFFFF;fill-opacity:0;}
	.st1{fill:#FFFFFF;}
</style>
<g id="azure_power_bi_logo" transform="translate(3532 -9691)">
	<rect id="Rectangle_3172" x="-3532" y="9691" class="st0" width="80" height="80"/>
	<g id="power-bi" transform="translate(-3517.837 9704.613)">
		<path id="Path_21456" class="st1" d="M16.8,42.2c0,1.8-1.5,3.2-3.3,3.3c-1.8,0-3.2-1.3-3.3-3.1c0-0.1,0-0.1,0-0.2v-14
			c0-1.8,1.5-3.2,3.3-3.3c1.8,0,3.2,1.3,3.3,3.1c0,0.1,0,0.1,0,0.2L16.8,42.2z M26.1,46c0,1.8-1.5,3.2-3.3,3.3c-1.7,0-3.1-1.3-3.1-3
			c0-0.1,0-0.2,0-0.3V24.7c0-1.8,1.5-3.2,3.3-3.3c1.8,0,3.2,1.3,3.3,3.1c0,0.1,0,0.1,0,0.2V46L26.1,46z M7.3,39.1
			c0,1.8-1.5,3.2-3.3,3.3c-1.8,0-3.2-1.3-3.3-3.1c0-0.1,0-0.1,0-0.2v-7.6c0-1.8,1.4-3.3,3.2-3.3c1.8,0,3.3,1.4,3.3,3.2
			c0,0,0,0.1,0,0.1L7.3,39.1z M35.4,49.4c0,1.8-1.3,3.2-3.1,3.3s-3.2-1.3-3.3-3.1c0-0.1,0-0.1,0-0.2V21.2c0-1.8,1.5-3.2,3.3-3.2
			c1.8,0,3.2,1.4,3.2,3.2v28.2H35.4z"/>
		<path id="Path_21457" class="st1" d="M45.6,48c-0.6,0-1.2-0.1-1.7-0.3L40,46.4c-0.6-0.2-1-0.9-0.8-1.5c0.2-0.6,0.9-1,1.5-0.8
			c0,0,0,0,0.1,0l4,1.2c0.8,0.3,1.8,0.1,2.5-0.5c0.7-0.5,1.1-1.3,1.1-2.2V16.8c0-1.2-0.7-2.3-1.9-2.6L8.6,2.7C7.7,2.4,6.8,2.5,6.1,3
			C5.4,3.6,5,4.5,5,5.3v17.8c0,0.7-0.5,1.2-1.2,1.2c0,0,0,0,0,0c-0.7,0-1.2-0.5-1.2-1.2c0,0,0,0,0,0V5.3c0-1.7,0.8-3.2,2.2-4.2
			c1.3-1,3.1-1.3,4.7-0.8l37.8,11.5c2.2,0.7,3.7,2.8,3.7,5.1v25.9c0,1.7-0.8,3.3-2.2,4.3C47.7,47.6,46.7,47.9,45.6,48"/>
	</g>
</g>
</svg>
