<?xml version="1.0" encoding="utf-8"?>
<!-- Generator: Adobe Illustrator 16.0.0, SVG Export Plug-In . SVG Version: 6.00 Build 0)  -->
<!DOCTYPE svg PUBLIC "-//W3C//DTD SVG 1.1//EN" "http://www.w3.org/Graphics/SVG/1.1/DTD/svg11.dtd">
<svg version="1.1" id="Layer_1" xmlns="http://www.w3.org/2000/svg" xmlns:xlink="http://www.w3.org/1999/xlink" x="0px" y="0px"
	 width="80px" height="80px" viewBox="0 0 80 80" enable-background="new 0 0 80 80" xml:space="preserve">
<g id="big_query_logo" transform="translate(3719 -6601)">
	<rect id="Rectangle_3172" x="-3719" y="6601" fill="#FFFFFF" fill-opacity="0" width="80" height="80"/>
	<g id="Group_12375" transform="translate(-3705.883 6614.117)">
		<path id="Path_21374" fill="#FFFFFF" d="M13.769,23.97v6.543c1.033,1.777,2.496,3.265,4.255,4.326V23.97H13.769z"/>
		<path id="Path_21375" fill="#FFFFFF" d="M21.632,17.949v18.736c0.916,0.116,1.839,0.166,2.762,0.148
			c0.829,0.053,1.66,0.053,2.488,0V17.949H21.632z"/>
		<path id="Path_21376" fill="#FFFFFF" d="M30.962,26.533v8.186c1.769-1.129,3.224-2.686,4.229-4.527v-3.658H30.962z"/>
		<path id="Path_21377" fill="#FFFFFF" d="M41.164,37.631l-3.533,3.533c-0.412,0.404-0.419,1.065-0.016,1.478v0.001l0.016,0.015
			l8.809,8.808c0.406,0.4,1.061,0.4,1.467,0l3.559-3.558c0.4-0.407,0.4-1.062,0-1.468l-8.809-8.809
			c-0.403-0.412-1.064-0.419-1.477-0.016c-0.001,0-0.001,0-0.001,0.001L41.164,37.631"/>
		<path id="Path_21378" fill="#F4F4F4" d="M24.393,2C12.026,2,2,12.027,2.001,24.394c0,12.368,10.026,22.393,22.394,22.392
			S46.787,36.76,46.787,24.393S36.763,2,24.396,2C24.395,2,24.394,2,24.393,2 M24.393,41.039
			c-9.179-0.014-16.609-7.467-16.596-16.646c0.014-9.18,7.466-16.61,16.646-16.596c9.179,0.014,16.61,7.467,16.596,16.646
			c-0.014,9.161-7.437,16.583-16.596,16.596H24.393"/>
	</g>
</g>
</svg>
