<?xml version="1.0" encoding="utf-8"?>
<!-- Generator: Adobe Illustrator 16.0.0, SVG Export Plug-In . SVG Version: 6.00 Build 0)  -->
<!DOCTYPE svg PUBLIC "-//W3C//DTD SVG 1.1//EN" "http://www.w3.org/Graphics/SVG/1.1/DTD/svg11.dtd">
<svg version="1.1" id="Layer_1" xmlns="http://www.w3.org/2000/svg" xmlns:xlink="http://www.w3.org/1999/xlink" x="0px" y="0px"
	 width="80px" height="80px" viewBox="0 0 80 80" enable-background="new 0 0 80 80" xml:space="preserve">
<g id="bootstrap_logo" transform="translate(3533 -4986)">
	<rect id="Rectangle_8338" x="-3533" y="4986" fill="#FFFFFF" fill-opacity="0" width="80" height="80"/>
	<g id="Group_12344" transform="translate(-3521.213 4997.787)">
		<path id="Path_21264" fill="#FFFFFF" d="M31.007,24.959h-7.608v-7.99h7.035c0.648-0.002,1.298,0.054,1.938,0.167
			c0.582,0.098,1.142,0.301,1.65,0.6c0.482,0.292,0.879,0.706,1.148,1.2c0.31,0.606,0.458,1.282,0.432,1.962
			c0.107,1.186-0.376,2.35-1.293,3.11C33.342,24.676,32.182,25.01,31.007,24.959z"/>
		<path id="Path_21265" fill="#FFFFFF" d="M36.988,34.961c0.028,0.76-0.128,1.514-0.455,2.2c-0.283,0.552-0.703,1.021-1.221,1.364
			c-0.54,0.347-1.141,0.59-1.77,0.718c-0.692,0.146-1.397,0.218-2.105,0.215h-8.039V30.08h8.182
			c1.396-0.068,2.776,0.327,3.924,1.125C36.576,32.145,37.128,33.543,36.988,34.961z"/>
		<path id="Path_21266" fill="#FFFFFF" d="M49.15,0H7.276C3.258,0,0,3.258,0,7.276V49.15c0,4.02,3.258,7.276,7.276,7.276l0,0H49.15
			c4.02,0,7.276-3.257,7.276-7.276l0,0V7.276C56.427,3.258,53.17,0,49.15,0L49.15,0z M43.5,39.865
			c-0.643,1.229-1.567,2.286-2.7,3.086c-1.176,0.816-2.488,1.416-3.876,1.77c-1.46,0.385-2.964,0.577-4.474,0.574H15.887V11.131
			h16.077c1.495-0.013,2.985,0.131,4.45,0.431c1.229,0.241,2.4,0.721,3.445,1.412c0.959,0.657,1.727,1.557,2.225,2.608
			c0.563,1.263,0.833,2.637,0.79,4.019c0.056,1.521-0.354,3.023-1.174,4.306c-0.884,1.233-2.082,2.208-3.47,2.823
			c1.9,0.465,3.572,1.594,4.713,3.182c1.069,1.623,1.613,3.536,1.557,5.479C44.541,36.941,44.197,38.479,43.5,39.865z"/>
	</g>
</g>
</svg>
