<?xml version="1.0" encoding="utf-8"?>
<!-- Generator: Adobe Illustrator 16.0.0, SVG Export Plug-In . SVG Version: 6.00 Build 0)  -->
<!DOCTYPE svg PUBLIC "-//W3C//DTD SVG 1.1//EN" "http://www.w3.org/Graphics/SVG/1.1/DTD/svg11.dtd">
<svg version="1.1" id="Layer_1" xmlns="http://www.w3.org/2000/svg" xmlns:xlink="http://www.w3.org/1999/xlink" x="0px" y="0px"
	 width="80px" height="80px" viewBox="0 0 80 80" enable-background="new 0 0 80 80" xml:space="preserve">
<g id="chef_logo" transform="translate(3712 -8101)">
	<rect id="Rectangle_3172" x="-3712" y="8101" fill="#FFFFFF" fill-opacity="0" width="80" height="80"/>
	<g id="Group_12378" transform="translate(-4078.006 8114.059)">
		<path id="Path_21415" fill="#EFEFEF" d="M406.112,39.074c-6.702,0.002-12.135-5.431-12.136-12.132
			c-0.001-6.702,5.431-12.135,12.132-12.136c5.405-0.001,10.159,3.574,11.659,8.768h4.698c-1.86-9.03-10.688-14.842-19.718-12.982
			c-9.03,1.86-14.842,10.688-12.981,19.718c1.86,9.029,10.688,14.842,19.718,12.981c6.531-1.345,11.636-6.45,12.981-12.981h-4.7
			c-1.506,5.188-6.254,8.758-11.655,8.766"/>
		<path id="Path_21416" fill="#FFFFFF" d="M397.928,35.121c2.167,2.174,5.11,3.395,8.18,3.394v-4.839
			c-1.787,0.002-3.501-0.708-4.763-1.973L397.928,35.121z"/>
		<path id="Path_21417" fill="#FFFFFF" d="M394.539,26.94c0,1.604,0.334,3.19,0.982,4.657l4.425-1.947
			c-1.498-3.404,0.047-7.378,3.452-8.875c0.855-0.376,1.779-0.571,2.713-0.57v-4.837C399.723,15.375,394.546,20.552,394.539,26.94"
			/>
		<path id="Path_21418" fill="#FFFFFF" d="M410.308,16.156l-1.755,4.51c1.427,0.556,2.623,1.581,3.391,2.906h5.239
			C416.144,20.18,413.612,17.449,410.308,16.156"/>
		<path id="Path_21419" fill="#FFFFFF" d="M408.555,33.214l1.754,4.51c3.304-1.294,5.836-4.025,6.876-7.417h-5.239
			C411.177,31.632,409.982,32.658,408.555,33.214"/>
		<path id="Path_21420" fill="#EFEFEF" d="M384.7,33.414c-0.077-0.253-0.149-0.508-0.217-0.765l-0.013-0.047
			c-0.062-0.238-0.12-0.477-0.175-0.716c-0.058-0.256-0.112-0.512-0.161-0.77c-0.018-0.093-0.034-0.186-0.049-0.279
			c-0.029-0.166-0.059-0.33-0.085-0.5c-0.021-0.143-0.042-0.285-0.06-0.429c-0.134-0.984-0.201-1.978-0.2-2.971h-4.57
			c0.001,1.085,0.068,2.167,0.2,3.244c0,0.022,0.006,0.046,0.009,0.069c0.036,0.291,0.076,0.58,0.12,0.867
			c0.013,0.08,0.026,0.159,0.04,0.239c0.04,0.235,0.081,0.472,0.126,0.707c0.023,0.125,0.05,0.249,0.077,0.373
			c0.038,0.187,0.078,0.374,0.121,0.56c0.038,0.163,0.078,0.326,0.12,0.489c0.037,0.146,0.072,0.29,0.111,0.435
			c0.052,0.192,0.108,0.383,0.163,0.574c0.023,0.08,0.044,0.161,0.068,0.239l0,0c0.313,1.038,0.688,2.056,1.124,3.048l4.188-1.842
			c-0.362-0.823-0.674-1.668-0.934-2.529L384.7,33.414z"/>
		<path id="Path_21421" fill="#FFFFFF" d="M406.112,49.313c-5.933,0.003-11.622-2.359-15.809-6.563l-3.237,3.237
			c10.516,10.522,27.571,10.526,38.093,0.011c4.233-4.23,6.937-9.751,7.684-15.688h-4.61c-1.68,10.921-11.07,18.985-22.119,19
			 M406.114,4.566c4.823-0.005,9.516,1.556,13.375,4.45l2.737-3.67c-11.926-8.9-28.809-6.447-37.708,5.479
			c-1.452,1.945-2.634,4.078-3.514,6.34l4.263,1.659c3.353-8.589,11.626-14.246,20.846-14.255"/>
		<path id="Path_21422" fill="#EFEFEF" d="M428.233,23.573h4.611c-0.481-3.873-1.805-7.593-3.875-10.9l-3.884,2.424
			c1.618,2.58,2.688,5.464,3.146,8.474"/>
		<path id="Path_21423" fill="#FFFFFF" d="M423.035,23.573h4.627c-1.213-7.673-6.406-14.128-13.643-16.956l-1.652,4.25
			C417.854,13.012,421.872,17.799,423.035,23.573"/>
		<path id="Path_21424" fill="#EFEFEF" d="M406.112,9.692V5.135l0,0c-8.99,0.01-17.056,5.526-20.325,13.9l4.247,1.653
			c2.585-6.626,8.966-10.991,16.078-11"/>
		<path id="Path_21425" fill="#FFFFFF" d="M388.859,26.94h-4.557c0.01,8.915,5.437,16.929,13.711,20.246l1.693-4.229
			C393.16,40.332,388.867,33.992,388.859,26.94"/>
		<path id="Path_21426" fill="#EFEFEF" d="M406.112,44.193v4.559c10.741-0.015,19.878-7.834,21.551-18.444h-4.63
			C421.418,38.375,414.339,44.183,406.112,44.193"/>
	</g>
</g>
</svg>
