<?xml version="1.0" encoding="utf-8"?>
<!-- Generator: Adobe Illustrator 23.0.2, SVG Export Plug-In . SVG Version: 6.00 Build 0)  -->
<svg version="1.1" id="Layer_1" xmlns="http://www.w3.org/2000/svg" xmlns:xlink="http://www.w3.org/1999/xlink" x="0px" y="0px"
	 viewBox="0 0 80 80" style="enable-background:new 0 0 80 80;" xml:space="preserve">
<style type="text/css">
	.st0{fill:#FFFFFF;fill-opacity:0;}
	.st1{fill:#A5A5A5;}
	.st2{fill:#DDDDDD;}
	.st3{fill:#FFFFFF;}
	.st4{fill:#D3D3D3;}
</style>
<g id="cloud_functions_logo" transform="translate(3720 -5774)">
	<rect id="Rectangle_3172" x="-3720" y="5774" class="st0" width="80" height="80"/>
	<g id="Group_12355" transform="translate(-3708.647 5785.356)">
		<path id="Path_21333" class="st1" d="M2,38.1l8,6.5v-32l-8,6.5V38.1z"/>
		<path id="Path_21334" class="st2" d="M2,23.3l8-5.3v-5.3L2,23.3z"/>
		<path id="Path_21335" class="st2" d="M10,44.6v-5.3L2,34L10,44.6z"/>
		<path id="Path_21336" class="st3" d="M18,49.9L2,34v10.7l10.7,10.7L18,49.9z"/>
		<path id="Path_21337" class="st3" d="M12.6,2L2,12.6l0,10.7L18,7.3L12.6,2z"/>
		<path id="Path_21338" class="st1" d="M55.3,19.2l-8-6.5v32l8-6.4V19.2z"/>
		<path id="Path_21339" class="st2" d="M55.3,34l-8,5.3v5.3L55.3,34z"/>
		<path id="Path_21340" class="st2" d="M47.3,12.7V18l8,5.3L47.3,12.7z"/>
		<path id="Path_21341" class="st3" d="M39.3,7.3l16,16V12.7L44.6,2L39.3,7.3z"/>
		<path id="Path_21342" class="st3" d="M44.7,55.3l10.6-10.6l0-10.7l-15.9,16L44.7,55.3z"/>
		<ellipse id="Oval" class="st4" cx="18.1" cy="28.7" rx="2.8" ry="2.2"/>
		<circle id="Oval-2" class="st4" cx="28.7" cy="28.7" r="2.2"/>
		<circle id="Oval-3" class="st4" cx="39.3" cy="28.6" r="2.7"/>
	</g>
</g>
</svg>
