<?xml version="1.0" encoding="utf-8"?>
<!-- Generator: Adobe Illustrator 16.0.0, SVG Export Plug-In . SVG Version: 6.00 Build 0)  -->
<!DOCTYPE svg PUBLIC "-//W3C//DTD SVG 1.1//EN" "http://www.w3.org/Graphics/SVG/1.1/DTD/svg11.dtd">
<svg version="1.1" id="Layer_1" xmlns="http://www.w3.org/2000/svg" xmlns:xlink="http://www.w3.org/1999/xlink" x="0px" y="0px"
	 width="80px" height="80px" viewBox="0 0 80 80" enable-background="new 0 0 80 80" xml:space="preserve">
<g id="codeigniter_logo" transform="translate(3358 -7440)">
	<rect id="Rectangle_3172" x="-3358" y="7440" fill="#FFFFFF" fill-opacity="0" width="80" height="80"/>
	<path id="codeigniter" fill="#FFFFFF" d="M-3326.908,7510c-3.6-1.555-6.964-5.507-6.972-9.551c-0.01-4.409,2.784-8.152,6.26-10.612
		c-0.418,1.578-0.646,3.022,0.389,4.435c0.978,1.316,2.635,1.941,4.239,1.6c3.718-0.814,3.889-4.9,1.684-7.283
		c-2.179-2.357-4.288-5.021-3.458-8.442c0.455-1.741,1.432-3.3,2.8-4.468c-1.025,2.694,1.888,5.35,3.807,6.674
		c3.329,2.299,6.982,4.03,10.043,6.722c3.22,2.827,5.601,6.653,5.117,11.088c-0.521,4.808-4.34,8.151-8.625,9.839
		c9.056-2,18.411-9.025,18.601-19.068c0.158-8.262-5.51-14.62-12.529-18.26l-0.367-0.2c0.168,0.385,0.252,0.801,0.248,1.221
		c0.064-0.266,0.104-0.538,0.117-0.811c-0.001,0.331-0.045,0.66-0.129,0.98l0.012-0.169c-0.104,0.439-0.28,0.857-0.52,1.239
		l0.1-0.111c-1.33,2.038-4.061,2.611-6.098,1.281c-0.363-0.237-0.689-0.527-0.969-0.859c-3.011-3.869,0.063-8.041,0.493-12.139
		c0.546-5.135-2.677-10.121-6.668-13.104c2.2,3.558-0.7,8.264-3.016,10.9c-2.248,2.551-4.981,4.68-7.463,7
		c-2.704,2.455-5.187,5.143-7.419,8.033c-4.382,5.848-7.065,13.2-5.093,20.5C-3340.352,7503.732-3334.042,7508.355-3326.908,7510z"
		/>
</g>
</svg>
