<svg xmlns="http://www.w3.org/2000/svg" viewBox="0 0 750 500"><defs><style>.cls-1,.cls-11{fill:#fff;}.cls-2{fill:#e2e8f5;}.cls-10,.cls-11,.cls-12,.cls-13,.cls-15,.cls-16,.cls-17,.cls-18,.cls-19,.cls-2,.cls-20,.cls-21,.cls-22,.cls-24,.cls-25,.cls-27,.cls-28,.cls-29,.cls-3,.cls-31,.cls-32,.cls-33,.cls-35,.cls-37,.cls-38,.cls-4,.cls-5,.cls-6,.cls-7,.cls-8,.cls-9{fill-rule:evenodd;}.cls-3{fill:#b1c0e2;}.cls-4{fill:#bfcce8;}.cls-5{fill:#9eb1d9;}.cls-6{fill:#01020e;}.cls-7{fill:#e2e1e7;}.cls-8{fill:#e74d91;}.cls-14,.cls-9{fill:#0e1632;}.cls-10{fill:#e8685b;}.cls-12{fill:#0076bd;}.cls-13{fill:#3a405c;}.cls-15{fill:#f4ad85;}.cls-16{fill:#ed9072;}.cls-17{fill:#010518;}.cls-18{fill:#e68392;}.cls-19{fill:#f2f0f0;}.cls-20{fill:#e37b64;}.cls-21,.cls-36{fill:#e6e4eb;}.cls-22{fill:#d64341;}.cls-23{fill:#003f6a;}.cls-24{fill:#04263b;}.cls-25{fill:#004a82;}.cls-26,.cls-29{fill:#383d5d;}.cls-27{fill:#b92f6d;}.cls-28{fill:#c9c4d1;}.cls-30,.cls-31{fill:#f4f4f7;}.cls-32{fill:#ebeaef;}.cls-33{fill:#c5c1cd;}.cls-34{fill:#e0dee1;}.cls-35{fill:#acadbb;}.cls-37{fill:#ca2871;}.cls-38{fill:#b0dde5;}</style></defs><title>contact-us-vector</title><g id="BACKGROUND"><rect class="cls-1" x="125" width="500" height="500"/><rect class="cls-1" width="750" height="500"/></g><g id="OBJECTS"><path class="cls-2" d="M229.64,444H673.33a29,29,0,0,0,28.9-28.9h0a29,29,0,0,0-28.9-28.91h-12c-51.56,0-93.75-42.19-93.75-93.75s-42.19-93.75-93.75-93.75H396.68a11.07,11.07,0,0,1-11-11h0a11.06,11.06,0,0,1,11-11h49.1a15.42,15.42,0,0,0,15.38-15.38h0a15.42,15.42,0,0,0-15.38-15.38H384.15a31.16,31.16,0,0,1-31.06-31.06A31.16,31.16,0,0,0,322,83.74H154.61A31.72,31.72,0,0,0,123,115.37h0A31.71,31.71,0,0,0,154.61,147h47.46a18,18,0,0,1,17.85,17.93h0a18,18,0,0,1-17.85,17.93h.07a35.57,35.57,0,0,0-35.45,35.46,35.55,35.55,0,0,1-35.45,35.45c-52.32,0-95.12,42.81-95.12,95.12h0c0,52.32,42.8,95.13,95.12,95.13ZM75,147a31.71,31.71,0,0,1-31.62-31.62h0A31.72,31.72,0,0,1,75,83.74h0a31.72,31.72,0,0,1,31.63,31.63h0A31.72,31.72,0,0,1,75,147Z"/><path class="cls-3" d="M561.21,258.64q-1.63-4.2-3.66-8.2H473.06c-.73,0-1,.6-.62,1.32l3,5.57a2.61,2.61,0,0,0,2,1.31Z"/><path class="cls-3" d="M564.73,269.63q-1.07-4.19-2.48-8.2H473.06c-.73,0-1,.59-.62,1.32l3,5.56a2.6,2.6,0,0,0,2,1.32Z"/><path class="cls-3" d="M566.81,280.61c-.35-2.77-.84-5.5-1.43-8.2H473.06c-.73,0-1,.59-.62,1.32l3,5.57a2.61,2.61,0,0,0,2,1.31Z"/><path class="cls-3" d="M567.55,291.6q0-4.16-.43-8.2H473.06c-.73,0-1,.59-.62,1.31l3,5.57a2.62,2.62,0,0,0,2,1.32Z"/><path class="cls-3" d="M568.11,302.58c-.29-2.7-.47-5.44-.53-8.2H473.06c-.73,0-1,.59-.62,1.32l3,5.56a2.6,2.6,0,0,0,2,1.32Z"/><path class="cls-3" d="M488.22,253.44a.83.83,0,1,0-1.66,0v71.77a.83.83,0,1,0,1.66,0Z"/><path class="cls-3" d="M484.07,344.39a3.32,3.32,0,0,0,6.64,0V325.21a3.32,3.32,0,1,0-6.64,0Z"/><path class="cls-3" d="M321.72,97.14H214.78c-.75,0-1,.61-.63,1.36l3.07,5.78a2.71,2.71,0,0,0,2.1,1.36H326.26c.75,0,1-.61.64-1.36l-3.08-5.78A2.68,2.68,0,0,0,321.72,97.14Z"/><path class="cls-3" d="M321.72,108.53H214.78c-.75,0-1,.61-.63,1.37l3.07,5.77a2.72,2.72,0,0,0,2.1,1.37H326.26c.75,0,1-.62.64-1.37l-3.08-5.77A2.67,2.67,0,0,0,321.72,108.53Z"/><path class="cls-3" d="M230.51,100.25a.86.86,0,1,0-1.72,0v74.43a.86.86,0,0,0,1.72,0Z"/><path class="cls-3" d="M226.21,194.58a3.44,3.44,0,1,0,6.88,0v-19.9a3.44,3.44,0,0,0-6.88,0Z"/><path class="cls-3" d="M139.54,252.77a35,35,0,0,1-8.3,1,94.3,94.3,0,0,0-35.37,6.86h48a2.47,2.47,0,0,0,1.94-1.26l2.84-5.33c.37-.69.1-1.26-.59-1.26Z"/><path class="cls-3" d="M89.87,263.29a95,95,0,0,0-13.28,7.85h67.28a2.47,2.47,0,0,0,1.94-1.26l2.84-5.33c.37-.69.1-1.26-.59-1.26Z"/><path class="cls-3" d="M73,273.81a97.55,97.55,0,0,0-8.9,7.85h79.77a2.47,2.47,0,0,0,1.94-1.26l2.84-5.33c.37-.69.1-1.26-.59-1.26Z"/><path class="cls-3" d="M61.54,284.33A96.22,96.22,0,0,0,55,292.18h88.88a2.47,2.47,0,0,0,1.94-1.26l2.84-5.33c.37-.69.1-1.26-.59-1.26Z"/><path class="cls-3" d="M53.08,294.85q-2.64,3.79-4.92,7.85h95.71a2.49,2.49,0,0,0,1.94-1.26l2.84-5.33c.37-.69.1-1.26-.59-1.26Z"/><path class="cls-3" d="M133.54,256.7c0-1,.36-1.85.79-1.85s.8.83.8,1.85V416.49c0,1-.36,1.85-.8,1.85s-.79-.83-.79-1.85Z"/><path class="cls-3" d="M137.52,436.71a3.19,3.19,0,0,1-6.37,0V418.34a3.19,3.19,0,0,1,6.37,0Z"/><path class="cls-3" d="M49.32,305.37h98.74c.69,0,1,.56.59,1.26L145.81,312a2.49,2.49,0,0,1-1.94,1.26H45.13c-.69,0-1-.57-.59-1.26l2.84-5.33A2.48,2.48,0,0,1,49.32,305.37Z"/><path class="cls-3" d="M49.32,315.89h98.74c.69,0,1,.56.59,1.26l-2.84,5.33a2.49,2.49,0,0,1-1.94,1.26H45.13c-.69,0-1-.57-.59-1.26l2.84-5.33A2.48,2.48,0,0,1,49.32,315.89Z"/><path class="cls-3" d="M49.32,326.41h98.74c.69,0,1,.56.59,1.26L145.81,333a2.49,2.49,0,0,1-1.94,1.26H45.13c-.69,0-1-.57-.59-1.26l2.84-5.33A2.48,2.48,0,0,1,49.32,326.41Z"/><path class="cls-3" d="M49.32,336.92h98.74c.69,0,1,.57.59,1.27l-2.84,5.33a2.49,2.49,0,0,1-1.94,1.26H45.13c-.69,0-1-.57-.59-1.26l2.84-5.33A2.49,2.49,0,0,1,49.32,336.92Z"/><path class="cls-3" d="M49.32,347.44h98.74c.69,0,1,.57.59,1.27L145.81,354a2.49,2.49,0,0,1-1.94,1.26H45.13c-.69,0-1-.57-.59-1.26l2.84-5.33A2.49,2.49,0,0,1,49.32,347.44Z"/><path class="cls-3" d="M49.32,358h98.74c.69,0,1,.57.59,1.27l-2.84,5.33a2.49,2.49,0,0,1-1.94,1.26H45.13c-.69,0-1-.57-.59-1.26l2.84-5.33A2.49,2.49,0,0,1,49.32,358Z"/><path class="cls-3" d="M49.32,368.48h98.74c.69,0,1,.57.59,1.26l-2.84,5.33a2.48,2.48,0,0,1-1.94,1.27H45.13c-.69,0-1-.57-.59-1.27l2.84-5.33A2.51,2.51,0,0,1,49.32,368.48Z"/><path class="cls-3" d="M49.32,379h98.74c.69,0,1,.57.59,1.26l-2.84,5.33a2.48,2.48,0,0,1-1.94,1.27H45.13c-.69,0-1-.57-.59-1.27l2.84-5.33A2.51,2.51,0,0,1,49.32,379Z"/><path class="cls-4" d="M166.91,134.66a11.13,11.13,0,0,1-4.81,5.67,14.7,14.7,0,0,1-3.53,1.63,1,1,0,0,1-1.3-.72,1,1,0,0,1,0-.39,13.87,13.87,0,0,0,0-3.22,11.84,11.84,0,0,0-.37-1.77,20.21,20.21,0,1,1,10.08-1.2Z"/><path class="cls-5" d="M527.25,346H562a3.25,3.25,0,0,1,2.08.75.89.89,0,0,1,.4.32,1,1,0,0,1,.15.26,3.24,3.24,0,0,1,.65,1.95v20.41a3.27,3.27,0,0,1-1,2.32h0a3.27,3.27,0,0,1-2.32,1H527.25a3.29,3.29,0,0,1-3.28-3.29V349.26a3.27,3.27,0,0,1,.65-2,1.23,1.23,0,0,1,.14-.25,1,1,0,0,1,.41-.32A3.23,3.23,0,0,1,527.25,346Z"/><path class="cls-6" d="M258,306c7.82,4.21,12.16,9.2,17.49,16.41,11.87,16.07,16.51,28.38,30,42.88,5,5.34,29.51-36.66,32.35-42.18.55-1.08,2.94-6.28,5-4.64.95.76,4.26,4.12,6.37,5.19s4.68.52,5.18,3.65C348.81,348,324,414.12,294.6,392.35c-20.88-15.44-36.45-39.18-39.11-42.63-9.66-12.5-3.37-25-7.68-33.91l0,0-.28-.6-.1-.21-.18-.38h0l-.16-.36L247,314l-.06-.15h0c-1.83-4.15-1.94-5.8-1.94-5.8l4.06,4.51Z"/><path class="cls-7" d="M175.08,322.48l13.68-17.3,3-2.59,30.39-11.43,14.06,2.19h0s14,6.83,15.21,6.77a1.78,1.78,0,0,0,.6-.23l8.29,23.86s5,34.58,5.75,36.93,1.32,35.51-1.29,40.27-.4,12.14-10.46,15.24-31.6,9.09-46.05-6.19-17.46-23.75-21.08-28.92S175.08,322.48,175.08,322.48Z"/><path class="cls-8" d="M232.51,312.88l.84,1.46S245.4,350.78,244.9,380s-15.22,4.24-15,1.74,2.86-50,.31-67.19C230.23,314.53,230.42,312.22,232.51,312.88Z"/><path class="cls-6" d="M239.18,295s11.68,27.89,7.28,59.84a286.66,286.66,0,0,1-13.7,56.4l-2.24,28h40.37c.28-11.3.69-20.82,1.26-27.25C275.33,376.54,285.12,301.18,239.18,295Z"/><path class="cls-9" d="M239.18,295s11.68,27.89,7.28,59.84a295.81,295.81,0,0,1-6.07,31.07h0l1.05,4.93c8.69-20.4,22.11-71.9,21.78-72.07S255,318,255,318c1.89-1.85,4.24-2.8,3.75-3.7S247,299,244.79,296.17A40,40,0,0,0,239.18,295Z"/><path class="cls-6" d="M244.67,439.23c-.4-7.38-.77-12.72-1-15.13-4.51-51.77-2.25-86.43-37-127.36-8.13,1.56-22.79,9.21-22.79,9.21-6.45,3.37-12.59,8.77-13.66,16.23-1.52,10.58,10,47.25,17.08,70.22,3.06,9.9,3.44,26.85,2.43,46.83Z"/><path class="cls-10" d="M211,262.47l.36,8.3v19.58c0,1.25-1.17,3-3.22,4.61,3.06,3.32,10.61,11,15.34,11.77,6.05.93,13-1.75,14.79-3.25,1.22-1,1.34-6.46,2-9.49-.56-.16.08,0-.49-.18a9,9,0,0,1-3.78-2.18c-2.84-3.1-2.71-16.91.13-20.52S211,262.47,211,262.47Z"/><path class="cls-7" d="M233.69,302.92l-3.43-1.84s-.29,3.78-.69,3.9-.95-2.37-2.43-3.28-5.44,4.5-5.44,4.5,1.47,4.21,3.6,4.52,8.5,1,8.59-.89S233.69,302.92,233.69,302.92Z"/><path class="cls-8" d="M229.29,307.48a13.43,13.43,0,0,1-5.56-1.84,3.42,3.42,0,0,0-4.4.41l2.44,2.76L222,310s3.64-.64,5.94,1S229.29,307.48,229.29,307.48Z"/><path class="cls-11" d="M209.69,291s4.3,7.73,15.72,9.73c1.56.33,4.52,3.19,2.43,2.81s-6.74,8.55-7.36,11.92-14.36-14.17-15.23-19.66C205.25,295.8,207.5,291.62,209.69,291Z"/><path class="cls-8" d="M234.07,307.69a5,5,0,0,0-2.37-1c-1.06,0-3,0-3.81.71a7.53,7.53,0,0,0-1.84,2.91c-.07.53,3.18,3.74,4.18,4.24s2.06-.31,3.12-.19S234.72,308.81,234.07,307.69Z"/><path class="cls-11" d="M235.5,290.84s.91,6.83-4.5,9.27a1.24,1.24,0,0,0-.27,2.1c1.21,1.36,3,6.69,3.54,9.08s7.22-9.74,6.75-17.2C241,294.09,237.32,291.33,235.5,290.84Z"/><path class="cls-6" d="M183.86,306c-7.82,4.21-12.15,9.2-17.48,16.41-11.87,16.07-16.51,28.38-30,42.88-5,5.34-29.52-36.66-32.35-42.18-.56-1.08-2.94-6.28-5-4.64-1,.76-4.25,4.12-6.36,5.19s-4.68.52-5.18,3.65c5.57,20.72,30.35,86.86,59.78,65.09,20.87-15.44,36.44-39.18,39.1-42.63,9.67-12.5,3.37-25,7.69-33.91v0l.29-.6.09-.21.18-.38h0l.16-.36.09-.21.07-.15h0c1.83-4.15,1.93-5.8,1.93-5.8l-4.06,4.51Z"/><path class="cls-12" d="M259.56,249.8a1.57,1.57,0,1,0,3.14,0V207.17a21,21,0,0,0-7.55-16.27c-4.1-3.39-10.22-5.85-19.19-6.09-10.43-.28-21.68.51-30.38,4.12-9,3.74-15.34,10.42-15.34,21.85V247a1.58,1.58,0,1,0,3.15,0V210.78c0-9.88,5.5-15.68,13.39-18.95,8.23-3.41,19-4.16,29.1-3.89,8.17.22,13.67,2.39,17.28,5.38a17.88,17.88,0,0,1,6.4,13.85Z"/><path class="cls-13" d="M269.76,254.49h-1.27a3.17,3.17,0,0,0-3.16,3.16h0a3.17,3.17,0,0,0,3.16,3.16h1.27a3.16,3.16,0,0,0,3.15-3.16h0A3.16,3.16,0,0,0,269.76,254.49Z"/><path class="cls-12" d="M256.56,270.23a12.62,12.62,0,0,0,12.59-12.58h0a12.62,12.62,0,0,0-12.59-12.58Z"/><rect class="cls-14" x="254.32" y="242.32" width="4.49" height="30.65" rx="2.24"/><path class="cls-15" d="M229.22,202h0a30.49,30.49,0,0,0-31.63,29.13l-1.13,27.62a30.49,30.49,0,0,0,29.13,31.63h0a30.5,30.5,0,0,0,31.64-29.14l1.13-27.61A30.49,30.49,0,0,0,229.22,202Z"/><path class="cls-16" d="M224.94,202.15a30.51,30.51,0,0,0-27.35,29l-1.13,27.62a30.49,30.49,0,0,0,29.13,31.63h0a30.06,30.06,0,0,0,3.43,0c-21.38-.24-22.17-24.8-22.17-35.16s12.34-22.21,17.69-22.45,14.62,6.61,14.62,6.61,10.72-13.61,10.55-12.62C247.36,224.38,235.15,210.56,224.94,202.15Z"/><path class="cls-11" d="M221.05,264.33a9.67,9.67,0,1,0,19.33.8h0a1.67,1.67,0,0,0-1.6-1.74l-16-.66a1.69,1.69,0,0,0-1.74,1.6Z"/><path class="cls-9" d="M195.28,212.1s-14.27,4.25-2.19,33.57c3,.12,3.81,2.4,3.73,4.3l-.16,3.78c4.65-1.85,4.07-6.8,3.48-9.2,0,0,17.12-3.49,20.16-22.21,0,0,.12-1.35,1.82-.26,1.46.94,15.89,19.83,29.24,25,12.2,4.71,24.34-10.77,22-24.14C265.67,178.19,196.55,181.11,195.28,212.1Z"/><path class="cls-17" d="M195.28,212.1s-14.27,4.25-2.19,33.57c3,.12,3.81,2.4,3.73,4.3l-.16,3.78c4.65-1.85,4.07-6.8,3.48-9.2,0,0,17.12-3.49,20.16-22.21,0,0,.12-1.35,1.82-.26,1.46.94,15.89,19.83,29.24,25,11.32,4.37,22.58-8.63,22.31-21.2,0,.73-1.25,17.83-18.43,12.06-17.55-5.91-30-21.2-37.92-18.24s-26.2,4.32-20.19-15.12A19.46,19.46,0,0,0,195.28,212.1Z"/><path class="cls-12" d="M190.24,210.92V247a1.58,1.58,0,1,0,3.15,0v-36.1Z"/><path class="cls-13" d="M183.43,254.49h1.27a3.17,3.17,0,0,1,3.16,3.16h0a3.17,3.17,0,0,1-3.16,3.16h-1.27a3.17,3.17,0,0,1-3.16-3.16h0A3.17,3.17,0,0,1,183.43,254.49Z"/><path class="cls-12" d="M196.62,270.23A12.62,12.62,0,0,1,184,257.65h0a12.62,12.62,0,0,1,12.58-12.58Z"/><path class="cls-9" d="M196.62,242.32h0a2.25,2.25,0,0,1,2.25,2.25v26.16a2.25,2.25,0,0,1-2.25,2.25h0a2.25,2.25,0,0,1-2.24-2.25V244.57A2.25,2.25,0,0,1,196.62,242.32Z"/><path class="cls-9" d="M242.2,405c-3-41.67-5.21-72.6-35.55-108.3a48,48,0,0,0-7.25,2.2c.78,3.77,3.38,16.5,3.59,18.8a1.13,1.13,0,0,0,.76.56c.57.14,8.45-1.17,8.45-1.17s-9.44,6.21-9.87,6.6,39.52,81.58,39.52,81.58Z"/><path class="cls-15" d="M104.16,316.16c.77-4.05,4.59-13,5.51-14,1.21-1.26-5.18-5.1-7.45,1,0,0-3,4-4.16,3.36s-3.42-16.26-3.62-18.21-2.85-2.09-3.45-1.54,0,3.05.11,6.64.29,5.82,0,6.17c-.86,1-5.16-12.21-6.69-13.07-1-.54-4,.76-3.84,2.58s4.92,12.6,5.09,14.17-.75.71-1.46-.15-7.11-11.57-8-12.11-3.69,1.09-3,2.93,6.73,12.6,6.69,13.5-.67.8-2.67-.61-5.94-4.33-7.08-4.05c-.74,0-1.71,2.22.06,4s6,6.46,6.53,7.23c2.86,4.05,4.31,8.51,7,11.37a9.48,9.48,0,0,0,3.63,2.34C96,331,102.58,324.51,104.16,316.16Z"/><path class="cls-16" d="M83.06,324.68c.19.24.39.47.6.7a9.29,9.29,0,0,0,3.28,2.2l.35.14a11.27,11.27,0,0,0,13.58-4,18,18,0,0,0,3.29-7.61c0-.1,0-.19.06-.3C100.44,324.16,91.68,327.38,83.06,324.68Z"/><path class="cls-18" d="M345.74,255.7a8.69,8.69,0,0,0,5.4-6c1.1-4.59,10.61-2.23,10.94-.87s1.38,3.17,1.1,5.59,1,3.18,1,3.18c-6.64,4-7.53.13-14.76,5.8C347,265.25,346.22,258.64,345.74,255.7Z"/><path class="cls-9" d="M380.78,298.53l-4.93-7.17s-30.66,10.06-46.37,4.48S349.6,265.75,352.13,263s-2.27-4.35-3.54-6.44-1.57-4.75-3.06-4.42S306.87,278,305.43,301.5s57.87,26.77,63.68,23.69S380.78,298.53,380.78,298.53Z"/><path class="cls-6" d="M380.78,298.53l-4.93-7.17a152.39,152.39,0,0,1-16,4.08c-3,6.06-7.89,13.41-15.19,16.52-13.41,5.71-34.36,2.42-39.25-10.46C304,325,363.3,328.27,369.11,325.19s11.67-26.66,11.67-26.66Zm-55.27-7.09h0c-1.27-7.91,14.45-20.6,16.29-27.09a10,10,0,0,0-1.84-8.52,40.64,40.64,0,0,1,5.57-3.72c1.49-.33,1.79,2.32,3.06,4.42s6.07,3.66,3.54,6.44C350,265.27,325.21,282.41,325.51,291.44Z"/><path class="cls-19" d="M344.92,251a31.61,31.61,0,0,0-3.26,2.17c-.74.69,1.12,4.64,3,8s3.87,5.06,4.46,5.23,2.24-1.33,2.24-1.33Z"/><path class="cls-9" d="M375,213.3c-1.06.42-31.26,26.18-33.07,27.62s-1.44,2.74.69,6.67,6.55,11.86,7.59,14.22c.81,1.85,2.71,3.8,4.27,3.85.45,0,3.54.55,3.89.2,1.6-1.54,28.78-26.79,29.27-27.47s1.72-2.62-.63-6.46c-2.24-3.65-3.13-5.84-8.68-16.2-.29-.55,1.88-2,1.25-2.27A7.7,7.7,0,0,0,375,213.3Z"/><path class="cls-6" d="M378.47,213.53c-1.06.42-31.26,26.18-33.06,27.62s-1.44,2.74.69,6.67,6.55,11.86,7.59,14.22,3.88,4.92,5.48,3.38,31.45-26.12,31.95-26.8,1.72-2.62-.64-6.46c-2.24-3.65-3.12-5.84-8.67-16.2C381.15,214.73,380.07,212.9,378.47,213.53Z"/><path class="cls-6" d="M359.48,265.14c3.56-3.13,31.16-25.87,31.64-26.52s1.72-2.62-.64-6.46c-2.24-3.65-3.12-5.84-8.67-16.2a10.21,10.21,0,0,0-1-1.55c-5.6,4.42-30.35,25.51-32,26.82-1.81,1.44-1.44,2.74.7,6.67s6.54,11.86,7.58,14.22A8.25,8.25,0,0,0,359.48,265.14Z"/><path class="cls-9" d="M354.49,250.82a1.68,1.68,0,0,0-2.6-.45,2.44,2.44,0,0,0-.78,3,1.68,1.68,0,0,0,2.6.46A2.43,2.43,0,0,0,354.49,250.82Z"/><path class="cls-9" d="M386.08,231.68c-.07-.08-2.47-4.67-2.57-4.86s-.05-.27.17-.44.68-.54.79-.66.36-.17.45,0,2.48,4.68,2.51,4.76a.36.36,0,0,1-.16.43c-.23.15-.33.26-.91.74C386.29,231.73,386.18,231.81,386.08,231.68Z"/><path class="cls-9" d="M382.88,225.63c-.07-.08-.61-1.15-.71-1.34s-.06-.27.17-.44.67-.54.79-.66.37-.17.45,0,.62,1.16.64,1.24a.34.34,0,0,1-.16.43c-.22.15-.32.27-.9.74C383.09,225.68,383,225.76,382.88,225.63Z"/><path class="cls-13" d="M376.28,219.72c-.82.33-22.61,18.9-24,20s-1.11,2.12.53,5.16,5.06,9.16,5.87,11,3,3.8,4.24,2.61,22.76-18.86,23.14-19.39,1.33-2-.49-5-2.41-4.52-6.7-12.53C378.35,220.65,377.51,219.23,376.28,219.72Z"/><path class="cls-11" d="M353.62,242.94a.08.08,0,0,1-.06.1.08.08,0,0,1-.09-.06.8.8,0,0,1,.19-.82A.49.49,0,0,1,354,242a.41.41,0,0,1,.33.2,1,1,0,0,1,0,.9.62.62,0,0,1,.66,0,.47.47,0,0,1,.22.71,1.3,1.3,0,0,1-.47.46.73.73,0,0,1-.57.1c-.21-.09-.31-.36-.13-.92a1,1,0,0,1-.52.08.08.08,0,0,1-.06-.09.06.06,0,0,1,.08-.06,1,1,0,0,0,.58-.14l0-.07a1,1,0,0,0,.07-.87.32.32,0,0,0-.22-.13.34.34,0,0,0-.26.1.64.64,0,0,0-.14.67Zm5.69,10.33a.08.08,0,0,1,0,.1.07.07,0,0,1-.1,0,1.26,1.26,0,0,1,0-1.34.87.87,0,0,1,.27-.24.68.68,0,0,1,.32-.09h0a.52.52,0,0,1,.49.36l.14.36a3.74,3.74,0,0,0,1,1.71,3.92,3.92,0,0,1,.08-.55h0a3.59,3.59,0,0,1,.26-.6l.26-.56h0a.4.4,0,0,1,.1-.12.26.26,0,0,1,.21,0,.56.56,0,0,1,.2.11,1.08,1.08,0,0,1,.28.39,1,1,0,0,1,.08.38h0a1.85,1.85,0,0,1-.26.88,1.27,1.27,0,0,1-.44.49h-.06a1.1,1.1,0,0,1-.58-.13l-.05.5c0,.14-.19.27-.41.32a1.22,1.22,0,0,1-.27,0,.66.66,0,0,1-.27-.09.81.81,0,0,1-.3-.87c0-.13,0-.24,0-.35s0-.22,0-.34a.08.08,0,0,1,.09-.06.06.06,0,0,1,.06.08c0,.12,0,.23,0,.33s0,.23,0,.36c-.05.4.06.62.23.72a.48.48,0,0,0,.21.07.81.81,0,0,0,.22,0c.16,0,.28-.11.29-.18l.05-.57a3.78,3.78,0,0,1-1.1-1.83,3.82,3.82,0,0,0-.13-.36.39.39,0,0,0-.35-.27.44.44,0,0,0-.24.07.7.7,0,0,0-.23.2,1.15,1.15,0,0,0,0,1.19Zm2.24.91a1.1,1.1,0,0,0,.57.15h0a1.51,1.51,0,0,0,.36-.42,1.71,1.71,0,0,0,.24-.81h0a1.14,1.14,0,0,0-.07-.32.88.88,0,0,0-.24-.33.29.29,0,0,0-.14-.08h-.08l-.05.07h0c-.11.23-.19.41-.27.56a4,4,0,0,0-.24.58h0a3.89,3.89,0,0,0-.09.6Zm.09-.6-.09,0a.07.07,0,0,0,.09,0Zm-4.18-6.37a.08.08,0,0,1,.11,0,.08.08,0,0,1,0,.1h0l-.23.15c.16.24.42.62.65.92l.15.21.28-.34,0,0c0-.08.07-.11.18-.08a7.62,7.62,0,0,0,.28-.85l.15,0a9.07,9.07,0,0,1-.31.92h0l0,.1a1.55,1.55,0,0,1-.35.65h-.06l0,0a.61.61,0,0,1-.13-.14c-.27.34-.59.74-.73.89a.1.1,0,0,1-.07.07.08.08,0,0,1-.08-.07,4.11,4.11,0,0,0-.64-1.18l-.17-.27c-.09-.16.14-.41.41-.63.09-.08.19-.15.27-.21a.6.6,0,0,0-.08-.13.08.08,0,0,1,.15-.05l.06.09.23-.16Zm-.29.38-.26.2c-.23.19-.42.37-.38.44l.17.26a6.19,6.19,0,0,1,.63,1.13l.66-.87-.18-.24c-.22-.3-.48-.68-.64-.92Zm1.35.75,0,0-.29.37.09.11a5.58,5.58,0,0,0,.24-.53ZM356.8,247s-.07,0-.06-.08a.07.07,0,0,1,.08-.07,6.57,6.57,0,0,0,.84,0c.64,0,1.37-.07,1.42.08h0l-2.28.08Zm.87,0-.87,0a7,7,0,0,0,.87,0Zm1.27,0a7.84,7.84,0,0,0-1.27,0l1.27,0Zm0,0Zm-.07.39a1.47,1.47,0,0,0,.07-.39l-.07.39Zm-4.61-4c-.22.57-.17.82,0,.89a.59.59,0,0,0,.44-.09,1.31,1.31,0,0,0,.41-.4.35.35,0,0,0-.16-.51.6.6,0,0,0-.64.09Z"/><path class="cls-9" d="M450,297.75c-16.73-12.66-32-10.74-55.61-13-12.38.79-19.84,7.54-24.24,17.62l0,.08,0,.08-.1.23,0,.07,0,.05v0l0,.08-.13.31,0,.08,0,.06v0l0,.08,0,.07-.09.24,0,.08v0l-.06.14,0,.08-.12.32,0,.08h0l0,.07-.18.48v0l0,.05,0,.08-.14.41,0,0v0l-.36,1.08,0,.07h0l-.18.59h0c-7.65,17.83-20.42,25.14-3.72,47.76l.11.15h0V356c1.62,39.12-1.18,55.71-3.2,88.05H445c-6.54-24.93-17-48.13-15.32-69.17C432.39,340.71,458.71,328.71,450,297.75Z"/><path class="cls-6" d="M408.25,285.79l-.62,5.38s32.8-.48,32.58,19.23-15,29.56-25.27,39c-11.22,6.56-54.89-1.19-55.75-3.23a.66.66,0,0,1,0,.44,56,56,0,0,0,5.36,8.63l.11.15h0V356c.05,1.19.09,2.34.13,3.49a0,0,0,0,1,0,0c24.61-1.5,47.09,3.21,53.14,30.58,2.94,13.26-2.82,36.74-10,53.94h37c-6.54-24.93-17-48.13-15.32-69.17,2.73-34.13,29-46.13,20.37-77.09C436.81,287.74,424.5,286.85,408.25,285.79Z"/><path class="cls-9" d="M449.86,297.16c8.75,12.41,35.54,52.61,42.48,37.36,10.29-17.16,23.51-32.71,27-40.14.84-1.8,4.52,3.3,5.65,3.72,1.85.7,5.76.36,5.14,2.26-4.58,12.39-28.17,56.26-31.3,60.09-8.63,10.55-21.32,6.14-28.13.43-9.35-7.84-21.28-17-31.55-28.61Z"/><path class="cls-6" d="M447.4,295c3.11,4.41,5.68,7.74,9.2,12.65-3.53,6.93-2.76,32.29,5.92,41,29.34,29.36,44.77-8.57,56.77-34.94,4.44-9.74.46-12.29-1.93-15.12.17-.36,2.1-4.53,2.58-4.76,3.62-1.73,13.35,4,12.15,6.16-4.58,12.38-30.61,59.21-33.74,63-4.86,5.94-12.07,8.74-21.91,2.84-15.32-9.21-33.44-29.25-37.3-33.63Z"/><path class="cls-20" d="M416.63,254.27,415.26,262s-2.11,15.89-2.44,18.3,1.42,6.94,8.39,8.2c5.7,1-14.36,8.34-26,5.43-12-3-14.37-13.12-9.67-13.53a8.2,8.2,0,0,0,4-2c3-2.55,4.64-15.47,2.44-19.2S416.63,254.27,416.63,254.27Z"/><path class="cls-11" d="M376,213.91c1.55-17.59,12.59-38,35.26-39.74s46,10.33,49.7,39.46c2.44,19.12-1.77,41.54-3.76,60h0c-3.3,17.77,2.42,28-1.26,33.19a24.06,24.06,0,0,0-16.75-12.17h0c-3.47-.55-6.75,1-9.12,5.77-27.57,55.17-78,40.93-65.27-5.56,6-21.85,5-12.87,8.62-53.63C374.12,233.61,375.05,225,376,213.91Z"/><path class="cls-21" d="M379.8,221.55s.14-1,.34-2.53c.1-.72.21-1.54.32-2.42.21-1.6.45-3.35.66-4.91.55-4.18,6.56-16.81,21.81-19.37s30.24,11.57,35.52,23.58,3.79,19.5,4.88,21.12,5.83-10.52-1.71-28.89c0,0-.57-2.19.3-3s10.23,12.57,9.83,38.62-17.62,44.65-45.13,45.9-33.53-21.37-30.41-44.77l22.91-15.36Z"/><path class="cls-15" d="M437.71,242.35l-1.5,9.5A30.32,30.32,0,0,1,401.63,277h0A30.32,30.32,0,0,1,376.5,242.4l3.75-23.65h0s3-16,18.06-19.71S441,217.79,437.71,242.35Z"/><path class="cls-16" d="M437.71,242.35l-1.5,9.5A30.32,30.32,0,0,1,401.63,277h0c22.64,2.39,36.08-34.63,29.16-47.88s-21.19-17.26-21.19-17.26l3.68-4.58s3.42-.08,8.57.1C431.72,215.58,439.53,228.64,437.71,242.35Z"/><path class="cls-17" d="M381.84,213.85c2.15-5,6.85-12.42,16.47-14.81,11.32-2.81,29.79,9.26,36.82,25.88C401,201.55,385.76,211.36,381.84,213.85Z"/><path class="cls-17" d="M405.68,255.8a7.82,7.82,0,0,1-15.49-2.13h0a1.34,1.34,0,0,1,1.52-1.15l12.79,1.76a1.35,1.35,0,0,1,1.15,1.52Z"/><path class="cls-22" d="M402,261.43a7.82,7.82,0,0,1-9-.68,4.85,4.85,0,0,1,4.82-2.25A4.94,4.94,0,0,1,402,261.43Z"/><path class="cls-11" d="M391.55,252.51l12,1.65c0,1.35-.79,2.61-1.72,2.78-1.14.21-9.81-1.22-10.33-2A4.76,4.76,0,0,1,391.55,252.51Z"/><path class="cls-21" d="M377.71,300c9.7,13.46,26.68,3.59,38.9-2.74,3.13-1.63,3.08-1.21,1.18,1.78C405.26,318.82,378.51,322.8,377.71,300Z"/><path class="cls-15" d="M348.33,235.11c3.09-1.81,3.72-3.24,5.22-.87s6.61,1.08,5.54-.79c-1.58-2.75-1.32-2.56.2-2,4,1.36,7.58-.57,5.1-3.49,0,0,4.35,1.18,5.29-.71s-1.1-4-1.1-4-.12-1.1.64-1.18c1-.09,1.61,2.05,3.71.71,1.18-.76-.32-4.75-2.06-5.54s-6.72-1-8.14-.39-1.82,2.92-1.82,2.92c-3.33-.48-4.93.39-5.22,3.48-.11,1.1-2.93.73-3.79,2.06-.49.75,1,4.11-.8,4S349,231.79,348.33,235.11Z"/><path class="cls-15" d="M516,287.38c-.77-4.05-4.59-13.05-5.51-14-1.21-1.26,5.19-5.11,7.45,1,0,0,3,4,4.16,3.36s3.43-16.26,3.62-18.2,2.85-2.1,3.46-1.55,0,3.05-.12,6.64-.29,5.82,0,6.17c.86,1,5.16-12.21,6.69-13.06,1-.55,4,.76,3.84,2.58s-4.92,12.59-5.09,14.17.76.7,1.46-.15,7.12-11.58,8-12.11,3.69,1.08,3,2.93-6.73,12.6-6.69,13.5.68.8,2.67-.62,6-4.33,7.08-4.05c.74,0,1.71,2.23,0,4s-6,6.47-6.54,7.23c-2.85,4.06-4.31,8.52-7,11.37a9.37,9.37,0,0,1-3.63,2.34C524.17,302.17,517.54,295.73,516,287.38Z"/><path class="cls-16" d="M537.06,295.9q-.3.36-.6.69a9.31,9.31,0,0,1-3.29,2.21l-.34.13A11.28,11.28,0,0,1,519.24,295a18,18,0,0,1-3.29-7.6l-.06-.3C519.67,295.37,528.43,298.59,537.06,295.9Z"/><rect class="cls-23" x="189.47" y="393.06" width="9.05" height="11.16"/><path class="cls-24" d="M194.14,395.37a2,2,0,0,1,2,2V400h2.34v-6.17h-7.78c-.44,0-.87,0-1.27.07v1.44Z"/><rect class="cls-23" x="166.83" y="393.06" width="9.05" height="11.16"/><path class="cls-12" d="M161.16,427.75h42.73a1.36,1.36,0,0,0,1.37-1.65l-4-24.43a2,2,0,0,0-1.91-1.64H165.7a2,2,0,0,0-1.91,1.64l-4,24.43A1.37,1.37,0,0,0,161.16,427.75Z"/><path class="cls-9" d="M182.67,426.24h22.74a4.17,4.17,0,0,1,2.83,1.62l3.28,4.34H153.83l3.28-4.34a4.17,4.17,0,0,1,2.83-1.62Z"/><path class="cls-25" d="M197.72,402.68l.25,1.54,3.61,22h3.7s0-.09,0-.14l-4-24.43a2,2,0,0,0-1.91-1.64H165.7a2,2,0,0,0-1.68,1h31.79a2,2,0,0,1,1.91,1.64Zm-14.12-.2a11.4,11.4,0,1,1-11.39,11.4A11.4,11.4,0,0,1,183.6,402.48Z"/><rect class="cls-26" x="153.53" y="431.52" width="58.28" height="7.76" rx="1.61"/><circle class="cls-1" cx="182.56" cy="413.09" r="11.4"/><path class="cls-8" d="M182.56,418.61a5.52,5.52,0,1,0-5.52-5.52A5.53,5.53,0,0,0,182.56,418.61Z"/><path class="cls-27" d="M188.07,412.72c0,.12,0,.24,0,.37a5.72,5.72,0,0,1-.3,1.81h-5.22a1.09,1.09,0,0,1,0-2.18Z"/><path class="cls-27" d="M182.56,410.44a2.65,2.65,0,1,1-2.65,2.65A2.65,2.65,0,0,1,182.56,410.44Z"/><path class="cls-28" d="M182.56,405.82a1.22,1.22,0,1,0-1.22-1.22A1.22,1.22,0,0,0,182.56,405.82Z"/><path class="cls-28" d="M189.42,406.22a1.22,1.22,0,1,1-1.72,0A1.22,1.22,0,0,1,189.42,406.22Z"/><path class="cls-28" d="M189.42,420a1.22,1.22,0,1,1-1.72-1.73,1.22,1.22,0,0,1,1.72,1.73Z"/><path class="cls-28" d="M182.56,422.79a1.22,1.22,0,1,1,0-2.44,1.22,1.22,0,1,1,0,2.44Z"/><path class="cls-28" d="M175.7,420a1.22,1.22,0,1,1,1.72,0A1.22,1.22,0,0,1,175.7,420Z"/><path class="cls-28" d="M172.85,413.09a1.22,1.22,0,1,1,1.22,1.22A1.22,1.22,0,0,1,172.85,413.09Z"/><path class="cls-28" d="M175.7,406.22a1.22,1.22,0,0,1,1.72,1.73,1.22,1.22,0,1,1-1.72-1.73Z"/><path class="cls-9" d="M182.56,414.17a1.09,1.09,0,1,1,0-2.17H191a1.09,1.09,0,1,1,0,2.17Z"/><path class="cls-29" d="M196.94,393.86c6,0,8,3.88,8,6.95l1,1.72h12.67l.86-.94v-4.2c0-1.57.3-10.76-13.88-10.76H159.48c-14.18,0-13.88,9.19-13.88,10.76v4.2l.86.94h12.67l1-1.72c0-3.07,2-6.95,8-6.95h28.83Z"/><path class="cls-11" d="M160.52,400.81H144.8a1.1,1.1,0,0,0-1,1.18v5.87a1.1,1.1,0,0,0,1,1.18h15.72a1.1,1.1,0,0,0,1-1.18V402A1.1,1.1,0,0,0,160.52,400.81Z"/><path class="cls-24" d="M171.5,395.37a2,2,0,0,1,2,2V400h2.34v-6.17h-7.77c-.45,0-.88,0-1.28.07v1.44Z"/><path class="cls-9" d="M209.72,435.21a1.62,1.62,0,0,1-1.61,1.61H153.53v.84a1.7,1.7,0,0,0,.2.78h57.88a1.6,1.6,0,0,0,.21-.78v-4.53a1.57,1.57,0,0,0-.3-.93h0l-.06-.08a1.59,1.59,0,0,0-1.26-.6h-.48v3.69Z"/><path class="cls-9" d="M182.52,393.86h14.42a13,13,0,0,1,1.58.1c4.74.63,6.4,4.07,6.4,6.85h4l0-.1c0-3.48-2.3-7.9-9.09-7.9H167c-6.78,0-9.08,4.42-9.08,7.9l-.06.1h2.27c0-2.84,1.73-6.37,6.71-6.88.4,0,.83-.07,1.28-.07h14.41Z"/><rect class="cls-30" x="145.98" y="402.02" width="10.88" height="4.26" rx="0.61"/><path class="cls-31" d="M159.65,401.62v4.82a1.11,1.11,0,0,1-1,1.19H143.8v.23a1.1,1.1,0,0,0,1,1.18h15.72a1.1,1.1,0,0,0,1-1.18V402a1.1,1.1,0,0,0-1-1.18h-.87Z"/><path class="cls-11" d="M220.24,400.81H204.52a1.1,1.1,0,0,0-1,1.18v5.87a1.1,1.1,0,0,0,1,1.18h15.72a1.1,1.1,0,0,0,1-1.18V402A1.1,1.1,0,0,0,220.24,400.81Z"/><rect class="cls-30" x="205.7" y="402.02" width="10.88" height="4.26" rx="0.61"/><path class="cls-31" d="M219.37,401.62v4.82a1.11,1.11,0,0,1-1,1.19H203.52v.23a1.1,1.1,0,0,0,1,1.18h15.72a1.1,1.1,0,0,0,1-1.18V402a1.1,1.1,0,0,0-1-1.18h-.87Z"/><path class="cls-11" d="M526,344.49h34.73a3.25,3.25,0,0,1,2.08.75.93.93,0,0,1,.4.31.89.89,0,0,1,.15.27,3.22,3.22,0,0,1,.65,1.95v20.41a3.31,3.31,0,0,1-1,2.32h0a3.31,3.31,0,0,1-2.32,1H526a3.28,3.28,0,0,1-3.28-3.28V347.77a3.27,3.27,0,0,1,.65-2,.94.94,0,0,1,.14-.26,1,1,0,0,1,.41-.31,3.23,3.23,0,0,1,2.08-.75Zm35.18,24.9-13.77-10.52L544,361.5h0l-.09.05h-.15l-.12,0h0l-.11,0h-.27l-.12,0h0l-.11,0h-.16l-.08-.05h0l-3.44-2.63-13.76,10.52a1.33,1.33,0,0,0,.45.08h34.73a1.33,1.33,0,0,0,.45-.08Zm-12.54-11.45L562,368.15V347.72l-13.37,10.22Zm-23.93,10.21,13.37-10.21-13.37-10.22v20.43Zm18.65-8.69,17-13h-34Z"/><path class="cls-8" d="M108.46,180.15H163.2a7.25,7.25,0,0,1,7.23,7.23v51a.78.78,0,0,1-.5.74.8.8,0,0,1-.88-.17l-12.32-12.32H108.46a7.25,7.25,0,0,1-7.23-7.23v-32A7.25,7.25,0,0,1,108.46,180.15Z"/><path class="cls-11" d="M119.7,207.37a4,4,0,1,0-4-4A4,4,0,0,0,119.7,207.37Z"/><path class="cls-11" d="M135.83,207.37a4,4,0,1,0-4-4A4,4,0,0,0,135.83,207.37Z"/><path class="cls-11" d="M152,207.37a4,4,0,1,0-4-4A4,4,0,0,0,152,207.37Z"/><path class="cls-28" d="M431.57,322.8H298.81a3.94,3.94,0,0,0-3.67,3.05l-16.91,83.5a2.67,2.67,0,0,0,.23,1.81c.54,1,2.86,3.54,3.45,3.52L410,409.27a4.21,4.21,0,0,0,3.67-3l22.69-79.74a34.38,34.38,0,0,0-3.35-3.27A2.57,2.57,0,0,0,431.57,322.8Z"/><path class="cls-11" d="M434.38,325.57H301.62a3.94,3.94,0,0,0-3.67,3.05L281,412.12a2.43,2.43,0,0,0,2.44,3.05H416.23a3.94,3.94,0,0,0,3.67-3.05l16.91-83.5A2.42,2.42,0,0,0,434.38,325.57Z"/><path class="cls-32" d="M400.38,360.52H341.93a3,3,0,0,0-2.77,2.33l-7.22,38.88a1.88,1.88,0,0,0,1.9,2.33h58.45a3,3,0,0,0,2.77-2.33l7.23-38.88A1.9,1.9,0,0,0,400.38,360.52Z"/><path class="cls-33" d="M369.25,379.79H352a2.94,2.94,0,0,0-2.92,3.85l11.94,49.2a5.24,5.24,0,0,0,4.79,3.86h17.21a3,3,0,0,0,2.92-3.86L374,383.64A5.24,5.24,0,0,0,369.25,379.79Z"/><path class="cls-11" d="M375.19,379.79H358a2.94,2.94,0,0,0-2.92,3.85L367,432.84a5.23,5.23,0,0,0,4.78,3.86H389a3,3,0,0,0,2.92-3.86L380,383.64A5.23,5.23,0,0,0,375.19,379.79Z"/><path class="cls-11" d="M411.12,442.83H333.84a4.6,4.6,0,0,1-4.59-4.58h0a4.6,4.6,0,0,1,4.59-4.59h77.28a4.59,4.59,0,0,1,4.58,4.59h0A4.59,4.59,0,0,1,411.12,442.83Z"/><path class="cls-33" d="M349.29,442.83H320.44a4.59,4.59,0,0,1-4.58-4.58h0a4.59,4.59,0,0,1,4.58-4.59h28.85a4.6,4.6,0,0,1,4.59,4.59h0A4.6,4.6,0,0,1,349.29,442.83Z"/><path class="cls-32" d="M418.73,332.92H418a1.34,1.34,0,0,0-1.25,1.06l-3.27,17.59a.86.86,0,0,0,.86,1.06h.71a1.34,1.34,0,0,0,1.25-1.06L419.59,334A.86.86,0,0,0,418.73,332.92Z"/><path class="cls-32" d="M413.15,332.92h-.71a1.33,1.33,0,0,0-1.25,1.06l-3.27,17.59a.86.86,0,0,0,.86,1.06h.71a1.34,1.34,0,0,0,1.25-1.06L414,334A.86.86,0,0,0,413.15,332.92Z"/><path class="cls-32" d="M407.57,332.92h-.71A1.35,1.35,0,0,0,405.6,334l-3.27,17.59a.86.86,0,0,0,.87,1.06h.71a1.34,1.34,0,0,0,1.25-1.06L408.43,334A.86.86,0,0,0,407.57,332.92Z"/><path class="cls-32" d="M402,332.92h-.71A1.34,1.34,0,0,0,400,334l-3.27,17.59a.86.86,0,0,0,.86,1.06h.72a1.34,1.34,0,0,0,1.25-1.06L402.85,334A.86.86,0,0,0,402,332.92Z"/><path class="cls-32" d="M396.41,332.92h-.71a1.34,1.34,0,0,0-1.26,1.06l-3.27,17.59a.86.86,0,0,0,.86,1.06h.71a1.34,1.34,0,0,0,1.26-1.06L397.27,334A.86.86,0,0,0,396.41,332.92Z"/><path class="cls-32" d="M390.82,332.92h-.71a1.34,1.34,0,0,0-1.25,1.06l-3.27,17.59a.86.86,0,0,0,.86,1.06h.71a1.35,1.35,0,0,0,1.26-1.06L391.69,334A.86.86,0,0,0,390.82,332.92Z"/><path class="cls-32" d="M385.24,332.92h-.71a1.34,1.34,0,0,0-1.25,1.06L380,351.57a.86.86,0,0,0,.86,1.06h.71a1.35,1.35,0,0,0,1.26-1.06L386.1,334A.85.85,0,0,0,385.24,332.92Z"/><path class="cls-32" d="M379.66,332.92H379A1.34,1.34,0,0,0,377.7,334l-3.27,17.59a.86.86,0,0,0,.86,1.06H376a1.33,1.33,0,0,0,1.25-1.06L380.52,334A.86.86,0,0,0,379.66,332.92Z"/><path class="cls-32" d="M374.08,332.92h-.71a1.33,1.33,0,0,0-1.25,1.06l-3.27,17.59a.86.86,0,0,0,.86,1.06h.71a1.34,1.34,0,0,0,1.25-1.06L374.94,334A.86.86,0,0,0,374.08,332.92Z"/><path class="cls-32" d="M368.5,332.92h-.71a1.33,1.33,0,0,0-1.25,1.06l-3.27,17.59a.86.86,0,0,0,.86,1.06h.71a1.34,1.34,0,0,0,1.25-1.06L369.36,334A.86.86,0,0,0,368.5,332.92Z"/><path class="cls-32" d="M362.92,332.92h-.71A1.35,1.35,0,0,0,361,334l-3.26,17.59a.85.85,0,0,0,.86,1.06h.71a1.34,1.34,0,0,0,1.25-1.06L363.78,334A.86.86,0,0,0,362.92,332.92Z"/><path class="cls-32" d="M357.34,332.92h-.71a1.34,1.34,0,0,0-1.26,1.06l-3.27,17.59a.86.86,0,0,0,.86,1.06h.72a1.34,1.34,0,0,0,1.25-1.06L358.2,334A.86.86,0,0,0,357.34,332.92Z"/><path class="cls-32" d="M351.76,332.92H351a1.34,1.34,0,0,0-1.25,1.06l-3.27,17.59a.86.86,0,0,0,.86,1.06h.71a1.35,1.35,0,0,0,1.26-1.06L352.62,334A.86.86,0,0,0,351.76,332.92Z"/><path class="cls-32" d="M346.17,332.92h-.71a1.34,1.34,0,0,0-1.25,1.06l-3.27,17.59a.86.86,0,0,0,.86,1.06h.71a1.35,1.35,0,0,0,1.26-1.06L347,334A.85.85,0,0,0,346.17,332.92Z"/><path class="cls-32" d="M340.59,332.92h-.71a1.34,1.34,0,0,0-1.25,1.06l-3.27,17.59a.86.86,0,0,0,.86,1.06h.71a1.33,1.33,0,0,0,1.25-1.06L341.45,334A.86.86,0,0,0,340.59,332.92Z"/><path class="cls-32" d="M335,332.92h-.71a1.33,1.33,0,0,0-1.25,1.06l-3.27,17.59a.86.86,0,0,0,.86,1.06h.71a1.33,1.33,0,0,0,1.25-1.06L335.87,334A.86.86,0,0,0,335,332.92Z"/><path class="cls-32" d="M329.43,332.92h-.71a1.33,1.33,0,0,0-1.25,1.06l-3.27,17.59a.86.86,0,0,0,.86,1.06h.71a1.34,1.34,0,0,0,1.25-1.06L330.29,334A.86.86,0,0,0,329.43,332.92Z"/><path class="cls-32" d="M323.85,332.92h-.71a1.35,1.35,0,0,0-1.26,1.06l-3.26,17.59a.85.85,0,0,0,.86,1.06h.71a1.34,1.34,0,0,0,1.25-1.06L324.71,334A.86.86,0,0,0,323.85,332.92Z"/><path class="cls-32" d="M318.27,332.92h-.71A1.35,1.35,0,0,0,316.3,334L313,351.57a.86.86,0,0,0,.87,1.06h.7a1.34,1.34,0,0,0,1.26-1.06L319.13,334A.86.86,0,0,0,318.27,332.92Z"/><path class="cls-11" d="M165.17,132.84a11.13,11.13,0,0,1-4.81,5.67,14.7,14.7,0,0,1-3.53,1.63,1.05,1.05,0,0,1-1.3-.71.91.91,0,0,1,0-.4,14.45,14.45,0,0,0,0-3.22,11.46,11.46,0,0,0-.37-1.76,20.27,20.27,0,1,1,10.08-1.21Zm-7.51,4.75a9.79,9.79,0,0,0,5.67-5.84,1,1,0,0,1,.65-.69,18.16,18.16,0,1,0-8,1,1,1,0,0,1,.88.69,13.55,13.55,0,0,1,.68,2.81A14.1,14.1,0,0,1,157.66,137.59Z"/><path class="cls-11" d="M165.44,103.44a7,7,0,0,0-2.8-3.12,11.09,11.09,0,0,0-3,5.37c.84.55,3.13,2.3,2.06,4.17l-4.48,7.75c-1.09,1.81-3.73.71-4.62.27a11.14,11.14,0,0,0-3.12,5.32,7,7,0,0,0,4.11.87,4.39,4.39,0,0,0,3.26-1.84l8.7-15.06A4.45,4.45,0,0,0,165.44,103.44Z"/><path class="cls-12" d="M540.16,185.43H485.42a7.26,7.26,0,0,0-7.24,7.23v51a.81.81,0,0,0,.5.75.8.8,0,0,0,.88-.17l12.32-12.32h48.28a7.26,7.26,0,0,0,7.23-7.23v-32A7.25,7.25,0,0,0,540.16,185.43Z"/><path class="cls-11" d="M528.92,212.65a4,4,0,1,0-4-4A4,4,0,0,0,528.92,212.65Z"/><path class="cls-11" d="M512.79,212.65a4,4,0,1,0-4-4A4,4,0,0,0,512.79,212.65Z"/><path class="cls-11" d="M496.66,212.65a4,4,0,1,0-4-4A4,4,0,0,0,496.66,212.65Z"/><path class="cls-11" d="M294.56,166.66a18.93,18.93,0,1,0-18.93-18.93A19,19,0,0,0,294.56,166.66Z"/><circle class="cls-1" cx="294.56" cy="193.33" r="18.93" transform="translate(-50.43 264.91) rotate(-45)"/><path class="cls-5" d="M295.51,187.55c1.08-4,3.09-5.54,3.3-5.69a.39.39,0,0,1,.44,0,7.24,7.24,0,0,1,3.08,3.32,4.81,4.81,0,0,1,0,4l-7.85,13.59a4.8,4.8,0,0,1-3.53,2.05,7.21,7.21,0,0,1-4.4-1,.41.41,0,0,1-.21-.38s.21-2.64,3.27-5.72a.38.38,0,0,1,.48-.07s2.59,1.49,3.39.16l4-7c.76-1.3-1.6-2.73-1.8-2.85A.4.4,0,0,1,295.51,187.55Z"/><path class="cls-5" d="M329.17,136.69a.75.75,0,0,1-.74-.75.74.74,0,0,1,.74-.74h23.9a.75.75,0,0,1,.75.74.76.76,0,0,1-.75.75Z"/><path class="cls-5" d="M329.39,141.32a.75.75,0,1,1,0-1.49h9.2a.75.75,0,0,1,0,1.49Z"/><path class="cls-5" d="M329.17,146.28a.75.75,0,0,1-.75-.74.76.76,0,0,1,.75-.75h9.56a.76.76,0,0,1,.75.75.75.75,0,0,1-.75.74Z"/><path class="cls-5" d="M329.17,150.65a.76.76,0,0,1-.75-.75.75.75,0,0,1,.75-.74h19.12a.75.75,0,0,1,.75.74.76.76,0,0,1-.75.75Z"/><path class="cls-5" d="M328.63,155.28c-.11,0-.21-.33-.21-.74s.1-.75.21-.75h8.57c.11,0,.21.34.21.75s-.1.74-.21.74Z"/><path class="cls-5" d="M329.17,160.26a.75.75,0,1,1,0-1.49h30.71a.75.75,0,1,1,0,1.49Z"/><path class="cls-5" d="M329.17,182.29a.75.75,0,0,1,0-1.5h23.9a.75.75,0,0,1,0,1.5Z"/><path class="cls-5" d="M329.39,186.92a.75.75,0,1,1,0-1.49h9.2a.75.75,0,0,1,0,1.49Z"/><path class="cls-5" d="M329.17,191.88a.75.75,0,1,1,0-1.49h9.56a.75.75,0,1,1,0,1.49Z"/><path class="cls-5" d="M329.17,196.25a.75.75,0,0,1,0-1.5h19.12a.75.75,0,0,1,0,1.5Z"/><path class="cls-5" d="M329.17,200.88a.75.75,0,0,1-.75-.74.76.76,0,0,1,.75-.75h30.71a.76.76,0,0,1,.75.75.75.75,0,0,1-.75.74Z"/><path class="cls-5" d="M328.57,205.86c-.08,0-.15-.33-.15-.74s.07-.75.15-.75h6.08c.08,0,.15.33.15.75s-.07.74-.15.74Z"/><path class="cls-5" d="M287.27,162.32l-1.63-1.6a4.19,4.19,0,0,0-.5.39A17.18,17.18,0,0,0,287.27,162.32Z"/><path class="cls-5" d="M287.27,162.32l-1.63-1.6a4.19,4.19,0,0,0-.5.39A17.18,17.18,0,0,0,287.27,162.32Z"/><path class="cls-5" d="M301.81,162.32l1.64-1.6a4.9,4.9,0,0,1,.49.39A17.18,17.18,0,0,1,301.81,162.32Z"/><path class="cls-5" d="M301.81,162.32l1.64-1.6a4.9,4.9,0,0,1,.49.39A17.18,17.18,0,0,1,301.81,162.32Z"/><path class="cls-8" d="M300.23,159.43l.13,0h0a17.23,17.23,0,0,1,3.08,1.25,2.38,2.38,0,0,1,.47.41,17,17,0,0,1-18.75,0,2.38,2.38,0,0,1,.47-.41,16.94,16.94,0,0,1,3.08-1.25h0l.14,0h0a16.57,16.57,0,0,1,2.33-.29l3.31.48h.08l3.31-.48a16.4,16.4,0,0,1,2.33.29Z"/><path class="cls-10" d="M297.25,151.87l-.08,1.86v4.39a1.57,1.57,0,0,0,.72,1c-2.39,2.59-4.31,2.59-6.7,0a1.57,1.57,0,0,0,.72-1v-4.39l-.08-1.86s1.34.24,2.71.57C295.92,152.11,297.25,151.87,297.25,151.87Z"/><path class="cls-9" d="M285.92,141.4a4.21,4.21,0,0,0-.4,1.61c0,.76,1.63,1.08,2.18,1.08s15.52.55,15.52.55a.55.55,0,0,0,.46-.53c0-.45-2.56-6-2.56-6Z"/><path class="cls-10" d="M286.38,146.16a2.38,2.38,0,1,1-2.38,2.38A2.38,2.38,0,0,1,286.38,146.16Z"/><path class="cls-10" d="M302.75,146.16a2.38,2.38,0,1,1-2.38,2.38A2.37,2.37,0,0,1,302.75,146.16Z"/><path class="cls-15" d="M294.6,133.52h0a8.18,8.18,0,0,1,8.16,8.16v7.42a8.18,8.18,0,0,1-8.16,8.16h0a8.18,8.18,0,0,1-8.16-8.16v-7.42A8.18,8.18,0,0,1,294.6,133.52Z"/><path class="cls-9" d="M301.82,141.56v2.56c0,1,.19,1.3.69,1.67,0,0-.31,1,.25,1.2a.92.92,0,0,1,.44-.76V140a3.49,3.49,0,0,1-1.44,1A2.62,2.62,0,0,1,301.82,141.56Z"/><path class="cls-9" d="M287.43,141.13V143c0,.72-.13.94-.49,1.2,0,0-.09.62-.5.78l-.36-4.85a4.2,4.2,0,0,0,1.4.61A1.77,1.77,0,0,0,287.43,141.13Z"/><path class="cls-9" d="M303.68,144.11a6.8,6.8,0,0,0-1.86-1.52h0l0,0-.23-.13a4.83,4.83,0,0,1-1.93-1.89c-.68.47-3.46.39-4.51.35l-.36,0h-.05c-4.66-.19-9.17.94-9.19,2.13-4-8.5,6.06-16.67,15-7.39C305.31,135.84,304.89,140.72,303.68,144.11Z"/><rect class="cls-34" x="523.3" y="429.1" width="83.57" height="7.66"/><path class="cls-11" d="M533.6,429.77a1.66,1.66,0,0,0,0-3.32h-59a6.47,6.47,0,0,0-4.57,1.9h0a6.47,6.47,0,0,0,4.57,11h59a1.66,1.66,0,1,0,0-3.31h-2.7a9.31,9.31,0,0,1-1.31-1.13,3.48,3.48,0,0,1-1.21-2.61,4,4,0,0,1,1.56-2.58Z"/><path class="cls-35" d="M606.88,429.77a1.66,1.66,0,0,0,0-3.32h-74a6.49,6.49,0,0,0-4.57,1.9h0a6.47,6.47,0,0,0,4.57,11h74a1.66,1.66,0,0,0,0-3.31h-74a3.18,3.18,0,0,1-3.16-3.16,3.16,3.16,0,0,1,3.16-3.16Z"/><rect class="cls-36" x="477.15" y="414.44" width="70.07" height="9.3"/><path class="cls-8" d="M534.73,415.25a2,2,0,1,1,0-4h54.41a7.82,7.82,0,0,1,5.54,2.3h0a7.86,7.86,0,0,1-5.55,13.4H534.73a2,2,0,0,1,0-4H538a12.82,12.82,0,0,0,1.58-1.37,4.23,4.23,0,0,0,1.48-3.17,4.87,4.87,0,0,0-1.89-3.14Z"/><path class="cls-37" d="M477.15,415.25a2,2,0,1,1,0-4h58.51a7.86,7.86,0,0,1,5.55,2.3h0a7.86,7.86,0,0,1-5.55,13.4H477.15a2,2,0,0,1,0-4h58.51a3.86,3.86,0,0,0,3.84-3.84,3.84,3.84,0,0,0-3.84-3.84Z"/><rect class="cls-36" x="529.26" y="398.44" width="45.47" height="9.51"/><path class="cls-9" d="M542,399.27a2.06,2.06,0,0,0,0-4.11H508.52a8,8,0,0,0-5.68,2.36h0a8,8,0,0,0,5.68,13.71H542a2.06,2.06,0,0,0,0-4.11h-3.36a12.6,12.6,0,0,1-1.61-1.41,4.35,4.35,0,0,1-1.52-3.24,5,5,0,0,1,1.94-3.21Z"/><path class="cls-29" d="M574.73,399.27a2.06,2.06,0,0,0,0-4.11H541.09a8,8,0,0,0-5.68,2.36h0a8,8,0,0,0,5.68,13.71h33.64a2.06,2.06,0,0,0,0-4.11H541.09a4,4,0,0,1-2.78-1.16,3.93,3.93,0,0,1,2.78-6.7Z"/><polygon class="cls-6" points="301.74 439.4 266.15 439.4 266.15 426.2 295.72 426.2 301.74 439.4"/><polygon class="cls-38" points="229.61 439.4 289.7 439.4 295.72 426.2 235.63 426.2 229.61 439.4"/><path class="cls-11" d="M239.18,431.26a1.49,1.49,0,0,0-1,.42,3.56,3.56,0,0,0-.81,1.15c-.46,1-.3,1.51.47,1.51a3.08,3.08,0,0,0,.72-.09l.76-.24-.55,1.21a4.69,4.69,0,0,1-1.62.29c-.79,0-1.29-.23-1.51-.69a2.51,2.51,0,0,1,.28-2,5.49,5.49,0,0,1,1-1.44,4.35,4.35,0,0,1,1.32-.95,3.64,3.64,0,0,1,1.51-.33,2.73,2.73,0,0,1,1.46.37l-.95,1.12a2.92,2.92,0,0,0-.47-.23,1.52,1.52,0,0,0-.59-.1Zm4.36,4.17h1.55l.68-5.28h-1.9l-4.12,5.28h1.56l.71-1h1.71l-.19,1Zm.43-2.15h-1.12c.59-.82,1-1.38,1.18-1.66s.33-.48.4-.6l-.15.65c-.06.31-.11.56-.14.75l-.17.86Zm2.29,2.15,2.4-5.26h1.42l-1.88,4.12h2l-.53,1.14Zm4.88,0,2.4-5.26H255l-1.88,4.12h2l-.53,1.14Zm10.44-4.17a1.49,1.49,0,0,0-1,.42,3.4,3.4,0,0,0-.8,1.15c-.46,1-.31,1.51.46,1.51a3.08,3.08,0,0,0,.72-.09l.77-.24-.55,1.21a4.79,4.79,0,0,1-1.63.29c-.79,0-1.29-.23-1.51-.69a2.51,2.51,0,0,1,.28-2,5.49,5.49,0,0,1,1-1.44,4.35,4.35,0,0,1,1.32-.95,3.64,3.64,0,0,1,1.51-.33,2.71,2.71,0,0,1,1.46.37l-.94,1.12a3.49,3.49,0,0,0-.48-.23,1.52,1.52,0,0,0-.59-.1Zm4.26,4.17.53-1.15h-1.71l.46-1h1.57l.53-1.14h-1.58l.38-.82h1.7l.52-1.15h-3.12l-2.4,5.26Zm6.52,0H270.5l-.23-3.7h0c-.22.58-.4,1-.54,1.33l-1.08,2.37h-1.26l2.4-5.26h1.86l.24,3.66h0c.2-.53.38-1,.53-1.28l1.08-2.38h1.27l-2.4,5.26Zm4.05,0H275l1.87-4.09h-1.29l.54-1.17h4l-.53,1.17h-1.28l-1.87,4.09Zm5.75,0,.53-1.15H281l.45-1H283l.52-1.14H282l.38-.82H284l.52-1.15h-3.12l-2.4,5.26Zm3.81-1.91-.87,1.91h-1.43l2.4-5.26h1.73c1.43,0,1.91.52,1.43,1.56a2.84,2.84,0,0,1-1.53,1.41l.48,2.29h-1.61l-.24-1.91Zm.49-1.07h.26a1.06,1.06,0,0,0,1-.66c.17-.36,0-.54-.48-.54H287Z"/><path class="cls-6" d="M709,449.05H95a4.94,4.94,0,0,1-4.92-4.92h0A4.94,4.94,0,0,1,95,439.21H709a4.93,4.93,0,0,1,4.91,4.92h0A4.93,4.93,0,0,1,709,449.05Z"/><path class="cls-6" d="M49.77,449.05H71.56a4.94,4.94,0,0,0,4.92-4.92h0a4.93,4.93,0,0,0-4.92-4.92H49.77a4.93,4.93,0,0,0-4.92,4.92h0A4.94,4.94,0,0,0,49.77,449.05Z"/><path class="cls-4" d="M619,239.69a15.36,15.36,0,1,1,0,21.71,15.36,15.36,0,0,1,0-21.71Zm5.52-2a14,14,0,0,0-4.52,3,13.93,13.93,0,0,0,0,19.7,13.92,13.92,0,1,0,4.52-22.73Zm-1.69-11.29a23.77,23.77,0,0,0-2.83,1,25.55,25.55,0,0,0-2.72,1.36,24.17,24.17,0,0,0-2.56,1.7,27.91,27.91,0,0,0-2.34,2,1.59,1.59,0,0,1-.92.44,1.68,1.68,0,0,1-1-.2c-2.25-1.3-4.62-2.59-6.83-3.95a.84.84,0,0,0-.33-.1,1,1,0,0,0-.38,0,.91.91,0,0,0-.34.17.84.84,0,0,0-.25.28c-1.65,2.49-3.3,5.7-4.82,8.34a1.12,1.12,0,0,0-.12.35,1.29,1.29,0,0,0,0,.39.91.91,0,0,0,.17.34.84.84,0,0,0,.28.25c2,1.34,4.64,2.68,6.79,3.93a1.56,1.56,0,0,1,.68.76,1.26,1.26,0,0,1,.1.33l.14.05-.16.63c-.12.5-.23,1-.32,1.49s-.16,1-.23,1.52-.11,1-.14,1.52,0,1,0,1.55,0,1,0,1.54.08,1,.14,1.53.14,1,.23,1.51.2,1,.32,1.5a1.51,1.51,0,0,1-.1,1.05,1.61,1.61,0,0,1-.72.76l-6,3.47h0l-.72.41a1,1,0,0,0-.28.25.88.88,0,0,0-.17.35,1.29,1.29,0,0,0,0,.39,1.12,1.12,0,0,0,.12.35l4.45,7.72h0l.36.63a.84.84,0,0,0,.25.28,1.09,1.09,0,0,0,.34.17,1.29,1.29,0,0,0,.39,0,1.12,1.12,0,0,0,.35-.12c2.15-1.36,4.58-2.65,6.81-3.93a1.67,1.67,0,0,1,1-.21,1.72,1.72,0,0,1,.92.44h0a26.26,26.26,0,0,0,2.34,2,25.73,25.73,0,0,0,2.56,1.69,24.14,24.14,0,0,0,2.74,1.37,26.3,26.3,0,0,0,2.87,1,1.59,1.59,0,0,1,.85.58,1.63,1.63,0,0,1,.32,1v7.84a.91.91,0,0,0,.08.37.94.94,0,0,0,.53.53.87.87,0,0,0,.37.07h9.63a.94.94,0,0,0,.37-.07,1.06,1.06,0,0,0,.31-.21,1,1,0,0,0,.22-.32,1.11,1.11,0,0,0,.07-.37v-7.84a1.6,1.6,0,0,1,.35-1,1.57,1.57,0,0,1,.89-.57,26.5,26.5,0,0,0,2.83-1,24.5,24.5,0,0,0,2.71-1.36,25.73,25.73,0,0,0,2.56-1.69,24.92,24.92,0,0,0,2.34-2,1.6,1.6,0,0,1,1-.44,1.64,1.64,0,0,1,1,.26l6.72,3.88a1.12,1.12,0,0,0,.35.12,1.29,1.29,0,0,0,.39,0,1,1,0,0,0,.35-.17,1.14,1.14,0,0,0,.25-.28c1.59-2.79,3.21-5.56,4.81-8.34a1.09,1.09,0,0,0,.12-.36.83.83,0,0,0,0-.38.88.88,0,0,0-.17-.35.93.93,0,0,0-.27-.25l-6.8-3.92a1.66,1.66,0,0,1-.68-.76,2,2,0,0,1-.08-.26l-.18,0,.18-.72c.12-.5.23-1,.32-1.5s.17-1,.23-1.51.11-1,.14-1.53,0-1,0-1.54,0-1.05,0-1.54-.08-1-.14-1.53-.14-1-.23-1.52-.2-1-.32-1.49a1.6,1.6,0,0,1,.82-1.81l6.73-3.89a.76.76,0,0,0,.28-.25.84.84,0,0,0,.17-.34.86.86,0,0,0,0-.39,1.12,1.12,0,0,0-.12-.35c-1.64-2.45-3.29-5.71-4.81-8.34a1.14,1.14,0,0,0-.25-.28.88.88,0,0,0-.35-.17.94.94,0,0,0-.74.09l-6.8,3.93a1.68,1.68,0,0,1-1,.2,1.59,1.59,0,0,1-.92-.46,25.67,25.67,0,0,0-2.33-2,26.19,26.19,0,0,0-2.55-1.69,24.79,24.79,0,0,0-2.73-1.36,23.39,23.39,0,0,0-2.88-1,1.63,1.63,0,0,1-1.17-1.55V217a1.16,1.16,0,0,0-.07-.37,1.14,1.14,0,0,0-.53-.53,1.16,1.16,0,0,0-.37-.07h-9.63a1.06,1.06,0,0,0-.37.07,1,1,0,0,0-.32.22.94.94,0,0,0-.29.68v7.85a1.65,1.65,0,0,1-.34,1,1.7,1.7,0,0,1-.89.57Zm-3.39-.3a26.45,26.45,0,0,0-2.87,1.43,27.68,27.68,0,0,0-2.71,1.8,27.27,27.27,0,0,0-2.46,2.1.16.16,0,0,1-.11.05.17.17,0,0,1-.12,0l-6.86-4a2.22,2.22,0,0,0-.85-.27,2.31,2.31,0,0,0-.91.07,2.52,2.52,0,0,0-.84.41,2.3,2.3,0,0,0-.61.7c-1.66,2.68-3.23,5.59-4.82,8.33a2.22,2.22,0,0,0-.29.89,2.4,2.4,0,0,0,.06.93,2.43,2.43,0,0,0,.41.84,2.32,2.32,0,0,0,.7.62c2.19,1.35,4.56,2.63,6.8,3.92a.2.2,0,0,1,.07.09.17.17,0,0,1,0,.12l-.16.63h0c-.07.31-.13.62-.19.94-.1.54-.18,1.08-.25,1.6s-.11,1.06-.14,1.61-.05,1.1-.05,1.63,0,1.07.05,1.62.08,1.09.14,1.62.15,1.05.25,1.6.21,1.06.34,1.57a.19.19,0,0,1,0,.13.18.18,0,0,1-.08.09c-2.5,1.33-5,2.9-7.5,4.33l.09.11-.08.09a2.41,2.41,0,0,0-.47,1.77,2.09,2.09,0,0,0,.3.89l5.17,9,.09-.06.16.14a2.52,2.52,0,0,0,.84.41,2.43,2.43,0,0,0,.93.06,2.47,2.47,0,0,0,.87-.28c2.26-1.2,4.59-2.65,6.83-3.94a.14.14,0,0,1,.11,0,.16.16,0,0,1,.11.05,26.08,26.08,0,0,0,2.47,2.1,24.76,24.76,0,0,0,2.7,1.79A25.1,25.1,0,0,0,619.5,275a25.56,25.56,0,0,0,3,1.08.2.2,0,0,1,.1.07.15.15,0,0,1,0,.12v7.84a2.42,2.42,0,0,0,2.4,2.4h9.63a2.32,2.32,0,0,0,.91-.19,2.42,2.42,0,0,0,1.3-1.29,2.6,2.6,0,0,0,.18-.92v-7.84a.21.21,0,0,1,0-.12.18.18,0,0,1,.1-.07h0a27,27,0,0,0,3-1.07,26.52,26.52,0,0,0,2.87-1.44,24.89,24.89,0,0,0,2.71-1.79,25.85,25.85,0,0,0,2.46-2.11.21.21,0,0,1,.12-.05l.12,0,6.79,3.92a2.24,2.24,0,0,0,.89.3,2.41,2.41,0,0,0,1.77-.47,2.32,2.32,0,0,0,.6-.68c1.79-2.87,3.47-6,5.18-9l-.09-.05c0-.08,0-.15,0-.23a2.39,2.39,0,0,0-1.18-2.38l-6.79-3.93a.14.14,0,0,1-.08-.09.16.16,0,0,1,0-.12l.17-.72h0c.06-.28.12-.56.17-.85.1-.54.19-1.08.25-1.6s.11-1.06.15-1.62.05-1.09.05-1.62,0-1.07-.05-1.63-.09-1.09-.15-1.61-.15-1.06-.25-1.61-.21-1.06-.33-1.57a.2.2,0,0,1,0-.13.24.24,0,0,1,.09-.08l6.78-3.92a2.21,2.21,0,0,0,.7-.62,2.27,2.27,0,0,0,.41-.84,2.4,2.4,0,0,0,.07-.93,2.5,2.5,0,0,0-.29-.86c-1.62-3-3.47-6-5.18-9l-.1.06-.16-.13a2.48,2.48,0,0,0-1.77-.48,2.41,2.41,0,0,0-.89.3l-.5.29h0l-6.3,3.64a.17.17,0,0,1-.12,0,.16.16,0,0,1-.11-.05l0,0a26.07,26.07,0,0,0-2.46-2.09,26.72,26.72,0,0,0-2.69-1.79,25.93,25.93,0,0,0-2.89-1.44,26.75,26.75,0,0,0-3-1.08.14.14,0,0,1-.1-.07.15.15,0,0,1,0-.11V217a2.5,2.5,0,0,0-.18-.91,2.35,2.35,0,0,0-.53-.78,2.38,2.38,0,0,0-.77-.52,2.31,2.31,0,0,0-.91-.18h-9.63a2.39,2.39,0,0,0-.92.18,2.54,2.54,0,0,0-.78.52,2.41,2.41,0,0,0-.7,1.69v7.85a.16.16,0,0,1,0,.12.17.17,0,0,1-.1.06h0A28.51,28.51,0,0,0,619.48,226.08Z"/><path class="cls-4" d="M641.15,335.81Zm3.39-12.9a6.52,6.52,0,1,1-1.91,4.61,6.5,6.5,0,0,1,1.91-4.61Zm1.41-6.46a11.4,11.4,0,0,0-2.56,1.09,11.86,11.86,0,0,0-2.24,1.69.41.41,0,0,1-.47.06l-3-1.75h0a.76.76,0,0,0-.55-.07.84.84,0,0,0-.46.35v0l-2.13,3.69a.77.77,0,0,0-.07.57.73.73,0,0,0,.35.46h0l3,1.74a.4.4,0,0,1,.19.44h0a10,10,0,0,0-.25,1.37,11,11,0,0,0,0,2.81,10.48,10.48,0,0,0,.25,1.38.4.4,0,0,1-.21.45l-3,1.73h0a.72.72,0,0,0-.35.45.76.76,0,0,0,.07.57l2.14,3.71h0a.76.76,0,0,0,1,.28l0,0,3-1.73a.39.39,0,0,1,.47.06,12.3,12.3,0,0,0,2.24,1.69,11.48,11.48,0,0,0,2.57,1.09.41.41,0,0,1,.3.38v3.49a.75.75,0,0,0,.74.75h4.29a.73.73,0,0,0,.53-.22.72.72,0,0,0,.22-.53V339a.4.4,0,0,1,.31-.39,11.77,11.77,0,0,0,2.55-1.08,11.65,11.65,0,0,0,2.24-1.69.4.4,0,0,1,.5-.05l3,1.74a.76.76,0,0,0,1-.28v0l2.13-3.69h0a.74.74,0,0,0-.27-1l-3-1.75a.4.4,0,0,1-.18-.44h0a12.44,12.44,0,0,0,.25-1.38,12.38,12.38,0,0,0,0-2.81,11.85,11.85,0,0,0-.25-1.37.39.39,0,0,1,.21-.46l3-1.73a.73.73,0,0,0,.35-.46.73.73,0,0,0-.08-.57v0l-2.13-3.69h0a.81.81,0,0,0-.46-.35.74.74,0,0,0-.56.08h0l-3,1.75a.41.41,0,0,1-.49-.07,11.45,11.45,0,0,0-4.8-2.77.4.4,0,0,1-.29-.39v-3.49a.75.75,0,0,0-.22-.53.77.77,0,0,0-.53-.22H647a.75.75,0,0,0-.74.75v3.49A.41.41,0,0,1,646,316.45Z"/><path class="cls-3" d="M383.85,69.73h34.73a3.23,3.23,0,0,1,2.08.75,1,1,0,0,1,.41.31,1.16,1.16,0,0,1,.14.27,3.22,3.22,0,0,1,.65,2V93.42a3.31,3.31,0,0,1-1,2.32h0a3.23,3.23,0,0,1-2.32,1H383.85a3.28,3.28,0,0,1-3.28-3.28V73a3.27,3.27,0,0,1,.65-2,1,1,0,0,1,.15-.26,1.08,1.08,0,0,1,.4-.31,3.25,3.25,0,0,1,2.08-.75ZM419,94.63,405.27,84.12l-3.44,2.62h0l-.08.06h-.16l-.11,0h0l-.12,0h-.27l-.11,0h0l-.12,0h-.15l-.09-.06h0l-3.43-2.62L383.4,94.63a1.33,1.33,0,0,0,.45.08h34.73a1.33,1.33,0,0,0,.45-.08ZM406.5,83.18l13.37,10.21V73L406.5,83.18ZM382.56,93.39l13.38-10.21L382.57,73V93.39Zm18.66-8.68,17-13h-34Z"/><path class="cls-3" d="M69.12,174.86a20.34,20.34,0,0,1,3.14-6.8,11.27,11.27,0,0,1,2.17-2.3,1.4,1.4,0,0,1,.76-.29h0a1.38,1.38,0,0,1,.79.18,13.71,13.71,0,0,1,3,2.42,10.46,10.46,0,0,1,2,3,9.22,9.22,0,0,1,.75,3.56A6.86,6.86,0,0,1,81,178h0L69,198.73a6.77,6.77,0,0,1-2.49,2.35A9,9,0,0,1,63,202.23a10.62,10.62,0,0,1-3.59-.2,13.64,13.64,0,0,1-3.57-1.4,1.34,1.34,0,0,1-.58-.55h0a1.33,1.33,0,0,1-.17-.77h0a12.52,12.52,0,0,1,1.72-4.7,21.56,21.56,0,0,1,3.5-4.52,1.35,1.35,0,0,1,1.67-.24c.06,0,3.31,1.89,4.12.52l6.14-10.65c.34-.58-.13-1.32-.72-1.92a10,10,0,0,0-1.76-1.38,1.36,1.36,0,0,1-.66-1.55Zm4.4-5.88a18.63,18.63,0,0,0-2.86,6.15,11.28,11.28,0,0,1,2,1.58c1,1,1.75,2.39,1,3.78l-6.16,10.66c-1.45,2.45-5.37.5-6.1.1a20.47,20.47,0,0,0-3.17,4.12,11.16,11.16,0,0,0-1.5,3.94,12,12,0,0,0,3.09,1.2,9.08,9.08,0,0,0,3.07.18,7.58,7.58,0,0,0,2.88-.95A5.29,5.29,0,0,0,67.65,198l12-20.74h0a5.35,5.35,0,0,0,.57-2.55,7.72,7.72,0,0,0-.63-3,9.08,9.08,0,0,0-1.69-2.58,12,12,0,0,0-2.59-2.07A10.33,10.33,0,0,0,73.52,169Z"/><path class="cls-4" d="M654.22,415.61a1.12,1.12,0,0,0-2.24,0v2.63h-2.63a1.12,1.12,0,0,0,0,2.23H652v2.63a1.12,1.12,0,0,0,2.24,0v-2.63h2.63a1.12,1.12,0,0,0,0-2.23h-2.63Z"/><path class="cls-4" d="M296.13,262.51a1.12,1.12,0,1,0-2.23,0v2.63h-2.63a1.12,1.12,0,1,0,0,2.23h2.63V270a1.12,1.12,0,1,0,2.23,0v-2.63h2.63a1.12,1.12,0,1,0,0-2.23h-2.63Z"/><path class="cls-4" d="M172.13,279a1.12,1.12,0,1,0-2.23,0v2.63h-2.63a1.12,1.12,0,1,0,0,2.23h2.63v2.63a1.12,1.12,0,1,0,2.23,0v-2.63h2.63a1.12,1.12,0,1,0,0-2.23h-2.63Z"/><path class="cls-4" d="M297.4,58.79a1.12,1.12,0,1,0-2.24,0v2.63h-2.63a1.12,1.12,0,0,0,0,2.23h2.63v2.63a1.12,1.12,0,1,0,2.24,0V63.65H300a1.12,1.12,0,1,0,0-2.23H297.4Z"/><path class="cls-4" d="M124.05,162.15a1.12,1.12,0,1,0-2.24,0v2.63h-2.62a1.12,1.12,0,1,0,0,2.23h2.62v2.63a1.12,1.12,0,0,0,2.24,0V167h2.63a1.12,1.12,0,0,0,0-2.23h-2.63Z"/><path class="cls-4" d="M106.33,52.07a1.12,1.12,0,1,0-2.23,0V54.7h-2.63a1.12,1.12,0,1,0,0,2.23h2.63v2.63a1.12,1.12,0,1,0,2.23,0V56.93H109a1.12,1.12,0,1,0,0-2.23h-2.63Z"/><path class="cls-4" d="M46.86,267.17a1.12,1.12,0,0,0-2.23,0v2.63H42A1.12,1.12,0,1,0,42,272h2.63v2.62a1.12,1.12,0,1,0,2.23,0V272h2.63a1.12,1.12,0,0,0,0-2.24H46.86Z"/><path class="cls-4" d="M587.16,173.54a1.12,1.12,0,1,0-2.24,0v2.63h-2.63a1.12,1.12,0,0,0,0,2.23h2.63V181a1.12,1.12,0,1,0,2.24,0V178.4h2.62a1.12,1.12,0,1,0,0-2.23h-2.62Z"/><path class="cls-4" d="M601.07,319.05a1.12,1.12,0,1,0-2.23,0v2.63h-2.63a1.12,1.12,0,1,0,0,2.23h2.63v2.63a1.12,1.12,0,1,0,2.23,0v-2.63h2.63a1.12,1.12,0,1,0,0-2.23h-2.63Z"/><path class="cls-11" d="M325.18,222a1.12,1.12,0,1,0-2.23,0v2.63h-2.63a1.12,1.12,0,1,0,0,2.23H323v2.63a1.12,1.12,0,1,0,2.23,0v-2.63h2.63a1.12,1.12,0,1,0,0-2.23h-2.63Z"/><path class="cls-11" d="M244.2,139.72a1.12,1.12,0,1,0-2.23,0v2.63h-2.63a1.12,1.12,0,1,0,0,2.23H242v2.63a1.12,1.12,0,1,0,2.23,0v-2.63h2.63a1.12,1.12,0,1,0,0-2.23H244.2Z"/><path class="cls-11" d="M391,157.44a1.12,1.12,0,1,0-2.23,0v2.62h-2.63a1.12,1.12,0,0,0,0,2.24h2.63v2.63a1.12,1.12,0,0,0,2.23,0V162.3h2.63a1.12,1.12,0,0,0,0-2.24H391Z"/><path class="cls-11" d="M463.1,385.19a1.12,1.12,0,0,0-2.23,0v2.63h-2.63a1.12,1.12,0,0,0,0,2.24h2.63v2.62a1.12,1.12,0,1,0,2.23,0v-2.62h2.63a1.12,1.12,0,0,0,0-2.24H463.1Z"/><path class="cls-11" d="M616.21,383.93a1.12,1.12,0,0,0-2.24,0v2.63h-2.62a1.12,1.12,0,1,0,0,2.23H614v2.63a1.12,1.12,0,0,0,2.24,0v-2.63h2.63a1.12,1.12,0,0,0,0-2.23h-2.63Z"/></g></svg>