<?xml version="1.0" encoding="utf-8"?>
<!-- Generator: Adobe Illustrator 16.0.0, SVG Export Plug-In . SVG Version: 6.00 Build 0)  -->
<!DOCTYPE svg PUBLIC "-//W3C//DTD SVG 1.1//EN" "http://www.w3.org/Graphics/SVG/1.1/DTD/svg11.dtd">
<svg version="1.1" id="Layer_1" xmlns="http://www.w3.org/2000/svg" xmlns:xlink="http://www.w3.org/1999/xlink" x="0px" y="0px"
	 width="80px" height="80px" viewBox="0 0 80 80" enable-background="new 0 0 80 80" xml:space="preserve">
<g id="css_logo" transform="translate(3803 -4974)">
	<rect id="Rectangle_8338" x="-3803" y="4974" fill="#FFFFFF" fill-opacity="0" width="80" height="80"/>
	<g id="css-3" transform="translate(-3821.25 4984)">
		<g id="Group_12342" transform="translate(32)">
			<path id="Path_21260" fill="#FFFFFF" d="M0,0l4.781,54l21.469,6l21.461-6L52.5,0H0z M42.277,17.659l-0.6,6.784l-1.818,20.34
				L26.25,48.54h-0.007l-13.594-3.761L11.7,34.145h6.66l0.495,5.52l7.391,1.995l0.007-0.007l7.399-1.995l1.01-9.191l-23.28,0.064
				l-0.66-6.289l24.5-0.285l0.5-6.731l-25.651,0.071L9.63,11.04h33.24L42.277,17.659z"/>
		</g>
	</g>
</g>
</svg>
