<?xml version="1.0" encoding="utf-8"?>
<!-- Generator: Adobe Illustrator 23.0.2, SVG Export Plug-In . SVG Version: 6.00 Build 0)  -->
<svg version="1.1" id="Layer_1" xmlns="http://www.w3.org/2000/svg" xmlns:xlink="http://www.w3.org/1999/xlink" x="0px" y="0px"
	 viewBox="0 0 80 80" style="enable-background:new 0 0 80 80;" xml:space="preserve">
<style type="text/css">
	.st0{fill:#FFFFFF;fill-opacity:0;}
	.st1{fill:#FFFFFF;}
	.st2{fill:#F4F4F4;}
</style>
<g id="net_logo" transform="translate(3534 -5749)">
	<rect id="Rectangle_3172" x="-3534" y="5749" class="st0" width="80" height="80"/>
	<g id="Group_12354" transform="translate(-3529.226 5775.36)">
		<path id="Path_21295" class="st1" d="M24.8,5.6c2.5,7.5,3.4,21,10.6,21l0,0c0.6,0,1.1-0.1,1.7-0.2l0,0
			c-6.6-1.5-7.3-14.8-11.3-21.7l0,0C25.4,5,25.1,5.3,24.8,5.6"/>
		<path id="Path_21296" class="st2" d="M25.7,4.7c4,6.9,4.8,20.2,11.3,21.7l0,0c0.5-0.1,1-0.2,1.5-0.4l0,0
			c-5.9-2.9-7.5-15.8-12.1-22l0,0C26.3,4.2,26,4.4,25.7,4.7"/>
		<path id="Path_21297" class="st1" d="M31.5,0.6c-0.6,0-1.1,0.1-1.7,0.2c-1.6,0.3-3.1,1-4.4,1.9C25.8,3,26.2,3.5,26.5,4
			c1.3-1.2,2.9-2.1,4.5-2.8c0.5-0.2,1.1-0.4,1.7-0.5C32.3,0.6,31.9,0.6,31.5,0.6"/>
		<path id="Path_21298" class="st1" d="M43.2,23.3c0.6-0.5,1.2-1,1.8-1.6c-2.5-7.5-3.4-21.2-10.7-21.2c-0.5,0-1.1,0-1.6,0.1
			C39.4,2.4,40.2,16.8,43.2,23.3"/>
		<path id="Path_21299" class="st1" d="M32.8,0.7c-0.4-0.1-0.9-0.2-1.3-0.2l2.9,0C33.8,0.6,33.3,0.6,32.8,0.7"/>
		<path id="Path_21300" class="st1" d="M43.1,24.9c-0.3-0.3-0.6-0.6-0.8-0.9c-1.1,0.8-2.3,1.5-3.6,1.9c0.4,0.2,0.9,0.4,1.4,0.5
			c0.4,0.1,0.8,0.1,1.2,0.1c1.1,0.1,2.3-0.1,3.3-0.6C44,25.7,43.5,25.3,43.1,24.9"/>
		<path id="Path_21301" class="st2" d="M31.1,1.2c5.9,3.1,6.4,17.1,11.2,22.8l0,0c0.3-0.2,0.6-0.5,0.9-0.7l0,0
			c-3-6.6-3.8-21-10.4-22.6l0,0C32.2,0.8,31.6,1,31.1,1.2"/>
		<path id="Path_21302" class="st1" d="M26.5,4c4.5,6.2,6.2,19.2,12.1,22l0,0c1.3-0.5,2.5-1.1,3.7-1.9l0,0
			C37.5,18.4,37,4.3,31.1,1.2l0,0C29.4,1.9,27.9,2.8,26.5,4"/>
		<path id="Path_21303" class="st2" d="M21.9,5.4c-0.9,2.1-1.7,4.3-2.3,6.5c1.6-2.2,3.3-4.4,5.2-6.3c-0.2-0.7-0.5-1.4-0.8-2
			C23.3,4.1,22.5,4.7,21.9,5.4"/>
		<path id="Path_21304" class="st1" d="M24.6,3.1c-0.2,0.1-0.4,0.3-0.6,0.5c0.3,0.7,0.6,1.3,0.8,2c0.3-0.3,0.6-0.6,0.9-0.9
			C25.4,4.1,25,3.6,24.6,3.1"/>
		<path id="Path_21305" class="st1" d="M25.4,2.6c-0.2,0.2-0.5,0.3-0.7,0.5c0.4,0.5,0.8,1,1.1,1.6C26,4.4,26.3,4.2,26.5,4
			C26.2,3.5,25.8,3,25.4,2.6"/>
		<path id="Path_21306" class="st1" d="M65.8,0c-3.4,12.9-10.4,23.3-16.2,25.9h0c-0.1,0-0.2,0.1-0.3,0.1c0,0,0,0,0,0l-0.1,0
			c0,0,0,0,0,0c-0.1,0-0.1,0-0.1,0.1c0,0,0,0-0.1,0s0,0-0.1,0l-0.1,0c0,0,0,0-0.1,0c0,0-0.1,0-0.1,0c0,0,0,0-0.1,0c0,0-0.1,0-0.1,0
			c0,0,0,0-0.1,0l-0.1,0l-0.1,0c0.3,0.1,0.6,0.1,0.8,0.1c5.6,0,11.2-10,20.5-26.6L65.8,0L65.8,0z"/>
		<path id="Path_21307" class="st2" d="M18.3,1.1C18.3,1.1,18.3,1.1,18.3,1.1C18.3,1.1,18.4,1.1,18.3,1.1L18.3,1.1
			c0.1,0,0.1,0,0.1-0.1c0,0,0,0,0,0c0,0,0,0,0,0c0,0,0.1,0,0.1,0h0c0.1,0,0.1,0,0.2-0.1c0,0,0,0,0,0c0,0,0.1,0,0.1,0c0,0,0,0,0,0
			c0,0,0.1,0,0.1,0c0,0,0,0,0,0c0.1,0,0.2-0.1,0.3-0.1c0,0,0,0,0,0c0,0,0.1,0,0.1,0c0,0,0,0,0,0c0,0,0.1,0,0.1,0h0
			c0.1,0,0.1,0,0.2,0h0c0,0,0.1,0,0.1,0c0,0,0,0,0,0c0,0,0.1,0,0.1,0c0,0,0,0,0,0c0.1,0,0.1,0,0.2,0c-0.2,0-0.4,0-0.6,0
			C13.5,0.6,4.9,12.2,1,27.3h0.8C3,25,4.1,22.9,5.1,21C7.8,10.3,13.4,3,18.3,1.1"/>
		<path id="Path_21308" class="st1" d="M21.9,5.4c0.7-0.6,1.4-1.3,2.1-1.8c-0.2-0.3-0.3-0.7-0.5-1C22.8,3.4,22.3,4.4,21.9,5.4"/>
		<path id="Path_21309" class="st1" d="M22.4,1.2c0.4,0.4,0.8,0.9,1.1,1.4c0.1-0.1,0.2-0.3,0.3-0.4C23.4,1.8,22.9,1.4,22.4,1.2
			C22.3,1.2,22.3,1.2,22.4,1.2C22.4,1.2,22.4,1.2,22.4,1.2"/>
		<path id="Path_21310" class="st1" d="M5.1,21c5.7-11,8.4-18,13.2-19.9l0,0C13.4,3,7.9,10.3,5.1,21"/>
		<path id="Path_21311" class="st1" d="M23.8,2.2c-0.1,0.1-0.2,0.2-0.3,0.4c0.2,0.3,0.4,0.6,0.5,1c0.2-0.2,0.4-0.3,0.6-0.5
			C24.4,2.8,24.1,2.5,23.8,2.2"/>
		<path id="Path_21312" class="st1" d="M7.7,27.2L7.7,27.2c0,0-0.1,0-0.1,0h0c0,0-0.1,0-0.1,0h0c-0.1,0-0.1,0-0.2,0h0
			c5.8-0.2,8.4-3.1,9.7-7.3c1-3.2,1.8-5.9,2.5-8.1c-2.7,3.9-5.1,7.9-7.3,12C11.4,25.7,9.7,26.9,7.7,27.2"/>
		<path id="Path_21313" class="st1" d="M7.7,27.2L7.7,27.2c2-0.3,3.6-1.5,4.5-3.3l0,0c2.2-4.2,4.6-8.2,7.3-12l0,0
			c0.7-2.2,1.4-4.4,2.3-6.5l0,0C17,10,12.2,17.6,7.7,27.2"/>
		<path id="Path_21314" class="st1" d="M5.1,21c-1,2-2.1,4.1-3.4,6.3h2.2C4.2,25.2,4.6,23.1,5.1,21"/>
		<path id="Path_21315" class="st1" d="M20.2,0.6C20.2,0.6,20.1,0.6,20.2,0.6L20.2,0.6c-0.1,0-0.1,0-0.1,0l0,0c0,0,0,0,0,0l0,0
			c0,0-0.1,0-0.1,0l0,0c0,0,0,0,0,0l0,0l-0.2,0h0c0,0-0.1,0-0.1,0l0,0c0,0,0,0,0,0l0,0c0,0-0.1,0-0.1,0l0,0c0,0,0,0,0,0l0,0
			c-0.1,0-0.2,0.1-0.3,0.1l0,0c0,0,0,0,0,0l0,0l-0.1,0l0,0c0,0,0,0,0,0l0,0l-0.1,0l0,0c0,0,0,0,0,0l0,0C18.7,1,18.7,1,18.6,1l0,0
			c0,0-0.1,0-0.1,0l0,0c0,0,0,0,0,0l0,0c0,0-0.1,0-0.1,0l0,0c0,0,0,0,0,0l0,0C13.6,3,10.8,10,5.1,21l0,0c-0.5,2.1-0.9,4.2-1.2,6.3
			h0.3c0.9,0,1.1,0,2.1,0h1c0.1,0,0.1,0,0.2,0h0c0,0,0.1,0,0.1,0h0c0,0,0.1,0,0.1,0l0,0C12.2,17.6,17,10,21.9,5.4l0,0
			c0.4-1,1-2,1.6-2.8l0,0c-0.3-0.5-0.7-1-1.1-1.4l0,0c0,0,0,0,0,0l0,0c0,0,0,0-0.1,0l0,0l-0.1,0l0,0c0,0,0,0-0.1,0l0,0
			c0,0-0.1,0-0.1,0l0,0L22,1l0,0c0,0-0.1,0-0.1-0.1l0,0c0,0,0,0-0.1,0l0,0c0,0-0.1,0-0.1,0l0,0c0,0,0,0-0.1,0l0,0l-0.1,0h0
			c-0.1,0-0.1,0-0.2,0l0,0c0,0,0,0,0,0l0,0l-0.1,0l0,0c0,0,0,0,0,0l0,0c-0.1,0-0.2,0-0.3-0.1l0,0c0,0,0,0,0,0l0,0c0,0-0.1,0-0.1,0
			l0,0c0,0,0,0,0,0l0,0c-0.1,0-0.1,0-0.2,0h0c0,0-0.1,0-0.1,0l0,0C20.3,0.6,20.2,0.6,20.2,0.6"/>
		<path id="Path_21316" class="st1" d="M52.7,7.2c-1.1,3.5-2,6.4-2.8,8.8l0,0c3.4-4.9,6.4-10,8.8-15.4l0,0C55.5,1.6,53.7,4,52.7,7.2
			"/>
		<path id="Path_21317" class="st2" d="M50.1,25.7c-0.2,0.1-0.3,0.2-0.5,0.2c5.9-2.6,12.9-13,16.2-25.9h-0.7
			C57.4,13.8,55,23,50.1,25.7"/>
		<path id="Path_21318" class="st1" d="M46.2,24.6c1.3-1.6,2.3-4.2,3.7-8.6c-1.5,2.1-3.1,4-4.9,5.8c0,0,0,0,0,0
			C45.3,22.7,45.7,23.7,46.2,24.6"/>
		<path id="Path_21319" class="st1" d="M46.2,24.6c-0.4,0.5-0.9,0.9-1.4,1.2c-0.1,0.1-0.2,0.1-0.3,0.2c0.6,0.3,1.2,0.5,1.8,0.6l0,0
			c0.1,0,0.2,0,0.3,0h0c0,0,0.1,0,0.1,0h0.5c0,0,0,0,0.1,0c0,0,0.1,0,0.1,0h0.1c0,0,0.1,0,0.1,0h0c0,0,0,0,0,0c0,0,0.1,0,0.1,0h0
			c0,0,0.1,0,0.1,0h0c0.1,0,0.2,0,0.3-0.1C47.3,26.1,46.6,25.4,46.2,24.6"/>
		<path id="Path_21320" class="st1" d="M35.4,26.6c0.6,0,1.1-0.1,1.7-0.2c0.5-0.1,1-0.2,1.5-0.4c0.4,0.2,0.9,0.4,1.4,0.5
			c0.4,0.1,0.8,0.1,1.2,0.1L35.4,26.6z"/>
		<path id="Path_21321" class="st1" d="M41.1,26.6c1.1,0.1,2.3-0.2,3.3-0.6c0.6,0.3,1.2,0.5,1.8,0.6l0,0c0.1,0,0.2,0,0.3,0h0
			c0,0,0.1,0,0.1,0L41.1,26.6L41.1,26.6z"/>
		<path id="Path_21322" class="st1" d="M46.9,26.6h0.3c0,0,0,0,0.1,0c0,0,0.1,0,0.1,0h0.1c0,0,0.1,0,0.1,0h0c0,0,0,0,0,0
			c0,0,0.1,0,0.1,0c0,0,0,0,0,0c0,0,0.1,0,0.1,0h0c0.1,0,0.2,0,0.3-0.1l0,0c0.3,0.1,0.6,0.1,0.8,0.1L46.9,26.6L46.9,26.6z"/>
		<path id="Path_21323" class="st1" d="M45,21.8L45,21.8c-0.6,0.6-1.2,1.1-1.8,1.6c-0.3,0.3-0.6,0.5-0.9,0.7
			c0.3,0.3,0.5,0.6,0.8,0.9c0.4,0.4,0.9,0.8,1.4,1c0.1-0.1,0.2-0.1,0.3-0.2c0.5-0.3,1-0.7,1.4-1.2C45.7,23.7,45.3,22.7,45,21.8"/>
		<path id="Path_21324" class="st2" d="M63,0h-3.4c-0.2,0-0.4,0-0.5,0l0,0c-0.1,0.2-0.2,0.4-0.3,0.5l0,0C56.3,6,53.4,11.1,50,16l0,0
			c-1.4,4.4-2.5,7-3.7,8.6l0,0c0.4,0.8,1.1,1.5,1.9,1.9l0,0c0,0,0,0,0.1,0h0c0,0,0,0,0,0l0,0c0,0,0.1,0,0.1,0l0,0c0,0,0,0,0.1,0l0,0
			c0,0,0.1,0,0.1,0l0,0c0,0,0,0,0.1,0l0,0l0.1,0l0,0c0,0,0,0,0.1,0l0,0c0,0,0,0,0.1,0l0,0c0,0,0.1,0,0.1,0l0,0c0,0,0,0,0.1,0l0,0
			c0,0,0.1,0,0.1-0.1l0,0c0,0,0,0,0,0l0,0c0,0,0.1,0,0.1,0l0,0c0,0,0,0,0,0l0,0c0.1,0,0.2-0.1,0.3-0.1h0c0.2-0.1,0.3-0.1,0.5-0.2
			l0,0C55,23,57.4,13.8,65.1,0L63,0L63,0z"/>
		<path id="Path_21325" class="st1" d="M20.4,0.6C20.4,0.6,20.4,0.6,20.4,0.6c0.1,0,0.1,0,0.1,0h0c0.1,0,0.1,0,0.2,0c0,0,0,0,0,0
			c0,0,0.1,0,0.1,0c0,0,0,0,0,0c0.1,0,0.2,0,0.3,0.1c0,0,0,0,0,0c0,0,0.1,0,0.1,0c0,0,0,0,0,0c0.1,0,0.1,0,0.2,0c0,0,0,0,0,0
			c0,0,0.1,0,0.1,0c0,0,0,0,0.1,0l0.1,0c0,0,0,0,0.1,0C21.9,1,22,1,22,1c0,0,0,0,0.1,0c0,0,0,0,0.1,0l0.1,0c0,0,0,0,0.1,0
			c0.6,0.3,1.1,0.6,1.5,1.1c0.2-0.2,0.3-0.3,0.5-0.5c-1-0.7-2.2-1.1-3.5-1.1C20.7,0.6,20.5,0.6,20.4,0.6"/>
		<path id="Path_21326" class="st1" d="M23.8,2.2c0.3,0.3,0.6,0.6,0.8,0.9c0.3-0.2,0.5-0.3,0.7-0.5c-0.3-0.3-0.7-0.6-1-0.9
			C24.2,1.9,24,2,23.8,2.2"/>
		<path id="Path_21327" class="st1" d="M20.4,0.6c0.2,0,0.3,0,0.5,0c1.3,0,2.5,0.4,3.5,1.1c1.2-0.9,2.7-1.3,4.2-1.1h-8.7
			C20,0.6,20.2,0.6,20.4,0.6"/>
		<path id="Path_21328" class="st2" d="M28.5,0.6c-1.5-0.1-3,0.3-4.2,1.1c0.4,0.3,0.7,0.6,1,0.9c1.3-0.9,2.9-1.5,4.4-1.9
			c0.5-0.1,1.1-0.2,1.7-0.2L28.5,0.6z"/>
		<path id="Path_21329" class="st2" d="M50,16c0.8-2.4,1.7-5.3,2.8-8.8c1-3.2,2.8-5.6,6.1-6.6C58.9,0.4,58.9,0.2,59,0
			c-5.4,0.3-7.9,3.1-9.2,7.1c-2.2,7.1-3.6,11.7-4.8,14.6C46.8,20,48.5,18.1,50,16"/>
		<path id="Path_21330" class="st1" d="M57.9,24.7h-0.6v1.9H57v-1.9h-0.6v-0.2h1.5L57.9,24.7L57.9,24.7z"/>
		<path id="Path_21331" class="st1" d="M60.4,26.6h-0.2v-1.4c0-0.1,0-0.3,0-0.4l0,0c0,0.1,0,0.1-0.1,0.2l-0.7,1.6h-0.1L58.5,25
			c0-0.1-0.1-0.1-0.1-0.2h0c0,0.1,0,0.2,0,0.4v1.4h-0.2v-2.1h0.3l0.7,1.5c0,0.1,0.1,0.2,0.1,0.3h0c0-0.1,0.1-0.2,0.1-0.3l0.7-1.5
			h0.3L60.4,26.6L60.4,26.6z"/>
	</g>
</g>
</svg>
