<?xml version="1.0" encoding="utf-8"?>
<!-- Generator: Adobe Illustrator 16.0.0, SVG Export Plug-In . SVG Version: 6.00 Build 0)  -->
<!DOCTYPE svg PUBLIC "-//W3C//DTD SVG 1.1//EN" "http://www.w3.org/Graphics/SVG/1.1/DTD/svg11.dtd">
<svg version="1.1" id="Layer_1" xmlns="http://www.w3.org/2000/svg" xmlns:xlink="http://www.w3.org/1999/xlink" x="0px" y="0px"
	 width="800px" height="800px" viewBox="0 0 800 800" enable-background="new 0 0 800 800" xml:space="preserve">
<g id="dynaom_db_logo" transform="translate(3898 -6644)">
	<rect id="Rectangle_3172" x="-3898" y="6644" fill="#FFFFFF" fill-opacity="0" width="800" height="800"/>
	<g id="Group_12374" transform="translate(-3883.112 6655.963)">
		<path id="Path_21369" fill="#F3F3F3" d="M457.991,668.662h6l111-56l2-3v-444l-2-3l-111-55h-7L457.991,668.662"/>
		<path id="Path_21370" fill="#FCFCFC" d="M312.991,668.662h-7l-111-56l-2-4l-2-441l3-5l112-55h7V668.662"/>
		<path id="Path_21371" fill="#F7F8F9" d="M305.991,107.662h158v561h-158V107.662z"/>
		<path id="Path_21372" fill="#404041" d="M633.991,375.662l-4-1l-54-5h-1l-111-4h-158l-111,4v-85l0,0l0,0l111-26h158l111,26l41,22
			v-14l17-2l-1-3l-55-40l-2,1l-111-35h-158l-111,35v-85l-58,68v60l0,0l17,1v14l-17,9v59l0,0h17v25h-15h-3v59l18,11v14l-17,2l-1-1v60
			l58,68v-85l111,34h159l112-34l1,1l54-39l2-4l-17-2v-14l-2-1l-37,20l-1,3l-112,25l0,0h-158l0,0l-111-25v-85l111,4l0,0h158l111-5
			l3,1l52-4l4-2h-17v-25H633.991"/>
		<path id="Path_21373" fill="#F9F9F9" d="M575.991,527.662v85l58-68v-59L575.991,527.662L575.991,527.662 M575.991,491.662
			L575.991,491.662l58-31v-60l-58,5V491.662 M575.991,284.662L575.991,284.662v85l58,5v-60L575.991,284.662 M575.991,248.662l58,42
			v-59l-58-68V248.662L575.991,248.662L575.991,248.662"/>
	</g>
</g>
</svg>
