<?xml version="1.0" encoding="utf-8"?>
<!-- Generator: Adobe Illustrator 16.0.0, SVG Export Plug-In . SVG Version: 6.00 Build 0)  -->
<!DOCTYPE svg PUBLIC "-//W3C//DTD SVG 1.1//EN" "http://www.w3.org/Graphics/SVG/1.1/DTD/svg11.dtd">
<svg version="1.1" id="Layer_1" xmlns="http://www.w3.org/2000/svg" xmlns:xlink="http://www.w3.org/1999/xlink" x="0px" y="0px"
	 width="80px" height="80px" viewBox="0 0 80 80" enable-background="new 0 0 80 80" xml:space="preserve">
<g id="ember_logo" transform="translate(3833 -4965)">
	<rect id="Rectangle_8338" x="-3833" y="4965" fill="#FFFFFF" fill-opacity="0" width="80" height="80"/>
	<g id="ember-logo-svg-vector" transform="translate(-3833.716 4984.988)">
		<path id="Path_21272" fill="#404041" d="M78.915,22.954c-0.055-1.514-1.303-2.709-2.818-2.7c-0.42,0.002-0.835,0.083-1.225,0.238
			l-0.25,0.107l-0.215,0.155c-0.396,0.289-0.826,0.524-1.283,0.699c-0.025-0.425-0.01-0.851,0.047-1.271l0.012-0.071
			c0.346-3.282-0.345-5.2-2.045-5.683c-0.286-0.082-0.582-0.122-0.88-0.119c-0.923,0.041-1.812,0.364-2.544,0.927
			c-0.598-0.679-1.477-1.043-2.378-0.987c-1.374-0.111-2.673,0.642-3.259,1.89c-0.047,0.119-0.105,0.297-0.178,0.535
			c-0.8-1.762-2.584-2.866-4.519-2.794c-1.354,0.001-2.681,0.38-3.829,1.094c-0.023,0.024-0.061,0.036-0.102,0.071
			c-1.53,1.074-2.774,2.507-3.625,4.173c-0.467-1.608-1.529-2.979-2.973-3.828l-0.023-0.024c-0.049-0.024-0.084-0.047-0.131-0.071
			c1.604-2.854,3.031-6.634,2.177-10.237c-0.897-3.838-3.156-4.409-4.429-4.409c-0.545,0.005-1.086,0.101-1.601,0.285L42.81,0.946
			l-0.035,0.012c-1.459,0.514-2.733,1.449-3.663,2.687c-1.913,3.074-3.104,6.542-3.483,10.142c-0.071,0.642-0.143,1.308-0.214,1.974
			c-0.481-0.64-1.164-1.098-1.938-1.3c-0.296-0.091-0.605-0.135-0.915-0.131c-1.121,0.065-2.178,0.546-2.964,1.347l-0.012-0.012
			c-0.489-0.729-1.298-1.181-2.176-1.213H27.2c-1.237,0.021-2.424,0.49-3.341,1.32c-0.536-0.935-1.539-1.504-2.616-1.486
			c-0.087-0.002-0.175,0.001-0.262,0.012h-0.19c-1.396-0.096-2.705,0.687-3.281,1.962c-0.036,0.1-0.083,0.214-0.131,0.368
			c-1.165-1.495-2.986-2.329-4.879-2.235h-0.2c-1.308,0.024-4.566,0.571-6.563,5.065c-0.3,0.672-0.542,1.369-0.725,2.082
			c-1.188-0.551-2.6-0.172-3.353,0.899c-0.772,1.039-1.066,2.356-0.809,3.626c0.259,0.842,0.897,1.516,1.724,1.818
			c0.749,0.301,1.7,0.584,2.414,0.785c0.581,1.276,1.48,2.385,2.612,3.215c1.085,0.779,2.398,1.177,3.733,1.13
			c1.786-0.063,3.542-0.472,5.172-1.2l0.1-0.047l0.024-0.023c0.51,0.529,1.176,0.883,1.9,1.01c0.296,0.058,0.598,0.086,0.9,0.084
			c1.337-0.037,2.549-0.797,3.163-1.985c0.799,1.157,2.141,1.819,3.546,1.75h0.012c0.083,0,0.166,0.062,0.262,0.062
			c1.125-0.008,2.152-0.641,2.663-1.643c0.709,1.262,2.061,2.023,3.507,1.98c0.953-0.021,1.889-0.25,2.746-0.666l0.048-0.023
			c0.452-0.238,0.832-0.452,1.13-0.618c1.36,0.729,2.878,1.119,4.423,1.13c0.322,0.004,0.643-0.014,0.963-0.047l0.083-0.012
			l0.083-0.014c2.795-0.492,5.521-1.317,8.12-2.461c1.349,1.517,3.243,2.435,5.267,2.558c0.273,0.022,0.561,0.034,0.832,0.034
			c1.685,0.006,3.342-0.406,4.827-1.198c0.411,0.442,0.915,0.791,1.476,1.019c0.361,0.15,0.75,0.229,1.142,0.227
			c2.474,0,3.626-2.949,3.947-3.947l0.594-1.593c0.552,0.599,1.256,1.03,2.039,1.251c0.479,0.134,0.976,0.201,1.476,0.199
			c2.096-0.17,4.096-0.95,5.754-2.246c1.037-0.906,1.56-2.271,1.391-3.639"/>
		<path id="Path_21273" fill="#FFFFFF" d="M53.973,23.758c0,0-0.345-1.213,0.938-3.554c1.285-2.342,2.271-1.058,2.271-1.058
			c0.671,0.895,0.604,2.142-0.153,2.961c-0.677,1.03-1.824,1.651-3.058,1.653 M44.163,25.448c-0.586,1.936-2.629,3.029-4.564,2.443
			c-0.155-0.048-0.307-0.105-0.455-0.172c0,0-0.4-1.367,0.749-5.208c1.149-3.841,3.864-2.33,3.864-2.33s1.867,1.438,0.4,5.267
			 M41.513,9.409c0,0,2.211-5.766,2.746-2.96c0.535,2.806-4.637,11.152-4.637,11.152C39.669,15.723,41.512,9.409,41.513,9.409
			 M9.886,23.758c0.1-3.708,2.52-5.325,3.365-4.519c0.845,0.808,0.535,2.558-1.058,3.65C10.6,23.985,9.887,23.758,9.886,23.758
			 M76.896,23.153c0.016-0.472-0.355-0.865-0.828-0.881c-0.146-0.004-0.289,0.029-0.42,0.096c-0.975,0.764-2.164,1.199-3.4,1.248
			c-1.579-0.167-1.082-3.709-1.082-3.709s0.347-3.258-0.594-3.531c-0.939-0.273-2.094,0.844-2.094,0.844
			c-0.918,1.066-1.635,2.291-2.115,3.614l-0.189,0.059c0.111-1.453,0.1-2.913-0.036-4.363c-0.188-0.4-1.899-0.369-2.176,0.345
			c-0.823,2.536-1.408,5.143-1.748,7.788c0,0-2.677,2.271-5.019,2.651s-2.898-1.094-2.898-1.094s6.359-1.771,6.135-6.848
			c-0.227-5.077-5.124-3.2-5.684-2.782c-2.34,1.594-3.883,4.114-4.243,6.92c-0.024,0.166-0.083,0.88-0.083,0.88
			c-1.205,0.821-2.488,1.522-3.831,2.093c0,0,3.828-6.444-0.845-9.381c-2.115-1.272-3.801,1.4-3.801,1.4s6.325-7.039,4.922-13
			c-0.666-2.83-2.08-3.139-3.389-2.675c-1.072,0.37-2.017,1.038-2.723,1.926c-1.735,2.799-2.814,5.955-3.154,9.23
			c-0.594,5.517-1.462,12.176-1.462,12.176c-0.638,0.635-1.448,1.068-2.33,1.247c-1.118,0.06-0.618-3.329-0.618-3.329
			s0.868-5.172,0.808-6.04c-0.06-0.868-0.12-1.34-1.155-1.654s-2.152,1-2.152,1s-2.96,4.482-3.21,5.172l-0.155,0.285l-0.155-0.19
			c0,0,2.093-6.111,0.1-6.194c-1.993-0.083-3.305,2.176-3.305,2.176s-2.271,3.8-2.366,4.233l-0.155-0.19
			c0,0,0.939-4.421,0.749-5.515c-0.055-0.546-0.542-0.944-1.087-0.889c-0.042,0.004-0.084,0.011-0.125,0.021
			c0,0-1.308-0.155-1.653,0.69c-0.769,2.688-1.353,5.425-1.748,8.191c0,0-3.27,2.343-5.422,2.365
			c-2.152,0.024-1.926-1.367-1.926-1.367s7.883-2.698,5.731-8.023c-0.798-1.229-2.215-1.912-3.674-1.771
			c-1.593,0.036-3.46,1-4.744,3.864c-0.53,1.146-0.821,2.39-0.856,3.65c-0.758,0.159-1.549,0.037-2.223-0.347
			c-0.749-0.616-1.177,0-1.177,0s-1.308,1.867-0.036,2.367c1.063,0.383,2.146,0.703,3.246,0.963c0.332,1.34,1.138,2.517,2.269,3.311
			c2.33,1.771,6.825-0.271,6.825-0.271l1.843-1.096c0,0,0.06,1.653,1.4,1.898c1.34,0.248,1.9-0.022,4.233-5.682
			c1.374-2.904,1.464-2.75,1.464-2.75l0.155-0.037c0,0-1.058,5.541-0.654,7.039c0.404,1.5,2.176,1.344,2.176,1.344
			s0.963,0.347,1.748-2.398c0.595-1.934,1.355-3.811,2.271-5.611h0.19c0,0-0.654,5.518,0.345,7.323s3.579,0.535,3.579,0.535
			c0.723-0.367,1.422-0.78,2.093-1.235c1.477,1.125,3.324,1.651,5.173,1.475c6.766-1.332,9.168-3.139,9.168-3.139
			c0.871,1.863,2.698,3.098,4.756,3.209c2.354,0.229,4.688-0.609,6.359-2.283c-0.01,0.964,0.534,1.848,1.4,2.271
			c1.438,0.595,2.398-2.544,2.398-2.544l2.4-6.434h0.214c0,0,0.119,4.115,2.5,4.802s5.47-1.7,5.47-1.7
			c0.508-0.427,0.744-1.097,0.617-1.748"/>
	</g>
</g>
</svg>
