<?xml version="1.0" encoding="utf-8"?>
<!-- Generator: Adobe Illustrator 23.0.2, SVG Export Plug-In . SVG Version: 6.00 Build 0)  -->
<svg version="1.1" id="Layer_1" xmlns="http://www.w3.org/2000/svg" xmlns:xlink="http://www.w3.org/1999/xlink" x="0px" y="0px"
	 viewBox="0 0 80 80" style="enable-background:new 0 0 80 80;" xml:space="preserve">
<style type="text/css">
	.st0{fill:#FFFFFF;fill-opacity:0;}
	.st1{fill:#FFFFFF;}
	.st2{fill:#F8FCFF;}
	.st3{fill:#EAEAEA;}
</style>
<g id="firebase_logo" transform="translate(2997 -6582)">
	<rect id="Rectangle_3172" x="-2997" y="6582" class="st0" width="80" height="80"/>
	<g id="Group_12373" transform="translate(-3095.754 6524.5)">
		<path id="Path_21365" class="st1" d="M117.1,116l0.4-0.5l17.2-32.7l0-0.3l-7.6-14.3c-0.4-0.7-1.2-0.9-1.9-0.6
			c-0.4,0.2-0.7,0.6-0.7,1L117.1,116z"/>
		<path id="Path_21366" class="st2" d="M140.2,93.3l5.6-5.8l-5.7-10.8c-0.4-0.7-1.3-1-2-0.6c-0.3,0.1-0.5,0.3-0.6,0.6l-3,5.8V83
			L140.2,93.3z"/>
		<path id="Path_21367" class="st3" d="M117.1,116l0.2-0.2l0.6-0.2l22-21.9l0.3-0.8l-5.5-10.5L117.1,116z"/>
		<path id="Path_21368" class="st1" d="M160.4,115.9l-5.6-34.8c0-0.7-0.6-1.2-1.3-1.1c-0.3,0-0.6,0.2-0.8,0.4L117.1,116l19.6,11
			c1.2,0.7,2.8,0.7,4,0L160.4,115.9z"/>
	</g>
</g>
</svg>
