<?xml version="1.0" encoding="utf-8"?>
<!-- Generator: Adobe Illustrator 16.0.0, SVG Export Plug-In . SVG Version: 6.00 Build 0)  -->
<!DOCTYPE svg PUBLIC "-//W3C//DTD SVG 1.1//EN" "http://www.w3.org/Graphics/SVG/1.1/DTD/svg11.dtd">
<svg version="1.1" id="Layer_1" xmlns="http://www.w3.org/2000/svg" xmlns:xlink="http://www.w3.org/1999/xlink" x="0px" y="0px"
	 width="80px" height="80px" viewBox="0 0 80 80" enable-background="new 0 0 80 80" xml:space="preserve">
<g id="google_cloud_logo" transform="translate(3715 -8900)">
	<rect id="Rectangle_3172" x="-3715" y="8900" fill="#FFFFFF" fill-opacity="0" width="80" height="80"/>
	<g id="Group_12383" transform="translate(-3703.064 8917.408)">
		<path id="Path_21441" fill="#FFFFFF" d="M35.601,12.463h1.71l4.871-4.871l0.239-2.067c-9.064-8-22.898-7.138-30.899,1.926
			c-2.228,2.585-3.84,5.643-4.716,8.941c0.523-0.28,1.124-0.382,1.71-0.29l9.74-1.606c0,0,0.5-0.82,0.752-0.768
			c4.333-4.759,11.626-5.313,16.629-1.264L35.601,12.463z"/>
		<path id="Path_21442" fill="#F2F2F2" d="M49.121,16.204C48,12.082,45.702,8.376,42.505,5.541l-6.834,6.835
			c2.887,2.358,4.53,5.912,4.459,9.639v1.213c3.36,0,6.084,2.724,6.084,6.083s-2.723,6.083-6.082,6.083c0,0-0.001,0-0.002,0H27.963
			l-1.214,1.231v7.3l1.214,1.215H40.13c8.74,0.067,15.881-6.962,15.949-15.701c0.041-5.298-2.571-10.265-6.959-13.232V16.204z"/>
		<path id="Path_21443" fill="#FFFFFF" d="M15.778,45.136h12.169v-9.739H15.778c-0.867,0-1.724-0.187-2.513-0.547l-1.71,0.528
			l-4.9,4.871l-0.427,1.71c2.751,2.076,6.107,3.192,9.554,3.178L15.778,45.136z"/>
		<path id="Path_21444" fill="#F2F2F2" d="M15.778,13.537C7.039,13.589-0.003,20.716,0.049,29.455
			c0.029,4.881,2.309,9.474,6.177,12.449l7.058-7.059c-3.063-1.383-4.424-4.986-3.041-8.049s4.987-4.423,8.049-3.04
			c1.35,0.609,2.431,1.69,3.041,3.04l7.058-7.058c-3.005-3.923-7.67-6.217-12.612-6.2L15.778,13.537z"/>
	</g>
</g>
</svg>
