<?xml version="1.0" encoding="utf-8"?>
<!-- Generator: Adobe Illustrator 16.0.0, SVG Export Plug-In . SVG Version: 6.00 Build 0)  -->
<!DOCTYPE svg PUBLIC "-//W3C//DTD SVG 1.1//EN" "http://www.w3.org/Graphics/SVG/1.1/DTD/svg11.dtd">
<svg version="1.1" id="Layer_1" xmlns="http://www.w3.org/2000/svg" xmlns:xlink="http://www.w3.org/1999/xlink" x="0px" y="0px"
	 width="80px" height="80px" viewBox="0 0 80 80" enable-background="new 0 0 80 80" xml:space="preserve">
<g id="google_data_stidop_logo" transform="translate(3715 -9676)">
	<rect id="Rectangle_3172" x="-3715" y="9676" fill="#FFFFFF" fill-opacity="0" width="80" height="80"/>
	<g id="google-data-studio" transform="translate(-3702.148 9690.748)">
		<path id="Path_21453" fill="#F2F2F2" d="M47.513,36.727H27.798c-4.768,0-7.438,3.338-7.438,6.889c0,3.277,2.265,6.889,7.438,6.889
			h19.716L47.513,36.727z"/>
		<ellipse id="Ellipse_1322" fill="#FFFFFF" cx="47.514" cy="43.604" rx="6.782" ry="6.889"/>
		<path id="Path_21454" fill="#F2F2F2" d="M27.154,18.356H7.439C2.671,18.356,0,21.694,0,25.247c0,3.276,2.265,6.889,7.439,6.889
			h19.715V18.356z"/>
		<ellipse id="Ellipse_1323" fill="#FFFFFF" cx="27.155" cy="25.247" rx="6.783" ry="6.889"/>
		<path id="Path_21455" fill="#F2F2F2" d="M47.513,0H27.798c-4.768,0-7.438,3.338-7.438,6.889c0,3.277,2.265,6.889,7.438,6.889
			h19.716L47.513,0z"/>
		<ellipse id="Ellipse_1324" fill="#FFFFFF" cx="47.514" cy="6.889" rx="6.782" ry="6.889"/>
	</g>
</g>
</svg>
