<svg xmlns="http://www.w3.org/2000/svg" width="80" height="80" viewBox="0 0 80 80">
  <g id="jenkins_logo" transform="translate(3898 -8141)">
    <rect id="Rectangle_8338" data-name="Rectangle 8338" width="80" height="80" transform="translate(-3898 8141)" fill="#fff" opacity="0"/>
    <g id="Group_12377" data-name="Group 12377" transform="translate(-3887.789 8145.438)">
      <path id="Path_21386" data-name="Path 21386" d="M20.871,336.859s-1.721-25.276,21.586-26l-1.625-2.715-12.638,4.245-3.613,4.149-3.155,6.042-1.8,7.036.535,4.7" transform="translate(-13.815 -296.52)" fill="#373d44"/>
      <path id="Path_21387" data-name="Path 21387" d="M13.556,248.685a23.921,23.921,0,0,0,0,33.268,22.583,22.583,0,0,0,32.465,0,23.922,23.922,0,0,0,0-33.268,22.583,22.583,0,0,0-32.465,0ZM12.5,282.966a25.375,25.375,0,0,1,0-35.314,24.059,24.059,0,0,1,34.568,0,25.375,25.375,0,0,1,0,35.314,24.06,24.06,0,0,1-34.568,0Z" transform="translate(0 -230.888)" fill="#252b33"/>
      <path id="Path_21388" data-name="Path 21388" d="M309.22,62.693l-3.614.535-4.875.555-3.155.076-3.078-.1-2.352-.726-2.084-2.256-1.625-4.608-.363-.994-2.16-.726-1.262-2.084-.9-2.983.994-2.619,2.352-.822,1.893.9.9,1.989,1.09-.172.363-.459-.363-2.084-.1-2.619.535-3.613-.019-2.065,1.644-2.638,2.887-2.084,5.048-2.16,5.6.822,4.875,3.518,2.256,3.614,1.453,2.619.363,6.5-1.09,5.6-1.989,4.971-1.873,2.658" transform="translate(-269.451 -28.223)" fill="#fff"/>
      <path id="Path_21389" data-name="Path 21389" d="M213.466,996.063l-12.906.535v2.161l1.09,7.591-.535.631-9.024-3.078-.631-1.09-.9-10.21-2.122-6.118-.459-1.453,7.227-4.971,2.256-.9,1.988,2.447,1.721,1.53,1.989.631.9.268,1.09,4.7.822.994,2.084-.727-1.453,2.81,7.839,3.709-.975.535" transform="translate(-176.756 -945.973)" fill="#95a2af"/>
      <path id="Path_21390" data-name="Path 21390" d="M303.75,72.713l2.352-.822,1.893.9.9,1.989,1.09-.172.268-1.09-.535-2.084.535-4.971-.459-2.715,1.625-1.893,3.518-2.792-.994-1.357-4.971,2.447-2.084,1.625L305.72,64.3l-1.8,2.447-.535,2.887.363,3.078" transform="translate(-288.454 -54.132)" fill="#0f1216"/>
      <path id="Path_21391" data-name="Path 21391" d="M307.46,73.936s1.357-3.346,6.768-4.971.268-1.166.268-1.166l-5.87,2.256-2.256,2.256-.994,1.8,2.084-.172m-2.715,7.858s-1.893-6.329,5.334-7.227l-.268-1.09-4.971,1.166-1.453,4.7.363,3.078.994-.631" transform="translate(-288.454 -63.845)" fill="#dcd9d8"/>
      <path id="Path_21392" data-name="Path 21392" d="M286.331,33.553l1.185-1.147a.762.762,0,0,1,.631.688c.1.631.363,6.329,4.245,9.388.363.287-2.887-.459-2.887-.459l-2.887-4.512m16.328-5.679s.21-2.734.956-2.524a1.022,1.022,0,0,1,.746.956s-1.8,1.147-1.7,1.568m7.495-10.018s-1.491.306-1.625,1.625,1.625.268,1.893.172m-11.185-1.7s-1.989.268-1.989,1.53,2.256,1.166,2.887.631m-13.173,3.709s-3.422-2.084-3.785-.1-1.166,3.422.535,5.506l-1.166-.363-1.09-2.791-.363-2.715,2.084-2.16,2.352.172,1.358,1.09.076,1.357m1.625-5.7s1.529-7.954,9.292-9.483c6.386-1.262,9.751.268,11.013,1.721,0,0-5.7-6.768-11.109-4.7-5.411,2.084-9.388,5.87-9.292,8.3.153,4.168.1,4.168.1,4.168m20.936-6.864s-2.619-.1-2.715,2.256a1.893,1.893,0,0,0,.172.727s2.084-2.352,3.346-1.09" transform="translate(-267.153 -7.21)" fill="#e8f2fc"/>
      <path id="Path_21393" data-name="Path 21393" d="M653.35,231.191s-.459-3.594-3.518-1.51c-1.989,1.357-1.8,3.25-1.453,3.614.363.363.268,1.09.535.593s.191-2.122,1.185-2.581c.975-.459,2.619-.956,3.25-.115" transform="translate(-622.146 -219.952)" fill="#e8f2fc"/>
      <path id="Path_21394" data-name="Path 21394" d="M1005.929,1505.126l3.346-.1.822,8.3-3.422.459-.746-8.661" transform="translate(-968.416 -1454.94)" fill="#95a2af"/>
      <path id="Path_21395" data-name="Path 21395" d="M1033.891,955.859l5.047-.268s2.084-5.239,2.084-5.506,1.8-7.59,1.8-7.59l-4.073-4.245-.822-.726-2.161,2.16v8.393l-1.874,7.782" transform="translate(-995.479 -905.674)" fill="#95a2af"/>
      <path id="Path_21396" data-name="Path 21396" d="M581.777,1525.21l-1.874-7.59-.937-5.6-.153-4.149,8.47-.459h5.258l-.478,9.483.822,7.323-.1,1.358-6.864.535-4.149-.9" transform="translate(-555.028 -1457.244)" fill="#fff"/>
      <path id="Path_21397" data-name="Path 21397" d="M795.762,1488.9s-.459,9.388.9,16.08a17.128,17.128,0,0,1-6.673,2.16l7.591-.268.9-.536-1.09-14.8-.287-3.174" transform="translate(-759.415 -1438.815)" fill="#dcd9d8"/>
      <path id="Path_21398" data-name="Path 21398" d="M1110.986,1438.923l3.518-.994,6.673-.363.994-3.078-1.8-5.334-2.084-.268-2.887.9-2.753,1.357-1.472-.268-1.147.459" transform="translate(-1069.171 -1381.243)" fill="#fff"/>
      <path id="Path_21399" data-name="Path 21399" d="M1137.992,1491.226a12.953,12.953,0,0,1,2.715-.994l-.994-4.971,1.166-.459s.822,4.7.822,5.239c0,0,5.048.268,5.506.268a8.218,8.218,0,0,0,.822-4.245l.995,2.887.1,1.625-1.453,2.16-1.625.364-2.715-.1-.9-1.166-3.155.459-.995.364" transform="translate(-1096.234 -1435.363)" fill="#dcd9d8"/>
      <path id="Path_21400" data-name="Path 21400" d="M904.708,1205.581l-1.989-5.047-2.084-2.983s.459-1.262,1.09-1.262h2.084l1.989.726-.172,3.346-.918,5.219" transform="translate(-866.506 -1156.122)" fill="#fff"/>
      <path id="Path_21401" data-name="Path 21401" d="M901.083,1197.53s-2.524-4.876-2.524-5.6c0,0,.459-1.09,1.09-.822s1.989.994,1.989.994v-1.721l-3.078-.631-2.084.267,3.518,8.336.726.1" transform="translate(-862.48 -1149.792)" fill="#dcd9d8"/>
      <path id="Path_21402" data-name="Path 21402" d="M549.76,1031.313l-2.5-.268-2.352-.727v.822l1.147,1.262,3.614,1.625" transform="translate(-522.209 -995.486)" fill="#fff"/>
      <path id="Path_21403" data-name="Path 21403" d="M563,1069.58s2.791,1.166,3.709.9l.1,1.09-2.523-.535-1.53-1.09.249-.363" transform="translate(-539.483 -1033.486)" fill="#dcd9d8"/>
      <path id="Path_21404" data-name="Path 21404" d="M1004.469,1055.113a16.7,16.7,0,0,1-4.13-.573,9.449,9.449,0,0,1,.057-1.339,3.152,3.152,0,0,1,1.415-.306,2.443,2.443,0,0,0-1.568-.172,2.6,2.6,0,0,0-.268-.822c.861-.306,2.887-2.313,4.034-1.664.555.325.784,2.122.822,3.021a3.163,3.163,0,0,1-.363,1.855" transform="translate(-962.654 -1014.64)" fill="#373d44"/>
      <path id="Path_21405" data-name="Path 21405" d="M709.992,1063.821a2.054,2.054,0,0,1-.019.344c-.478.306-1.243.306-1.778.574a5.018,5.018,0,0,1,1.912.478c-.019.287-.019.593-.038.88-.88.593-1.683,1.491-2.715,2.065a6.947,6.947,0,0,1-2.715.822c-.287-.077-.325-.44-.44-.784a11.354,11.354,0,0,1-.88-3.021c-.057-1.4-.21-3.747,1.3-3.461a13.183,13.183,0,0,1,3.575,1.3,3.63,3.63,0,0,0,1.8.8" transform="translate(-675.5 -1025.853)" fill="#373d44"/>
      <path id="Path_21406" data-name="Path 21406" d="M931.427,1121a5.226,5.226,0,0,1-.229-1.644c2.046-1.358,2.409,2.333.229,1.644" transform="translate(-896.074 -1081.372)" fill="#373d44"/>
      <path id="Path_21407" data-name="Path 21407" d="M351.9,252.406c-2.466-.574-3.69,1.032-4.436,2.7-.669-.153-.4-1.071-.229-1.529.44-1.2,2.218-2.83,3.671-2.6.612.076,1.453.65.994,1.434m11.988,2.791H364a25.869,25.869,0,0,0,1.74,3.4c-.478,1.109-3.556,2.065-3.518.115.669-.287,1.816-.057,2.409-.44a6.708,6.708,0,0,1-.746-3.078m-10.745.038c.535.975.707,1.988,1.453,2.715.344.325.994.726.669,1.644a2.1,2.1,0,0,1-.956.784c-1.166.344-3.9.077-2.983-1.4.975.038,2.275.631,3-.076-.555-.879-1.549-2.638-1.185-3.671m10.305,9.827c-1.759,1.128-3.729,2.371-6.634,2.084a1.957,1.957,0,0,1-.249-2.524c.306.535.115,1.53.994,1.682,1.644.287,3.556-1.013,4.741-1.453.726-1.243-.057-1.683-.726-2.486-1.358-1.625-3.155-3.652-3.1-6.08.555-.4.593.612.669.784a22.948,22.948,0,0,0,3.766,5.181c.325.344.841.688.9.918.172.65-.44,1.453-.363,1.893m-23.288-1.185c-.554-.325-.688-1.7-1.338-1.74-.937-.057-.765,1.8-.765,2.887a3.456,3.456,0,0,1-.287-3.288c-.535-.268-.765.287-1.071.478.4-2.772,4.072-1.281,3.461,1.664m24.4,2.352c-.822,1.568-1.989,3.289-4.4,3.346a5.47,5.47,0,0,1,0-1.587c1.855-.191,3-1.128,4.4-1.759m-11.548,1.013c1.53.8,4.359.9,6.462.841a6.974,6.974,0,0,1,.115,1.587c-2.7.115-5.87-.555-6.577-2.428m-.287,1.491c1.07,2.677,4.722,2.371,7.8,2.294a1.548,1.548,0,0,1-.8.9c-.994.4-3.709.708-5.086-.019a7.1,7.1,0,0,1-1.912-2.122c-.21-.287-1.358-1.032,0-1.051" transform="translate(-320.693 -241.168)" fill="#231f20"/>
      <path id="Path_21408" data-name="Path 21408" d="M1046.737,1226.236a53.507,53.507,0,0,1-3.919,6.214,30.442,30.442,0,0,0,.975-7.208,2.265,2.265,0,0,1,2.944.994" transform="translate(-1004.12 -1183.928)" fill="#bdc6d1"/>
      <path id="Path_21409" data-name="Path 21409" d="M1260.713,1502.056c-1.4.287-2.371,1.644-3.747,1.549a4.471,4.471,0,0,1,3.747-1.549m.612,2.179a21.047,21.047,0,0,1-3.633.211c.555-.841,2.658-.536,3.633-.211m.4,1.893c-1.281.019-2.868,0-4.091-.1.727-.784,3.269-.287,4.091.1" transform="translate(-1211.385 -1452.062)" fill="#231f20"/>
      <path id="Path_21410" data-name="Path 21410" d="M1043.452,1788.7c.191,1.606.822,3.232.746,4.99a5.408,5.408,0,0,1-2.065.44c-.057-1.491-.268-3.785-.21-5.219.459.038,1.147-.325,1.53-.21" transform="translate(-1003.243 -1729.471)" fill="#dcd9d8"/>
      <path id="Path_21411" data-name="Path 21411" d="M786.421,1254.04c.4-1.74,1.989-2.658,3.422-3.613a29.073,29.073,0,0,1,3.365,6.615,33.87,33.87,0,0,1-6.787-3" transform="translate(-755.963 -1208.52)" fill="#bdc6d1"/>
      <path id="Path_21412" data-name="Path 21412" d="M191.629,59.458c-.057,1.434.134,3.709.21,5.22a5.406,5.406,0,0,0,2.065-.44c.076-1.759-.555-3.384-.746-4.99C192.776,59.114,192.088,59.477,191.629,59.458Zm-14.76-8.107a74.96,74.96,0,0,0,3.193,15.678,20.68,20.68,0,0,0,11.4.21c-.593-2.868-.344-6.367-.688-9.445-.268-2.313-.134-4.627-.5-6.979-3.958-.822-9.541-.191-13.4.535Zm14.34-.5c-.038,2.466.115,4.914.306,7.38a23.547,23.547,0,0,0,2.466-.44c-.287-2.371-.249-5.067-.841-7.17a6.082,6.082,0,0,0-1.931.229Zm4.8-.4a6.807,6.807,0,0,0-1.4,0c.21,2.008.688,4.225.86,6.348.669.019,1.032-.306,1.587-.4.038-1.855-.153-4.417-1.052-5.946Zm7.285,6.654a3.113,3.113,0,0,0,1.893-3.843,17.937,17.937,0,0,0-1.243-4.206c-.363-.554-1.377-1.3-2.2-.784-1.319.841-3.633,1.09-4.589,2.1a33.5,33.5,0,0,1,.822,5.812c1.644.1,3.652-.459,5.029.134a17.682,17.682,0,0,0-3,.765,6.334,6.334,0,0,0,3.289.019Zm-13.116-8.585a29.062,29.062,0,0,0-3.365-6.615c-1.434.956-3,1.874-3.422,3.614a34.868,34.868,0,0,0,6.787,3Zm2.447-7.208a30.409,30.409,0,0,1-.975,7.208,55.126,55.126,0,0,0,3.919-6.214,2.266,2.266,0,0,0-2.944-.994Zm-2.772-.975c-.555-.058-1.032.65-1.759.344-.172.191-.325.383-.5.574,1.606,1.95,2.352,4.7,3.595,6.979a30.863,30.863,0,0,0,.746-6.979c-.918.038-1.434-.86-2.084-.918Zm-1.778-2.352a5.236,5.236,0,0,0,.229,1.644C190.482,40.32,190.119,36.629,188.073,37.987Zm-2.428-.8a13.168,13.168,0,0,0-3.575-1.3c-1.51-.287-1.357,2.065-1.3,3.461a11.572,11.572,0,0,0,.88,3.021c.115.344.153.707.44.784a7.177,7.177,0,0,0,2.715-.822,28.045,28.045,0,0,0,2.715-2.065c.019-.287.019-.593.038-.879a4.6,4.6,0,0,0-1.912-.478c.516-.268,1.3-.268,1.778-.574a2.064,2.064,0,0,1,.019-.344,4,4,0,0,1-1.8-.8Zm-8.986-1.625c-.784.8,2.2,1.874,3.136,1.931,0-.5.287-.975.229-1.338-1.128-.191-2.6-.057-3.365-.593Zm9.636.363c0,.076-.1.057-.115.115a3.965,3.965,0,0,0,3.116.879c.612-.44,1.166-.975,1.816-1.4-1.491.134-3.365,1.052-4.818.4Zm8.833,2.677c-.038-.88-.268-2.7-.822-3.021-1.147-.669-3.174,1.357-4.034,1.663a2.6,2.6,0,0,1,.268.822,2.432,2.432,0,0,1,1.568.172,3.157,3.157,0,0,0-1.415.306c-.115.363.038.841-.057,1.338a17.636,17.636,0,0,0,4.13.573,3.1,3.1,0,0,0,.363-1.854Zm-19.789-2.275c-.249-.172-1.912-2.333-2.141-2.237a35.283,35.283,0,0,0-8.317,5.181c2.39,5.143,3.365,11.434,3.537,17.494,2.734,1.281,5.143,3.136,8.871,3.327-.44-3.04-.822-5.774-1.071-8.642-.937-.4-2.275.019-3.155-.115,0-1.052,1.338-.459,1.453-1.166.077-.535-.746-.574-.478-1.415.688.249,1.051.8,1.778,1.013.669-1.453,0-4.034.1-5.258.019-.229.115-1.262.631-1.09.459.153-.019,2.772.019,3.919.038,1.071-.134,2.084.306,2.753a102.667,102.667,0,0,1,11.147-.918,24.866,24.866,0,0,1-2.983-1.338c-.612-.344-2.5-1.052-2.677-1.625-.287-.918.726-1.4.9-2.18-1.816.994-2.16-.956-2.6-2.313a19.069,19.069,0,0,1-.707-2.887,36.246,36.246,0,0,1-4.608-2.5Zm18.2-1.989c2.5-1.2,2.964,4.531,1.969,6.386.153.554.669.765.88,1.262-1.4,2.5-2.944,4.837-4.378,7.3,1.052-.669,2.581-.115,3.824-.612.459-.172.784-1.224,1.128-2.065a44.111,44.111,0,0,0,2.39-7.38,8.69,8.69,0,0,0,.306-2.027c-.115-.8-1.185-1.4-1.74-1.874-1.013-.918-1.644-1.7-2.715-2.562-.4.631-1.319,1.052-1.663,1.568Zm-23.919-22.2c-1.185,1.319-.937,3.767-.8,5.526,2.16-1.357,5.009.115,4.99,2.409,1.032-.019.383-1.281.191-2.1-.612-2.658,1.032-5.526.076-7.954a6.5,6.5,0,0,0-4.455,2.122Zm8.527-7.629c-2.7.765-6.156,2.734-7.265,5.162.86-.134,1.453-.554,2.294-.612a5.287,5.287,0,0,0,1.109.038c.726-.191,1.357-1.836,1.912-2.447.535-.593,1.185-.86,1.625-1.4.287-.134.707-.134.726-.555a.414.414,0,0,0-.4-.191Zm14.053.726c-2.81-1.587-7.552-2.772-10.535-1.281-2.409,1.2-5.659,3.193-6.768,5.7,1.032,2.428-.306,4.646-.4,7.112-.038,1.319.612,2.448.669,3.882-.363.593-1.434.65-2.18.612-.249-1.262-.688-2.677-1.989-2.83a3.01,3.01,0,0,0-3.269,2.906c-.1,1.874,1.434,4.971,3.614,4.761.841-.076,1.052-.918,1.969-.918.5.994-.765,1.3-.9,2.007a4.8,4.8,0,0,0,.191,1.243,17.27,17.27,0,0,0,2.141,4.99c1.109,1.587,3.27,1.816,5.6,1.969.421-.9,1.95-.822,2.944-.593a9.84,9.84,0,0,1-3.231-2.638c-1.052-1.166-2.122-2.409-2.18-3.939,2.008,2.772,3.652,5.2,7.285,6.424,2.753.918,5.965-.421,8.088-1.912a9.548,9.548,0,0,0,2.027-2.486,21.22,21.22,0,0,0,3.193-12.791c-.1-1.912-.1-3.824-.746-5.1-.669-1.338-2.944-2.562-4.283-1.338-.249-1.319,1.109-2.122,2.7-1.644-1.128-1.472-2.313-3.212-3.939-4.13Zm5.239,43.229c2.2-1.09,6.29-2.925,7.648,0a22.741,22.741,0,0,1,1.358,4.034c.363,1.568-.4,4.895-2.027,5.411a9.707,9.707,0,0,1-4.818.1,2.789,2.789,0,0,1-.593-.765,6.6,6.6,0,0,0-3.346.574c.1.918-.516,1.052-1.109,1.243-.421,1.7.86,3.919.555,5.449-.21,1.109-1.568,1.281-2.562,1.472a7.485,7.485,0,0,0,.115,1.644,2.473,2.473,0,0,1-2.218,1.434c-3.193.382-8.03.554-11.089-.555-.861-2.1-1.53-4.646-2.237-7.036-2.983.325-5.411-1.281-7.686-2.352-.784-.363-1.874-.574-2.18-1.2A10.91,10.91,0,0,1,167,55.042a44.075,44.075,0,0,0-1.071-8.394c-.325-1.3-.918-2.428-1.319-3.671a25.614,25.614,0,0,1-1.2-3.729c-.249-1.7,1.357-1.8,2.371-2.543,1.587-1.147,2.83-1.778,4.55-2.811a9.87,9.87,0,0,0,2.218-1.434c.344-.707-.593-1.7-.841-2.256a6.8,6.8,0,0,1-.669-2.486,4.814,4.814,0,0,1-3.193-2.046,7.828,7.828,0,0,1-.9-6.807c.077-.172.44-.535.5-.8a8.753,8.753,0,0,0-.229-1.816c-.1-2.925.5-5.449,2.466-6.329.8-3.193,3.671-4.244,6.367-5.831a20.039,20.039,0,0,1,3.269-1.4c4.111-1.51,10.439-1.224,13.862,1.357a18.235,18.235,0,0,1,4.589,5.086c2.2,4.417,2.027,11.816.5,17.208A17.689,17.689,0,0,1,197.346,29c-.287.612-1.185,1.816-1.09,2.352.115.555,2.065,2.027,2.486,2.428.746.726,2.18,1.683,2.294,2.6a8.876,8.876,0,0,1-.707,3.25c-.918,3.136-1.836,6.023-2.887,8.833Z" transform="translate(-152.95 0)" fill="#252b33"/>
      <path id="Path_21413" data-name="Path 21413" d="M766.1,772.375c.115-.153.765-.4,1.682.038,0,0-1.09.172-.994,1.988l-.459-.1c.019.019-.459-1.625-.229-1.931" transform="translate(-736.239 -745.63)" fill="#e8f2fc"/>
      <path id="Path_21414" data-name="Path 21414" d="M984.315,1246.756a.5.5,0,1,1-.5-.5.493.493,0,0,1,.5.5m.5,2.313a.5.5,0,1,1-.5-.5.482.482,0,0,1,.5.5" transform="translate(-946.535 -1204.486)" fill="#1d1919"/>
    </g>
  </g>
</svg>
