<?xml version="1.0" encoding="utf-8"?>
<!-- Generator: Adobe Illustrator 16.0.0, SVG Export Plug-In . SVG Version: 6.00 Build 0)  -->
<!DOCTYPE svg PUBLIC "-//W3C//DTD SVG 1.1//EN" "http://www.w3.org/Graphics/SVG/1.1/DTD/svg11.dtd">
<svg version="1.1" id="Layer_1" xmlns="http://www.w3.org/2000/svg" xmlns:xlink="http://www.w3.org/1999/xlink" x="0px" y="0px"
	 width="80px" height="80px" viewBox="0 0 80 80" enable-background="new 0 0 80 80" xml:space="preserve">
<g id="kubernetes_logo" transform="translate(3538 -8157)">
	<rect id="Rectangle_3172" x="-3538" y="8157" fill="#FFFFFF" fill-opacity="0" width="80" height="80"/>
	<g id="Group_12379" transform="translate(-3570.265 8132.705)">
		<path id="Path_21427" fill="#252B33" d="M66.388,64.776l-5.736,1.666c-0.234-2.534,0.35-5.076,1.665-7.254l4.4,3.923
			c0.401,0.351,0.451,0.958,0.111,1.369C66.723,64.629,66.566,64.735,66.388,64.776z"/>
		<path id="Path_21428" fill="#252B33" d="M68.238,68.995c0.044,0.196,0.032,0.402-0.037,0.592l-2.258,5.44
			c-2.134-1.381-3.758-3.422-4.626-5.811l5.884-1C67.691,68.187,68.13,68.517,68.238,68.995z"/>
		<path id="Path_21429" fill="#252B33" d="M69.016,60.483l-4.922-3.515c1.513-1.514,3.425-2.566,5.514-3.035l0,0
			c0.407-0.074,0.777-0.148,1.184-0.222l-0.333,5.921c-0.027,0.535-0.465,0.956-1,0.962C69.304,60.597,69.152,60.558,69.016,60.483z
			"/>
		<path id="Path_21430" fill="#252B33" d="M70.2,64.816l1.11-1.405h1.813l1.11,1.405l-0.37,1.74l0,0l-1.628,0.776l-1.628-0.776
			L70.2,64.816z"/>
		<path id="Path_21431" fill="#252B33" d="M73.05,71.141l2.849,5.145c-0.333,0.111-0.7,0.186-1.073,0.3
			c-0.85,0.193-1.719,0.294-2.59,0.3c-1.269-0.007-2.529-0.207-3.737-0.592l2.924-5.292c0.286-0.353,0.777-0.46,1.184-0.259
			C72.779,70.846,72.929,70.98,73.05,71.141z"/>
		<path id="Path_21432" fill="#252B33" d="M74.011,59.78l-0.333-6.032c2.521,0.29,4.868,1.425,6.661,3.22l-4.848,3.442
			c-0.427,0.269-0.988,0.173-1.301-0.222C74.095,60.071,74.032,59.93,74.011,59.78z"/>
		<path id="Path_21433" fill="#252B33" d="M77.195,68.182l5.92,1c-0.228,0.807-0.59,1.57-1.072,2.256
			c-0.91,1.44-2.123,2.666-3.553,3.591l-2.332-5.589c-0.119-0.456,0.097-0.934,0.519-1.146
			C76.838,68.217,77.015,68.179,77.195,68.182z"/>
		<path id="Path_21434" fill="#252B33" d="M83.522,62.704c0.287,1.224,0.374,2.485,0.259,3.737l-5.662-1.629
			c-0.51-0.146-0.817-0.666-0.699-1.184c0.037-0.153,0.113-0.293,0.222-0.407l4.479-4.034c0.653,1.089,1.128,2.276,1.405,3.516
			H83.522z"/>
		<path id="Path_21435" fill="#FFFFFF" d="M99.954,69.734L95.327,49.64c-0.295-1.317-1.184-2.425-2.404-3L74.2,37.724
			c-1.215-0.592-2.635-0.592-3.85,0L51.622,46.68c-1.221,0.575-2.109,1.682-2.405,3l-4.626,20.091
			c-0.323,1.322-0.008,2.72,0.851,3.775l12.952,16.1c0.831,1.055,2.1,1.67,3.442,1.666l0,0l20.872-0.037
			c1.338-0.014,2.601-0.624,3.441-1.666l12.95-16.1C99.944,72.447,100.258,71.058,99.954,69.734z M90.887,70.436
			c-0.102,0.006-0.203-0.007-0.3-0.037c-0.029-0.029-0.07-0.043-0.111-0.037c-0.074,0-0.148-0.037-0.222-0.037
			c-0.23-0.064-0.454-0.15-0.666-0.26c-0.111-0.037-0.222-0.11-0.333-0.147h-0.037c-0.619-0.255-1.265-0.441-1.925-0.556h-0.074
			c-0.175,0.017-0.341,0.08-0.481,0.186c-0.037,0-0.037,0.037-0.074,0.037L86.22,69.51c-1.092,3.393-3.381,6.271-6.439,8.1
			l0.186,0.444c0,0.037-0.037,0.037-0.037,0.074c-0.07,0.189-0.083,0.396-0.037,0.592c0.25,0.616,0.572,1.201,0.962,1.74v0.04
			c0.074,0.111,0.148,0.186,0.222,0.3c0.157,0.183,0.293,0.381,0.408,0.593c0.045,0.056,0.082,0.118,0.11,0.185
			c0,0.037,0.037,0.037,0.037,0.073c0.134,0.29,0.16,0.618,0.073,0.926c-0.086,0.289-0.286,0.529-0.555,0.666
			c-0.137,0.071-0.289,0.109-0.443,0.111c-0.473-0.007-0.901-0.277-1.11-0.701c-0.021-0.02-0.033-0.045-0.037-0.073
			c-0.037-0.074-0.073-0.111-0.11-0.185c-0.092-0.217-0.166-0.439-0.223-0.666l-0.111-0.334v-0.037
			c-0.209-0.636-0.469-1.254-0.776-1.85c-0.103-0.177-0.279-0.299-0.481-0.333c-0.037-0.036-0.037-0.036-0.074-0.036l-0.222-0.408
			c-0.63,0.225-1.272,0.41-1.924,0.556c-1.055,0.253-2.136,0.377-3.22,0.37c-1.771-0.001-3.527-0.326-5.181-0.963l-0.259,0.481
			c-0.037,0.037-0.037,0.037-0.074,0.037c-0.191,0.058-0.36,0.175-0.481,0.333c-0.33,0.585-0.59,1.205-0.777,1.85l-0.111,0.334
			c-0.063,0.225-0.137,0.447-0.222,0.666c-0.045,0.057-0.082,0.118-0.111,0.185c-0.02,0.021-0.033,0.046-0.037,0.073
			c-0.221,0.413-0.643,0.679-1.11,0.701c-0.155-0.002-0.307-0.04-0.444-0.111c-0.571-0.303-0.789-1.011-0.486-1.582
			c0.002-0.003,0.003-0.006,0.005-0.01c0.02-0.02,0.033-0.045,0.037-0.073c0.029-0.066,0.066-0.129,0.111-0.185
			c0.148-0.223,0.259-0.408,0.407-0.593c0.074-0.11,0.148-0.185,0.222-0.3v-0.037c0.375-0.548,0.698-1.131,0.962-1.74
			c0.057-0.199,0.03-0.412-0.074-0.592c0-0.037-0.037-0.037-0.037-0.074l0.222-0.48c-0.553-0.323-1.084-0.682-1.591-1.073
			c-2.267-1.79-3.954-4.21-4.848-6.957l-0.518,0.074c-0.037,0-0.037-0.037-0.074-0.037c-0.136-0.112-0.305-0.177-0.481-0.185H57.4
			c-0.66,0.113-1.306,0.299-1.925,0.555h-0.037c-0.111,0.037-0.222,0.111-0.333,0.148c-0.213,0.107-0.437,0.195-0.667,0.258
			c-0.074,0-0.148,0.037-0.222,0.037c0,0.037-0.037,0.037-0.074,0.037c-0.097,0.031-0.198,0.044-0.3,0.037
			c-0.548,0.039-1.046-0.318-1.184-0.851c-0.096-0.64,0.328-1.242,0.962-1.369c0.03-0.028,0.07-0.042,0.111-0.037
			c0.074,0,0.148-0.037,0.222-0.037c0.231-0.04,0.465-0.065,0.7-0.073c0.121-0.031,0.246-0.043,0.37-0.037h0.037
			c0.677-0.039,1.348-0.15,2-0.334c0.179-0.084,0.322-0.229,0.407-0.406c0-0.037,0.037-0.037,0.037-0.074l0.481-0.148
			c-0.496-3.399,0.239-6.864,2.072-9.77c0.048-0.108,0.11-0.209,0.185-0.3l-0.37-0.333v-0.074c0.025-0.203-0.042-0.407-0.185-0.555
			c-0.518-0.434-1.075-0.818-1.665-1.147c-0.103-0.075-0.215-0.138-0.333-0.185c-0.218-0.11-0.428-0.233-0.629-0.37
			c-0.074-0.037-0.111-0.111-0.185-0.148c-0.037,0-0.037-0.037-0.074-0.037c-0.51-0.401-0.623-1.128-0.259-1.665
			c0.204-0.262,0.519-0.413,0.851-0.407c0.298,0.003,0.585,0.109,0.814,0.3c0,0.037,0.037,0.037,0.074,0.074
			c0.074,0.074,0.148,0.111,0.185,0.148c0.17,0.164,0.331,0.336,0.481,0.518c0.095,0.077,0.182,0.164,0.259,0.259
			c0.445,0.506,0.941,0.965,1.48,1.369c0.098,0.069,0.214,0.108,0.333,0.111c0.074,0,0.148-0.037,0.222-0.037h0.074l0.37,0.259
			c1.97-2.087,4.523-3.532,7.327-4.146c0.661-0.136,1.329-0.236,2-0.3l0.037-0.481l0.074-0.074c0.157-0.117,0.265-0.289,0.3-0.481
			c0.033-0.668-0.004-1.339-0.111-2V47.6c-0.037-0.148-0.037-0.259-0.074-0.37c-0.075-0.226-0.113-0.462-0.111-0.7v-0.3
			c-0.009-0.317,0.111-0.624,0.333-0.851c0.418-0.462,1.132-0.498,1.595-0.079c0.261,0.236,0.396,0.58,0.367,0.93v0.333
			c-0.037,0.259-0.074,0.481-0.111,0.7c-0.042,0.119-0.067,0.244-0.073,0.37v0.037c-0.089,0.663-0.126,1.332-0.111,2
			c0.035,0.192,0.143,0.364,0.3,0.481l0.074,0.074l0.036,0.481c2.82,0.262,5.505,1.328,7.736,3.072
			c0.531,0.439,1.038,0.909,1.516,1.406l0.445-0.3H83.3c0.07,0.03,0.146,0.043,0.223,0.037c0.119-0.003,0.234-0.042,0.332-0.111
			c0.539-0.391,1.035-0.837,1.48-1.332c0.096-0.077,0.182-0.164,0.259-0.259c0.149-0.182,0.311-0.354,0.481-0.518
			c0.074-0.037,0.11-0.111,0.185-0.148l0.074-0.074c0.231-0.185,0.517-0.291,0.813-0.3c0.335-0.003,0.651,0.153,0.853,0.421
			c0.364,0.537,0.251,1.265-0.259,1.666c0,0.037-0.037,0.037-0.074,0.074c-0.074,0.074-0.148,0.111-0.186,0.148
			c-0.201,0.137-0.411,0.261-0.629,0.37c-0.111,0.074-0.222,0.111-0.333,0.185c-0.59,0.329-1.147,0.713-1.666,1.147
			c-0.126,0.157-0.192,0.354-0.185,0.555v0.074l-0.37,0.333c0.968,1.483,1.669,3.124,2.073,4.848
			c0.398,1.71,0.486,3.477,0.259,5.218l0.481,0.148c0,0.036,0.037,0.036,0.037,0.073c0.072,0.187,0.221,0.334,0.406,0.408
			c0.653,0.18,1.324,0.291,2,0.332h0.037c0.121,0.029,0.246,0.041,0.37,0.037c0.235,0.009,0.469,0.033,0.7,0.074
			c0.074,0,0.147,0.037,0.222,0.037c0,0.037,0.037,0.037,0.074,0.037H91c0.577,0.143,1.005,0.629,1.073,1.221
			c-0.17,0.51-0.648,0.854-1.187,0.852V70.436z"/>
	</g>
</g>
</svg>
