<?xml version="1.0" encoding="utf-8"?>
<!-- Generator: Adobe Illustrator 23.0.2, SVG Export Plug-In . SVG Version: 6.00 Build 0)  -->
<svg version="1.1" id="Layer_1" xmlns="http://www.w3.org/2000/svg" xmlns:xlink="http://www.w3.org/1999/xlink" x="0px" y="0px"
	 viewBox="0 0 80 80" style="enable-background:new 0 0 80 80;" xml:space="preserve">
<style type="text/css">
	.st0{fill:#FFFFFF;fill-opacity:0;}
	.st1{fill:#FFFFFF;}
</style>
<g id="lambda_logo" transform="translate(3219 -5779)">
	<rect id="Rectangle_3172" x="-3219" y="5779" class="st0" width="80" height="80"/>
	<path id="aws-lambda-1" class="st1" d="M-3179.1,5819.6c-0.2,0.2-0.3,0.4-0.4,0.6l-6.1,9c-1.9,2.8-3.8,5.6-5.7,8.4
		c-0.1,0.1-0.2,0.1-0.3,0.2c-2.7,0-5.4-0.1-8.1-0.1c0,0-0.1,0-0.1,0c0-0.1,0-0.1,0.1-0.2l5.6-8.7c1.7-2.6,3.3-5.2,5-7.7
		c1.8-2.9,3.7-5.7,5.5-8.6c0.3-0.4,0.6-0.8,0.8-1.3c0.1-0.1,0.1-0.3,0.1-0.4c-0.5-1.6-1-3.2-1.5-4.7c-0.2-0.7-0.4-1.4-0.6-2
		c0-0.2-0.2-0.3-0.4-0.3c0,0,0,0,0,0c-1.7,0-3.4,0-5.1,0c-0.3,0-0.3,0-0.3-0.3c0-2.1,0-4.1,0-6.2c0-0.2,0.1-0.3,0.3-0.3
		c3.4,0,6.8,0,10.2,0c0.2,0,0.3,0.1,0.4,0.2c1.8,4.5,3.6,9,5.4,13.5l6.3,15.7c0.6,1.6,1.3,3.3,1.9,4.9c0.1,0.2,0.2,0.2,0.4,0.2
		c1.8-0.5,3.6-1.1,5.3-1.6c0.2-0.1,0.3,0,0.4,0.2c0.6,1.9,1.2,3.8,1.8,5.7c0,0.1,0,0.1,0.1,0.2c-0.1,0-0.2,0.1-0.4,0.1
		c-4,1.3-8.1,2.6-12.1,3.8c-0.2,0.1-0.3,0-0.3-0.2c-1.2-3.1-2.5-6.3-3.7-9.4c-1.2-3.1-2.4-6.1-3.6-9.2c-0.2-0.5-0.4-0.9-0.5-1.4
		C-3179,5819.8-3179,5819.8-3179.1,5819.6L-3179.1,5819.6z"/>
</g>
</svg>
