<?xml version="1.0" encoding="utf-8"?>
<!-- Generator: Adobe Illustrator 16.0.0, SVG Export Plug-In . SVG Version: 6.00 Build 0)  -->
<!DOCTYPE svg PUBLIC "-//W3C//DTD SVG 1.1//EN" "http://www.w3.org/Graphics/SVG/1.1/DTD/svg11.dtd">
<svg version="1.1" id="Layer_1" xmlns="http://www.w3.org/2000/svg" xmlns:xlink="http://www.w3.org/1999/xlink" x="0px" y="0px"
	 width="80px" height="80px" viewBox="0 0 80 80" enable-background="new 0 0 80 80" xml:space="preserve">
<g id="laravel_logo" transform="translate(3534 -7331)">
	<rect id="Rectangle_3172" x="-3534" y="7331" fill="#FFFFFF" fill-opacity="0" width="80" height="80"/>
	<path id="laravel-1" fill="#FFFFFF" d="M-3462.734,7369.587c-0.451-0.45-6.22-7.717-7.193-8.916c-1.049-1.2-1.5-0.974-2.174-0.9
		c-0.672,0.074-7.941,1.349-8.766,1.424c-0.824,0.15-1.349,0.45-0.824,1.2c0.451,0.674,5.246,7.417,6.295,8.991l-19.106,4.569
		l-15.135-25.399c-0.6-0.9-0.749-1.2-2.1-1.124c-1.351,0.076-11.91,0.974-12.66,0.974c-0.749,0.075-1.573,0.375-0.825,2.173
		c0.748,1.798,12.738,27.571,13.038,28.321c0.502,1.279,1.92,1.939,3.222,1.5c2.1-0.524,9.291-2.4,13.262-3.447
		c2.1,3.746,6.295,11.388,7.118,12.512c1.049,1.5,1.8,1.2,3.372,0.749c1.273-0.375,19.63-6.968,20.454-7.343
		c0.823-0.375,1.349-0.6,0.749-1.424c-0.45-0.6-5.245-7.118-7.792-10.489c1.723-0.45,7.942-2.1,8.616-2.323
		C-3462.436,7370.41-3462.284,7370.035-3462.734,7369.587L-3462.734,7369.587z M-3497.423,7376.705
		c-0.225,0.075-10.939,2.622-11.463,2.771c-0.6,0.15-0.6,0.076-0.6-0.149c-0.15-0.226-12.737-26.3-12.962-26.6
		c-0.15-0.3-0.15-0.6,0-0.6c0.15,0,10.115-0.9,10.414-0.9c0.375,0,0.3,0.075,0.45,0.3c0,0,14.011,24.2,14.236,24.575
		c0.3,0.375,0.15,0.524-0.075,0.601V7376.705z M-3467.303,7382.324c0.15,0.3,0.375,0.449-0.225,0.6
		c-0.524,0.225-18.058,6.145-18.432,6.294c-0.374,0.15-0.6,0.226-1.049-0.45c-0.449-0.675-6.145-10.488-6.145-10.488l18.656-4.87
		c0.45-0.15,0.6-0.226,0.9,0.225C-3473.296,7374.158-3467.452,7382.1-3467.303,7382.324L-3467.303,7382.324z M-3466.104,7369.137
		c-0.449,0.075-7.268,1.8-7.268,1.8l-5.619-7.642c-0.15-0.225-0.3-0.45,0.075-0.524c0.375-0.074,6.743-1.2,7.043-1.274
		s0.524-0.15,0.899,0.375c0.375,0.45,5.171,6.593,5.396,6.818c0.226,0.225-0.075,0.375-0.524,0.45L-3466.104,7369.137z"/>
</g>
</svg>
