<?xml version="1.0" encoding="utf-8"?>
<!-- Generator: Adobe Illustrator 23.0.2, SVG Export Plug-In . SVG Version: 6.00 Build 0)  -->
<svg version="1.1" id="Layer_1" xmlns="http://www.w3.org/2000/svg" xmlns:xlink="http://www.w3.org/1999/xlink" x="0px" y="0px"
	 viewBox="0 0 80 80" style="enable-background:new 0 0 80 80;" xml:space="preserve">
<style type="text/css">
	.st0{fill:#FFFFFF;fill-opacity:0;}
	.st1{fill-rule:evenodd;clip-rule:evenodd;fill:#FFFFFF;}
	.st2{fill-rule:evenodd;clip-rule:evenodd;fill:#F4F7F9;}
</style>
<g id="mongo_db_logo" transform="translate(3534 -6568)">
	<rect id="Rectangle_3172" x="-3534" y="6568" class="st0" width="80" height="80"/>
	<g id="Group_12371" transform="translate(-3511.147 6572.875)">
		<path id="Path_21355" class="st1" d="M18.5,67.4l-1.7-0.6c0,0,0.2-8.8-2.9-9.4C11.7,55,14.2-46,21.7,57.1c0,0-2.6,1.3-3.1,3.5
			C18.4,62.8,18.3,65.1,18.5,67.4L18.5,67.4z"/>
		<path id="Path_21356" class="st1" d="M18.7,67L17,66.4c0,0,0.2-8.8-2.9-9.4C12,54.5,14.4-46.4,22,56.6c0,0-2.6,1.3-3.1,3.5
			C18.6,62.4,18.5,64.7,18.7,67L18.7,67z"/>
		<path id="Path_21357" class="st2" d="M19.4,58.9c0,0,15.1-9.9,11.6-30.5c-3.4-15-11.4-19.9-12.3-21.8c-0.7-1.2-1.4-2.4-1.9-3.7
			l0.6,41.7C17.4,44.6,16.1,57.4,19.4,58.9"/>
		<path id="Path_21358" class="st1" d="M16.1,59.5c0,0-14.2-9.7-13.3-26.7c0.8-17,10.8-25.4,12.7-26.9c0.9-0.7,1.3-1.9,1.2-3
			c0.9,1.9,0.9,28.1,1,31.2C18.2,46.1,17.1,57.2,16.1,59.5z"/>
	</g>
</g>
</svg>
