<?xml version="1.0" encoding="utf-8"?>
<!-- Generator: Adobe Illustrator 23.0.2, SVG Export Plug-In . SVG Version: 6.00 Build 0)  -->
<svg version="1.1" id="Layer_1" xmlns="http://www.w3.org/2000/svg" xmlns:xlink="http://www.w3.org/1999/xlink" x="0px" y="0px"
	 viewBox="0 0 80 80" style="enable-background:new 0 0 80 80;" xml:space="preserve">
<style type="text/css">
	.st0{fill:#FFFFFF;fill-opacity:0;}
	.st1{fill-rule:evenodd;clip-rule:evenodd;fill:#FFFFFF;}
</style>
<g id="my_sql_logo" transform="translate(3898 -6548)">
	<rect id="Rectangle_8338" x="-3898" y="6548" class="st0" width="80" height="80"/>
	<path id="mysql-icon" class="st1" d="M-3831.4,6604.9c-2.8-0.2-5.7,0.2-8.3,1.2c-0.6,0.3-1.7,0.3-1.8,1.1c0.3,0.3,0.4,0.9,0.7,1.4
		c0.6,1,1.3,1.9,2.2,2.6l2.7,2c1.7,1,3.6,1.6,5.2,2.6c0.9,0.6,1.9,1.4,2.8,2c0.5,0.3,0.8,0.9,1.4,1.1v-0.1c-0.3-0.4-0.4-0.9-0.7-1.4
		l-1.3-1.2c-1.3-1.7-2.8-3.1-4.5-4.3c-1.4-0.9-4.4-2.2-4.9-3.8l-0.1-0.1c1-0.1,2-0.4,3-0.7c1.5-0.4,2.8-0.3,4.3-0.7l2.1-0.6v-0.4
		c-0.8-0.8-1.3-1.8-2.1-2.5c-2.2-1.9-4.6-3.7-7.1-5.3c-1.3-0.9-3.1-1.4-4.5-2.1c-0.5-0.3-1.4-0.4-1.7-0.8c-0.7-1-1.3-2.1-1.8-3.3
		l-3.5-7.4c-0.6-1.7-1.4-3.3-2.2-4.9c-4.4-7.3-9.2-11.7-16.6-16c-1.7-0.8-3.6-1.4-5.5-1.8l-3.2-0.2c-0.7-0.4-1.4-0.9-2-1.5
		c-2.4-1.5-8.8-4.9-10.6-0.5c-1.2,2.8,1.7,5.5,2.7,6.9c0.8,1,1.6,2.1,2.2,3.2c0.3,0.7,0.4,1.5,0.7,2.3c0.6,2,1.4,3.9,2.2,5.7
		c0.5,0.9,1,1.8,1.6,2.6c0.3,0.5,0.9,0.7,1.1,1.5c-0.6,0.9-0.6,2.1-1,3.2c-1.5,4.8-0.9,10.8,1.2,14.4c0.7,1.1,2.3,3.4,4.5,2.5
		c1.9-0.8,1.5-3.2,2.1-5.3c0.1-0.5,0-0.9,0.3-1.2v0.1l1.8,3.5c1.5,2.2,3.4,4.1,5.6,5.7c1,0.8,1.8,2.1,3.1,2.6v-0.1h-0.1
		c-0.3-0.3-0.6-0.6-1-0.9c-0.8-0.8-1.6-1.6-2.2-2.6c-1.8-2.5-3.4-5.1-4.8-7.8c-0.7-1.3-1.3-2.8-1.8-4.1c-0.3-0.5-0.3-1.3-0.7-1.5
		c-0.8,0.9-1.5,1.9-2.1,2.9c-0.8,1.8-0.9,4.1-1.2,6.4c-0.2,0-0.1,0-0.2,0.1c-1.4-0.3-1.8-1.8-2.4-2.9c-1.3-3.7-1.5-7.7-0.4-11.4
		c0.3-0.9,1.6-3.7,1.1-4.6c-0.3-0.8-1.1-1.3-1.6-1.9c-0.6-0.9-1.1-1.8-1.5-2.7c-1-2.4-1.5-5-2.7-7.4c-0.6-1.2-1.3-2.3-2.1-3.3
		c-0.9-1-1.7-2.1-2.4-3.3c-0.2-0.5-0.5-1.2-0.2-1.8c0.1-0.3,0.3-0.5,0.6-0.6c0.6-0.5,2.1,0.1,2.7,0.4c1.5,0.6,2.9,1.3,4.3,2.1
		c0.6,0.4,1.2,1.2,2,1.5h0.9c1.4,0.3,2.9,0.1,4.2,0.5c2.2,0.7,4.3,1.7,6.2,3c5.7,3.6,10.3,8.6,13.4,14.6c0.5,1,0.7,1.9,1.2,2.9
		c0.9,2.1,2,4.2,2.9,6.3c0.8,2,1.8,3.9,3.1,5.7c0.6,0.9,3.2,1.4,4.4,1.8c1,0.3,2,0.7,3,1.2c1.5,0.9,2.9,1.9,4.3,2.9
		C-3833.7,6603-3831.5,6604-3831.4,6604.9L-3831.4,6604.9z M-3875.2,6567.8c-0.6,0-1.2,0.1-1.8,0.2v0.1h0.1c0.4,0.6,0.9,1.2,1.4,1.8
		l1,2l0.1-0.1c0.6-0.5,1-1.3,0.9-2.1c-0.2-0.3-0.4-0.6-0.5-0.9C-3874.3,6568.3-3874.9,6568.1-3875.2,6567.8L-3875.2,6567.8z"/>
</g>
</svg>
