<?xml version="1.0" encoding="utf-8"?>
<!-- Generator: Adobe Illustrator 23.0.2, SVG Export Plug-In . SVG Version: 6.00 Build 0)  -->
<svg version="1.1" id="Layer_1" xmlns="http://www.w3.org/2000/svg" xmlns:xlink="http://www.w3.org/1999/xlink" x="0px" y="0px"
	 viewBox="0 0 80 80" style="enable-background:new 0 0 80 80;" xml:space="preserve">
<style type="text/css">
	.st0{fill:#FFFFFF;fill-opacity:0;}
	.st1{fill:#FFFFFF;stroke:#FFFFFF;stroke-miterlimit:10;}
	.st2{fill-rule:evenodd;clip-rule:evenodd;fill:#FFFFFF;}
	.st3{clip-path:url(#SVGID_2_);}
</style>
<g id="node_js_logo" transform="translate(3938 -5798)">
	<rect id="Rectangle_8338" x="-3938" y="5798" class="st0" width="80" height="80"/>
	<g id="Group_12352" transform="translate(-4014.258 5658.739)">
		<g id="Group_12345" transform="translate(107.53 191.799)">
			<path id="Path_21274" class="st1" d="M8.3,18.7c-0.3,0-0.5-0.1-0.7-0.2l-2.3-1.4c-0.3-0.2-0.2-0.3-0.1-0.3c0.4-0.1,0.7-0.3,1-0.5
				c0.1,0,0.1,0,0.2,0l1.8,1c0.1,0,0.1,0,0.2,0l6.9-4c0.1,0,0.1-0.1,0.1-0.2V5.4c0-0.1,0-0.1-0.1-0.2l-6.9-4c-0.1,0-0.1,0-0.2,0
				l-6.9,4c-0.1,0-0.1,0.1-0.1,0.2v7.9c0,0.1,0,0.1,0.1,0.2l1.9,1.1c1,0.5,1.6-0.1,1.6-0.7V6.1c0-0.1,0.1-0.2,0.2-0.2c0,0,0,0,0,0
				h0.9C6,5.9,6.1,6,6.1,6.1l0,0v7.8c0.1,1-0.6,2-1.6,2.1c-0.1,0-0.3,0-0.4,0c-0.6,0-1.1-0.1-1.6-0.4l-1.8-1C0.3,14.3,0,13.8,0,13.3
				V5.4c0-0.5,0.3-1,0.7-1.2l6.9-4c0.4-0.2,1-0.2,1.4,0l6.9,4c0.4,0.3,0.7,0.7,0.7,1.2v7.9c0,0.5-0.3,1-0.7,1.3l-6.9,4
				C8.8,18.6,8.5,18.7,8.3,18.7z"/>
			<path id="Path_21275" class="st1" d="M10.4,13.3c-3,0-3.6-1.4-3.6-2.5c0-0.1,0.1-0.2,0.2-0.2h0h0.9c0.1,0,0.2,0.1,0.2,0.2
				c0.1,0.9,0.5,1.4,2.3,1.4c1.4,0,2.1-0.3,2.1-1.1c0-0.4-0.2-0.8-2.4-1C8.2,9.8,7,9.4,7,7.9c0-1.4,1.2-2.2,3.1-2.2
				c2.2,0,3.3,0.8,3.4,2.4c0,0.1-0.1,0.2-0.2,0.2c0,0,0,0,0,0h-0.9c-0.1,0-0.2-0.1-0.2-0.2c-0.2-0.9-0.7-1.3-2.1-1.3
				c-1.6,0-1.8,0.5-1.8,1c0,0.5,0.2,0.6,2.3,0.9c2.1,0.3,3.1,0.7,3.1,2.2S12.6,13.3,10.4,13.3z"/>
		</g>
		<g id="Group_12346" transform="translate(125.182 195.437)">
			<path id="Path_21276" class="st1" d="M2.6,1.3c0,0.7-0.6,1.3-1.3,1.3S0,2.1,0,1.3C0,0.6,0.6,0,1.3,0C2,0,2.6,0.6,2.6,1.3z
				 M0.2,1.3c0,0.6,0.5,1.1,1.1,1.1s1.1-0.5,1.1-1.1S1.9,0.2,1.3,0.2c0,0,0,0,0,0C0.7,0.2,0.2,0.7,0.2,1.3L0.2,1.3z M0.8,0.6h0.5
				c0.2,0,0.5,0,0.5,0.4c0,0.2-0.1,0.3-0.3,0.4c0.2,0,0.2,0.1,0.2,0.3c0,0.1,0,0.3,0.1,0.4H1.6c0-0.1-0.1-0.4-0.1-0.5
				c0-0.1,0-0.1-0.2-0.1H1.1v0.6H0.8L0.8,0.6z M1.1,1.2h0.2c0.1,0,0.2-0.1,0.2-0.2c0,0,0,0,0,0c0-0.2-0.1-0.2-0.2-0.2H1.1L1.1,1.2z"
				/>
		</g>
		<path id="Path_21277" class="st2" d="M94.6,179.6c0-0.3-0.2-0.6-0.4-0.8l-7.3-4.2c-0.1-0.1-0.3-0.1-0.4-0.1h-0.1
			c-0.1,0-0.3,0-0.4,0.1l-7.3,4.2c-0.3,0.2-0.4,0.4-0.4,0.8l0,11.3c0,0.2,0.1,0.3,0.2,0.4c0.1,0.1,0.3,0.1,0.4,0l4.3-2.5
			c0.3-0.2,0.4-0.4,0.4-0.8v-5.3c0-0.3,0.2-0.6,0.4-0.8l1.8-1.1c0.1-0.1,0.3-0.1,0.4-0.1c0.2,0,0.3,0,0.4,0.1l1.8,1.1
			c0.3,0.2,0.4,0.4,0.4,0.8v5.3c0,0.3,0.2,0.6,0.4,0.8l4.3,2.5c0.1,0.1,0.3,0.1,0.4,0c0.1-0.1,0.2-0.2,0.2-0.4L94.6,179.6z"/>
		<path id="Path_21278" class="st2" d="M129.6,164.1c-0.2-0.1-0.5,0-0.6,0.2c0,0.1-0.1,0.1-0.1,0.2v11.2c0,0.2-0.1,0.3-0.3,0.3
			c-0.1,0-0.1,0-0.2,0l-1.8-1c-0.3-0.2-0.6-0.2-0.9,0l-7.3,4.2c-0.3,0.2-0.4,0.4-0.4,0.8v8.4c0,0.3,0.2,0.6,0.4,0.8l7.3,4.2
			c0.3,0.2,0.6,0.2,0.9,0l7.3-4.2c0.3-0.2,0.4-0.4,0.4-0.8v-20.9c0-0.3-0.2-0.6-0.5-0.8L129.6,164.1z M128.9,185.4
			c0,0.1,0,0.2-0.1,0.2l-2.5,1.4c-0.1,0-0.2,0-0.2,0l-2.5-1.4c-0.1,0-0.1-0.1-0.1-0.2v-2.9c0-0.1,0-0.2,0.1-0.2l2.5-1.4
			c0.1,0,0.2,0,0.2,0l2.5,1.4c0.1,0,0.1,0.1,0.1,0.2L128.9,185.4z"/>
		<g id="Group_12347" transform="translate(137.963 174.595)">
			<path id="Path_21279" class="st2" d="M15.8,7.9c0.3-0.2,0.4-0.4,0.4-0.8v-2c0-0.3-0.2-0.6-0.4-0.8L8.6,0.1C8.3,0,8,0,7.7,0.1
				L0.4,4.3C0.2,4.5,0,4.8,0,5.1v8.4c0,0.3,0.2,0.6,0.4,0.8l7.2,4.1c0.3,0.2,0.6,0.2,0.9,0l4.4-2.4c0.2-0.1,0.3-0.4,0.2-0.6
				c0-0.1-0.1-0.1-0.2-0.2L5.6,11c-0.1-0.1-0.2-0.2-0.2-0.4V7.9c0-0.2,0.1-0.3,0.2-0.4l2.3-1.3c0.1-0.1,0.3-0.1,0.4,0l2.3,1.3
				c0.1,0.1,0.2,0.2,0.2,0.4V10c0,0.2,0.2,0.4,0.4,0.4c0.1,0,0.2,0,0.2-0.1L15.8,7.9z"/>
			<path id="Path_21280" class="st2" d="M8,7.5c0.1,0,0.1,0,0.2,0l1.4,0.8c0.1,0,0.1,0.1,0.1,0.1V10c0,0.1,0,0.1-0.1,0.1L8.2,11
				c-0.1,0-0.1,0-0.2,0l-1.4-0.8c-0.1,0-0.1-0.1-0.1-0.1V8.4c0-0.1,0-0.1,0.1-0.1L8,7.5z"/>
		</g>
		<g id="Group_12351" transform="translate(98.195 174.64)">
			<path id="Path_21281" class="st1" d="M8.6,0.1C8.3,0,8,0,7.7,0.1L0.5,4.3C0.2,4.4,0,4.7,0,5l0,8.4c0,0.3,0.2,0.6,0.4,0.8l7.2,4.2
				c0.3,0.2,0.6,0.2,0.9,0l7.3-4.1c0.3-0.2,0.4-0.4,0.4-0.8l0-8.4c0-0.3-0.2-0.6-0.4-0.8L8.6,0.1z"/>
			<g>
				<defs>
					<path id="SVGID_1_" d="M8.6,0.1C8.3,0,8,0,7.7,0.1L0.5,4.3C0.2,4.4,0,4.7,0,5l0,8.4c0,0.3,0.2,0.6,0.4,0.8l7.2,4.2
						c0.3,0.2,0.6,0.2,0.9,0l7.3-4.1c0.3-0.2,0.4-0.4,0.4-0.8l0-8.4c0-0.3-0.2-0.6-0.4-0.8L8.6,0.1z"/>
				</defs>
				<use xlink:href="#SVGID_1_"  style="overflow:visible;fill:#FFFFFF;"/>
				<clipPath id="SVGID_2_">
					<use xlink:href="#SVGID_1_"  style="overflow:visible;"/>
				</clipPath>
				<g id="Group_12350" transform="translate(0 0)" class="st3">
					<g id="Group_12348" transform="translate(-0.061 0)">
						<path id="Path_21282" class="st1" d="M7.8,0.1L0.5,4.2C0.2,4.4,0.1,4.7,0,5l0,8.4c0,0.2,0.1,0.4,0.2,0.6L8.4,0
							C8.2,0,8,0,7.8,0.1z"/>
						<path id="Path_21283" class="st1" d="M8.4,18.4c0.1,0,0.1,0,0.2-0.1l7.3-4.1c0.3-0.2,0.4-0.4,0.5-0.8l0-8.4
							c0-0.2-0.1-0.4-0.3-0.6L8.4,18.4z"/>
						<path id="Path_21284" class="st1" d="M15.9,4.3L8.7,0.1C8.6,0.1,8.5,0,8.4,0L0.2,13.9c0.1,0.1,0.2,0.1,0.2,0.2l7.2,4.2
							c0.2,0.1,0.4,0.1,0.7,0.1l7.7-13.9C16,4.4,16,4.4,15.9,4.3z"/>
					</g>
					<g id="Group_12349" transform="translate(-0.061 -1.421)">
						<path id="Path_21285" class="st1" d="M16.3,14.9l0-8.4c0-0.3-0.2-0.6-0.5-0.8L8.7,1.5c-0.1,0-0.2-0.1-0.3-0.1l7.9,13.6
							C16.3,15,16.3,14.9,16.3,14.9z"/>
						<path id="Path_21286" class="st1" d="M0.5,5.7C0.2,5.8,0.1,6.1,0,6.4l0,8.3c0,0.3,0.2,0.6,0.5,0.8l7.2,4.2
							c0.2,0.1,0.4,0.1,0.6,0.1L0.5,5.7L0.5,5.7z"/>
						<path id="Path_21287" class="st1" d="M7.6,0L7.5,0.1L7.6,0L7.6,0z"/>
						<path id="Path_21288" class="st1" d="M15.8,15.6c0.2-0.1,0.4-0.3,0.4-0.6L8.4,1.4c-0.2,0-0.4,0-0.6,0.1L0.6,5.6l7.7,14.2
							c0.1,0,0.2-0.1,0.3-0.1L15.8,15.6z"/>
						<path id="Path_21289" class="st1" d="M16.5,15.5L16.5,15.5L16.5,15.5L16.5,15.5z"/>
						<path id="Path_21290" class="st1" d="M15.8,15.6l-7.3,4.1c-0.1,0.1-0.2,0.1-0.3,0.1l0.1,0.3l8.1-4.6v-0.1l-0.2-0.3
							C16.2,15.3,16.1,15.5,15.8,15.6z"/>
						<path id="Path_21291" class="st1" d="M15.8,15.6l-7.3,4.1c-0.1,0.1-0.2,0.1-0.3,0.1l0.1,0.3l8.1-4.6v-0.1l-0.2-0.3
							C16.2,15.3,16.1,15.5,15.8,15.6z"/>
					</g>
				</g>
				<use xlink:href="#SVGID_1_"  style="overflow:visible;fill:none;stroke:#FFFFFF;stroke-miterlimit:10;"/>
			</g>
		</g>
	</g>
</g>
</svg>
