<?xml version="1.0" encoding="utf-8"?>
<!-- Generator: Adobe Illustrator 23.0.2, SVG Export Plug-In . SVG Version: 6.00 Build 0)  -->
<svg version="1.1" id="Layer_1" xmlns="http://www.w3.org/2000/svg" xmlns:xlink="http://www.w3.org/1999/xlink" x="0px" y="0px"
	 viewBox="0 0 80 80" style="enable-background:new 0 0 80 80;" xml:space="preserve">
<style type="text/css">
	.st0{fill:#FFFFFF;fill-opacity:0;}
	.st1{fill:#FFFFFF;}
</style>
<g id="oracle_logo" transform="translate(-8784 10695)">
	<rect id="Rectangle_3172" x="8784" y="-10695" class="st0" width="80" height="80"/>
	<path id="Path_22116" class="st1" d="M8844.2-10642.8v5c0,3.9-9.4,7-20.2,7c-10.8,0-20.2-3.2-20.2-7v-5c4.9,3.5,14.1,4.6,20.2,4.6
		C8830.1-10638.2,8839.3-10639.3,8844.2-10642.8z M8824-10649.7c-6.1,0-15.3-1.1-20.2-4.6v4.9c0,3.9,9.4,7,20.2,7
		c10.8,0,20.2-3.2,20.2-7v-4.9C8839.3-10650.7,8830-10649.7,8824-10649.7z M8824-10679.2c-10.8,0-20.2,3.2-20.2,7s9.4,7,20.2,7
		c10.8,0,20.2-3.2,20.2-7S8834.8-10679.2,8824-10679.2z M8824-10661.1c-6.1,0-15.3-1.1-20.2-4.6v4.9c0,3.9,9.4,7,20.2,7
		c10.8,0,20.2-3.2,20.2-7v-4.9C8839.3-10662.2,8830-10661.1,8824-10661.1z"/>
</g>
</svg>
