<?xml version="1.0" encoding="utf-8"?>
<!-- Generator: Adobe Illustrator 16.0.0, SVG Export Plug-In . SVG Version: 6.00 Build 0)  -->
<!DOCTYPE svg PUBLIC "-//W3C//DTD SVG 1.1//EN" "http://www.w3.org/Graphics/SVG/1.1/DTD/svg11.dtd">
<svg version="1.1" id="Layer_1" xmlns="http://www.w3.org/2000/svg" xmlns:xlink="http://www.w3.org/1999/xlink" x="0px" y="0px"
	 width="80px" height="80px" viewBox="0 0 80 80" enable-background="new 0 0 80 80" xml:space="preserve">
<g id="php_logo" transform="translate(3681 -5744)">
	<rect id="Rectangle_3172" x="-3681" y="5744" fill="#FFFFFF" fill-opacity="0" width="80" height="80"/>
	<g id="Group_12353" transform="translate(-3679.496 5641.695)">
		<path id="Path_21293" fill="#FFFFFF" d="M29.33,140.009c-0.083,0.659-0.241,1.307-0.471,1.931c-0.339,1.117-1.295,1.938-2.452,2.1
			c-1.323,0.194-2.672,0.215-4.091,0.315c0.473-2.438,0.918-4.733,1.378-7.1c1.259,0.046,2.511,0.013,3.742,0.158
			C28.949,137.589,29.509,138.396,29.33,140.009z"/>
		<path id="Path_21294" fill="#FFFFFF" d="M38.55,125.14c-16.569,0-30,7.7-30,17.2c0,9.5,13.431,17.2,30,17.2
			c16.569,0,30-7.699,30-17.2C68.55,132.84,55.119,125.14,38.55,125.14z M30.271,145.424c-1.234,0.944-2.746,1.454-4.3,1.449
			c-1.25,0.045-2.5,0.031-3.751,0.025c-0.293,0-0.427,0.057-0.486,0.387c-0.237,1.34-0.515,2.674-0.783,4.029h-3.64
			c1.081-5.559,2.158-11.103,3.233-16.63c0.124-0.008,0.21-0.018,0.3-0.018c2.428,0,4.857-0.021,7.285,0.026
			c0.71,0.022,1.414,0.146,2.089,0.37c1.755,0.509,2.96,2.118,2.957,3.945C33.33,141.496,32.243,143.899,30.271,145.424
			L30.271,145.424z M44.788,146.89c-1.131,0.021-2.263,0.014-3.456,0.014c0.188-0.973,0.365-1.899,0.543-2.836
			c0.314-1.651,0.657-3.3,0.93-4.958c0.189-1.157-0.207-1.652-1.378-1.715s-2.321-0.014-3.525-0.014l-1.849,9.5h-3.618
			c1.08-5.553,2.155-11.083,3.233-16.628h3.618c-0.283,1.464-0.563,2.912-0.853,4.417c0.282,0,0.537,0,0.792,0
			c1.381,0.031,2.764,0.019,4.137,0.117c0.62,0.067,1.225,0.236,1.789,0.5c0.932,0.361,1.521,1.286,1.455,2.283
			c-0.066,1.098-0.209,2.189-0.426,3.267c-0.345,1.927-0.738,3.845-1.127,5.763C45.027,146.711,44.882,146.888,44.788,146.89
			L44.788,146.89z M58.512,145.515c-1.217,0.891-2.688,1.367-4.195,1.358c-1.248,0.043-2.5,0.033-3.748,0.024
			c-0.307,0-0.418,0.085-0.473,0.399c-0.24,1.34-0.517,2.671-0.785,4.025h-3.643l3.232-16.634c0.1-0.01,0.176-0.023,0.246-0.023
			c2.457,0,4.912-0.025,7.367,0.029c0.738,0.026,1.469,0.166,2.164,0.415c1.707,0.515,2.868,2.096,2.846,3.879
			C61.703,141.536,60.566,143.999,58.512,145.515L58.512,145.515z M55.771,137.4c-1.222-0.132-2.461-0.106-3.717-0.15
			c-0.461,2.364-0.906,4.664-1.373,7.066c1.252-0.048,2.416-0.034,3.567-0.153c1.319-0.049,2.479-0.891,2.937-2.13
			c0.252-0.647,0.424-1.323,0.51-2.013C57.878,138.373,57.3,137.564,55.771,137.4z"/>
	</g>
</g>
</svg>
