<?xml version="1.0" encoding="utf-8"?>
<!-- Generator: Adobe Illustrator 16.0.0, SVG Export Plug-In . SVG Version: 6.00 Build 0)  -->
<!DOCTYPE svg PUBLIC "-//W3C//DTD SVG 1.1//EN" "http://www.w3.org/Graphics/SVG/1.1/DTD/svg11.dtd">
<svg version="1.1" id="Layer_1" xmlns="http://www.w3.org/2000/svg" xmlns:xlink="http://www.w3.org/1999/xlink" x="0px" y="0px"
	 width="800px" height="800px" viewBox="0 0 800 800" enable-background="new 0 0 800 800" xml:space="preserve">
<g id="postgre_logo" transform="translate(3716 -6575)">
	<rect id="Rectangle_3172" x="-3716" y="6575" fill="#FFFFFF" fill-opacity="0" width="800" height="800"/>
	<g id="Group_12370" transform="translate(-3706.173 6585.022)">
		<g id="Group_12358" transform="translate(1.08 -0.022)">
			<path id="Path_21343" fill="#252B33" d="M533.162,526.999c4-32,3-36,26-31l6,1c19,1,38-2,56-9c30-14,48-37,18-31
				c-68,14-73-9-73-9c72-108,102-242,76-275c-70-90-192-47-194-46h-1c-15-3-30-5-45-5c-26-1-51,6-72,21c0,0-217.001-90-207.001,113
				c2,43,62,326,133,240c26-31,51-58,51-58c13,9,28,12,43,11l1-1c0,4,0,8,0,12c-18,20-13,24-49,32c-37,8-15,21-1,25
				c31,10,65-1,84-27l-1,4c7,6,7,41,8,67c0,21,2,42,8,63c5,14,11,50,59,40C499.162,654.999,530.162,641.999,533.162,526.999"/>
			<path id="Path_21344" fill="#FCFCFC" d="M443.162,689.999c-32,0-54-18-66-54c0-1-1-3-1-4c-7-23-10-47-9-71c0-5,0-10,0-15
				c0-3,0-6,0-10c-22,9-47,11-71,4c-12-3-23-9-31-18c-14,13-33,17-51,11c-77-24-115-256-116-276c-3-64,14-109,52-135
				c58-41,145.001-18,178.001-6c23-13,49-20,75-19c14,0,29,1,43,4c36-12,148-31,217,57c36,46-1,179-58,278c10,0,20-2,30-4
				c33-7,42,13,44,19c10,31-33,54-47,60c-22,9-45,13-68,12h-5c0,1,0,2,0,3v4c-3,118-35,147-93,160
				C457.162,688.999,450.162,689.999,443.162,689.999z M411.162,490.999c4,18,6,36,6,55c0,5,0,9,0,14c0,19,2,37,6,55c1,2,1,4,2,6
				c5,16,7,23,29,18c30-6,51-11,54-112l27,1l-27-4l1-6c2-19,4-34,17-43c8-5,17-7,26-6c-5-5-8-11-9-17l-2-10l6-9
				c71-106,91-226,77-244c-56-71-153-42-164-39h-3l-9,2l-5-1c-13-3-27-4-40-4c-20-1-40,5-56,16l-11,9l-13-5
				c-28-11-104.001-33-144.001-4c-22,16-32,47-30,92c3,57,51,226,81,232c3-2,5-4,7-7c26-32,51-58,52-59l15-15l18,12c6,4,13,6,20,7
				l41-35l-7,60c0,2,0,4,0,6v2l65-91L411.162,490.999z"/>
		</g>
		<path id="Path_21345" fill="#FFFFFF" d="M640.443,455.197c-68,14-73-9-73-9c72-106,102-240,76-273c-70-90-192-47-194-46h-1
			c-15-3-30-5-45-5c-26-1-51,6-72,21c0,0-217-90-207,113c2,43,62,326,133,240c26-31,51-58,51-58c13,9,28,12,43,11l1-1c0,4,0,8,0,12
			c-18,20-13,24-49,32c-37,8-15,21-1,25c31,10,65-1,84-27l-1,4c7,6,12,37,11,66s-1,48,4,64s11,50,59,40c40-9,61-31,64-68
			c2-26,7-23,7-46l4-11c4-36,1-47,25-42l6,1c19,1,38-2,56-9C652.443,473.197,670.443,449.197,640.443,455.197L640.443,455.197z"/>
		<g id="Group_12365" transform="translate(2.718 1.63)">
			<g id="Group_12361">
				<g id="Group_12359">
					<path id="Path_21346" stroke="#F0F0F2" stroke-miterlimit="10" d="M443.904,671.867c-40,0-53-32-59-45c-8-19-9-91-8-153
						c0-5,4-8,9-8s8,4,8,9c-2,70,1,133,6,147c6,15,17,42,59,33c36-8,49-21,55-55l15-117c1-5,5-8,9-7c5,1,8,5,7,9l-15,118
						c-7,41-25,60-68,69C457.904,671.867,450.904,671.867,443.904,671.867z M226.905,517.867c-4,0-7-1-10-2c-63-21-102-235-104-262
						c-3-58,12-98,44-121c64-45,170.001-2,175.001,0c4,2,6,7,4,11s-6,6-11,4c0,0-102.001-41-158.001-1c-27,19-40,55-37,106
						c2,38,44,231,92,247c3,1,12,4,26-12c26-31,49.001-56,50.001-56c3-4,8-4,12-1s4,8,1,12l-1,1c0,0-24,25-49,55
						C252.905,509.867,240.905,516.867,226.905,517.867z M564.904,451.867c-5,0-8-4-8-8c0-2,0-3,1-5c72-107,97-236,76-264
						c-64-82-174-47-184-44c0,0-1,0-1,1c-4,1-9-1-10-4c-2-4,0-8,3-11c0,0,1,0,2-1l0,0h1c21-7,134-38,202,49c31,39-7,183-75,284
						C569.904,450.867,567.904,451.867,564.904,451.867z"/>
				</g>
				<g id="Group_12360" transform="translate(15.225 0.599)">
					<path id="Path_21347" stroke="#F0F0F2" stroke-miterlimit="10" d="M553.929,501.258c-10,1-21-1-30-6c-5-3-8-8-9-13
						c-2-32,15-38,25-41c-1-2-3-4-4-6c-8-9-14-19-18-30c-1-2-4-7-7-13c-17-31-54-97-30-130c11-15,32-22,63-18c-10-29-55-116-158-117
						c-28-2-56,9-77,29c-44,43-42,123-42,123c0,5-4,8-8,9c-5,0-9-4-9-8s-2-87,47-136c23-23,56-36,89-34c128,2,174,124,176,141
						c1,5-2,10-7,11h-3c-21-3-48-4-59,10c-17,25,17,86,31,112c4,7,6,12,8,15c4,9,9,18,16,26c4,5,8,10,10,17l0,0c2,3,14,13,62,3
						c14-3,22,0,25,7c5,15-23,32-38,40C589.929,498.258,571.929,501.258,553.929,501.258z M530.929,481.258c6,6,47,5,69-5
						c9-4,17-9,24-15l0,0c-35,7-59,6-73-3c-1-1-2-1-2-2c-1,0-3,1-3,1C537.929,459.258,529.929,461.258,530.929,481.258z"/>
				</g>
			</g>
			<g id="Group_12364" transform="translate(15.007 14.206)">
				<g id="Group_12362" transform="translate(0.863 19.513)">
					<path id="Path_21348" stroke="#F0F0F2" stroke-miterlimit="10" d="M307.734,492.338c-9,0-18-2-26-4c-3,0-25.999-7-25.999-22
						c0-14,20-18,26.999-19c26-5,27-7,35-18c3-3,6-6,10-11c0,0,0,0,1-1c7-9,20-12,31-6c9,4,16,12,18,22c3,8,1,18-4,25
						C359.734,479.338,334.734,492.338,307.734,492.338z M274.734,467.338c3,2,7,4,11,5c22,6,53,6,75-24c2-3,2-7,1-11c-1-5-4-9-9-11
						c-4-2-7-3-12,3c0,0,0,0-1,1c-4,4-6,7-8,10c-10,13-15,17-45,24C281.734,464.338,277.734,465.338,274.734,467.338
						L274.734,467.338z"/>
				</g>
				<g id="Group_12363">
					<path id="Path_21349" stroke="#F0F0F2" stroke-miterlimit="10" d="M333.968,451.721c-4,0-8-3-8-7c0-1,0-2,0-3c-20-1-39-9-53-24
						c-19-20-27-46-23-73c3-23,3-46,2-69c0-4,0-6,0-8c-2-15,37-32,61-35c29-3,47,10,53,36c15,69,1,100-9,123c-2,4-4,8-5,12l-1,4
						c-5,11-8,23-8,35c1,5-2,9-7,10C334.968,451.721,333.968,451.721,333.968,451.721z M266.968,268.721c0,1,0,3,0,5c2,24,1,49-2,73
						c-3,22,4,43,19,59c11,12,27,19,43,19c2-8,5-16,8-24l1-3c2-5,3-9,5-13c10-21,22-48,8-112c-1-11-9-20-20-22
						C305.968,244.721,273.968,262.721,266.968,268.721z"/>
				</g>
			</g>
		</g>
		<g id="Group_12368" transform="translate(23.964 18.028)">
			<g id="Group_12366" transform="translate(0 0.419)">
				<path id="Path_21350" fill="#FFFFFF" d="M307.118,262.22c0,3,5,10,12,11c6,1,11-2,13-7c0-3-5-6-12-7
					S307.118,260.22,307.118,262.22z"/>
				<path id="Path_21351" d="M321.118,276.22c-1,0-2,0-2,0c-5-1-10-3-12-7c-2-2-3-5-3-7c0-1,1-3,2-3c5-3,10-4,15-3c5,0,10,2,13,6
					c1,1,1,3,1,4C333.118,272.22,327.118,276.22,321.118,276.22z M310.118,263.22c2,4,5,7,10,8c4,0,8-2,10-5c-3-2-6-3-10-4
					S313.118,261.22,310.118,263.22z M309.118,263.22L309.118,263.22z"/>
			</g>
			<g id="Group_12367" transform="translate(19.051)">
				<path id="Path_21352" d="M502.578,257.449c0,3-5,10-12,11c-6,1-11-2-14-8c0-3,5-6,12-7S502.578,254.449,502.578,257.449z"/>
				<path id="Path_21353" d="M488.578,269.449c-3,0-6-1-9-3c-2-1-3-3-4-5c0-5,6-8,13-9c5-1,9,0,13,2c1,1,1,2,2,3c1,4-6,12-13,13
					C489.578,269.449,489.578,269.449,488.578,269.449z M493.578,255.449c-1,0-3,0-4,0c-7,1-11,4-11,5c0,2,1,3,3,4c3,2,6,3,9,3
					c5-1,9-5,11-10l0,0c0,0,0-1-1-1C498.578,255.449,495.578,255.449,493.578,255.449L493.578,255.449z"/>
			</g>
		</g>
		<g id="Group_12369" transform="translate(45.888 15.779)">
			<path id="Path_21354" d="M509.435,418.208c-5,0-8-4-8-8c0-2,0-3,1-5c16-24,13-50,10-74c-1-11-1-21-1-32c0-9,1-19,3-28
				c2-10,3-20,2-31c0-4,3-8,8-8s9,3,9,8c0,11,0,23-3,34c-1,9-2,17-3,26c0,10,1,19,2,29c3,26,7,55-13,85
				C515.435,416.208,512.435,418.208,509.435,418.208z"/>
		</g>
	</g>
</g>
</svg>
