<?xml version="1.0" encoding="utf-8"?>
<!-- Generator: Adobe Illustrator 23.0.2, SVG Export Plug-In . SVG Version: 6.00 Build 0)  -->
<svg version="1.1" id="Layer_1" xmlns="http://www.w3.org/2000/svg" xmlns:xlink="http://www.w3.org/1999/xlink" x="0px" y="0px"
	 viewBox="0 0 80 80" style="enable-background:new 0 0 80 80;" xml:space="preserve">
<style type="text/css">
	.st0{fill:#FFFFFF;fill-opacity:0;}
	.st1{fill:#FFFFFF;}
	.st2{fill:#EAECEF;}
</style>
<g id="sql_server_logo" transform="translate(3179 -6626)">
	<rect id="Rectangle_3172" x="-3179" y="6626" class="st0" width="80" height="80"/>
	<g id="Group_12372" transform="translate(-3700.108 6492.563)">
		<path id="Path_21362" class="st1" d="M568.8,171.3l-12.8,4.2l-11.1,4.9l-3.1,0.8c-0.8,0.8-1.6,1.5-2.5,2.3c-1,0.8-1.9,1.6-2.6,2.2
			c-0.9,0.8-1.8,1.6-2.5,2.5c-0.8,0.9-1.4,2-1.9,3.2c-0.5,1.6-0.3,3.4,0.8,4.8c1.8,2.3,4.2,4.1,7,5.2c2,0.8,4,1.5,6.1,2.1
			c4.3,1,8.7,1.6,13.1,1.9c0.6,0,1.1,0,1.7,0c0.5-0.8,0.9-1.6,1.2-2.4c1.9-3.8,3.5-7.8,4.5-12c0.6-2.7,1-5.5,1.2-8.3
			c0.1-0.9,0.1-4.1,0-5.1c-0.1-1.5-0.2-3-0.5-4.5c0-0.1,0-0.3,0-0.4c0.6-0.2,1.1-0.4,1.7-0.5L568.8,171.3L568.8,171.3L568.8,171.3z
			 M565.8,173c0.3,1.6,0.5,3.2,0.5,4.8c0,0.2,0,0.4,0,0.7c-0.1,0-1.6-0.9-2.7-1.6c-1-0.6-2.8-1.8-3.1-2.1c-0.1-0.1-0.1-0.1,0.7-0.3
			C562.6,174.1,565.7,173,565.8,173L565.8,173z M559.3,175.2c0.3,0.1,0.6,0.3,0.8,0.5c1.9,1.2,3.8,2.3,5.9,3.3
			c0.4,0.2,0.4,0.1-0.4,0.7c-2.1,1.4-4.3,2.6-6.6,3.6c-0.5,0.2-0.9,0.4-0.9,0.4c0-0.2,0.1-0.4,0.1-0.5c0.6-2.2,1-4.5,1-6.8
			C559.3,175.2,559.3,175.2,559.3,175.2C559.3,175.2,559.3,175.2,559.3,175.2L559.3,175.2z M558,175.7c0,0.9,0,1.9-0.1,2.8
			c-0.2,1.4-0.5,2.8-0.9,4.2c-0.1,0.2-0.1,0.5-0.2,0.7c-0.6-0.5-1.2-1.1-1.8-1.7c-0.7-0.8-1.3-1.7-1.8-2.6c-0.2-0.4-0.4-0.9-0.5-1.3
			C552.9,177.6,558,175.6,558,175.7L558,175.7z M551.7,178.2C551.7,178.2,551.7,178.2,551.7,178.2c0.1,0.1,0.1,0.2,0.2,0.4
			c0.4,1,0.9,2,1.6,2.9c0.7,0.9,1.4,1.7,2.2,2.4c0.2,0.2,0.4,0.4,0.5,0.4c0.1,0.1,0.1,0-1.5,0.6c-1.8,0.7-3.8,1.4-6.1,2.1
			c-0.5,0.2-1.1,0.4-1.6,0.5c-0.1,0-0.1,0,0.2-0.4c1.5-2.5,2.7-5,3.8-7.7c0.2-0.4,0.3-0.8,0.4-0.9c0-0.1,0.1-0.2,0.2-0.3
			C551.6,178.2,551.6,178.2,551.7,178.2L551.7,178.2z M549.8,179c-0.3,0.7-0.6,1.3-0.9,2c-0.9,1.8-2,3.6-3.3,5.8
			c-0.2,0.4-0.5,0.7-0.5,0.8c0,0.1-0.1,0-0.2-0.3c-0.3-0.7-0.6-1.5-0.7-2.2c-0.1-1-0.1-1.9,0-2.9c0.1-0.6,0.1-0.6,0.4-0.7
			C545.7,180.8,549.7,178.9,549.8,179L549.8,179z M566.4,179.6v0.4c0,2.4-0.2,4.9-0.6,7.3c-0.1,0.4-0.1,0.7-0.1,0.7
			s-0.3-0.1-0.6-0.2c-1.5-0.5-3-1.1-4.4-1.9c-0.8-0.4-1.5-0.9-2.3-1.4c0,0,0.4-0.2,0.9-0.5c1.8-0.9,3.6-2,5.3-3.1
			c0.6-0.4,1.5-1,1.7-1.2L566.4,179.6L566.4,179.6z M542.5,182.5c0,0,0,0.1,0,0.4c0,0.3-0.1,0.7-0.1,1c-0.1,1.3,0.2,2.7,0.8,3.9
			c0.1,0.2,0.2,0.5,0.3,0.7c-0.1,0.1-6.5,1.9-8.5,2.5c-0.6,0.2-1.1,0.3-1.2,0.3c-0.1,0-0.1,0,0-0.2c0.5-1.8,1.4-3.5,2.8-4.8
			c0.9-1,2-1.8,3.2-2.4C540.8,183.4,542.3,182.6,542.5,182.5C542.4,182.5,542.5,182.5,542.5,182.5L542.5,182.5z M557.5,185.2
			c0.2,0.1,0.4,0.2,0.5,0.3c2.3,1.3,4.8,2.3,7.4,2.9l0.2,0l-0.3,0.2c-1.3,0.7-5.5,2.5-9.8,4.1c-0.6,0.2-1.2,0.5-1.4,0.5
			c-0.1,0-0.1,0.1-0.2,0.1c0,0,0.2-0.3,0.4-0.8c1.2-2.2,2.2-4.5,3-6.9C557.5,185.4,557.5,185.2,557.5,185.2L557.5,185.2z M556,185.7
			c0,0.2-0.1,0.3-0.2,0.4c-1,2.3-2.1,4.6-3.4,6.8c-0.4,0.6-0.7,1.1-0.7,1.1s-0.3-0.2-0.6-0.4c-1.9-1.1-3.6-2.6-5.1-4.3l-0.2-0.2
			l0.9-0.2c2.9-0.8,5.7-1.8,8.5-2.9C555.7,185.8,556,185.7,556,185.7L556,185.7z M565.5,189L565.5,189c0,0.2-0.5,2.2-0.9,3.7
			c-0.3,1.2-0.6,2.2-1.2,3.8c-0.2,0.7-0.4,1.3-0.4,1.3c0,0-0.1,0-0.1,0c-2.7-0.5-5.3-1.2-7.9-2.2c-0.7-0.3-1.6-0.7-1.7-0.8
			c0.4-0.2,0.9-0.4,1.3-0.6c4.4-1.9,9-4.1,10.5-5C565.3,189.1,565.4,189.1,565.5,189L565.5,189z M543.5,189.8c0,0-1.2,1.8-2.9,4.2
			c-0.6,0.8-1.3,1.8-1.6,2.2s-0.7,0.9-0.9,1.3l-0.4,0.6l-0.4-0.4c-0.6-0.6-1.2-1.2-1.8-1.8c-0.8-0.9-1.3-2-1.6-3.1
			c-0.1-0.5-0.1-0.7,0-0.7c0.1,0,2.7-0.6,5.1-1.2c1.3-0.3,2.9-0.7,3.5-0.8S543.5,189.8,543.5,189.8L543.5,189.8z M544.7,190.3
			l0.3,0.3c1.3,1.5,2.8,2.7,4.5,3.7c0.2,0.1,0.4,0.2,0.5,0.3c-0.1,0-6,2.1-8.7,3.1c-1.5,0.5-2.8,1-2.8,1c-0.1,0-0.1-0.1-0.2-0.1
			l-0.2-0.1l0.3-0.4c0.9-1.3,2-2.8,4.5-5.7L544.7,190.3L544.7,190.3z M552.4,195.8c0,0,0.4,0.1,1,0.3c1.2,0.4,2.4,0.8,3.6,1.1
			c1.8,0.4,3.6,0.8,5.4,0.9c0.2,0,0.3,0,0.3,0.1c-0.1,0-1.5,0.5-2.5,0.8c-1.7,0.5-6.7,2-10.9,3.2c-0.8,0.2-1.4,0.4-1.5,0.4
			c-0.1,0-0.3,0-0.4-0.1c0.2-0.2,0.3-0.4,0.5-0.6c1.4-1.7,2.7-3.4,3.9-5.3C552.2,196.2,552.4,195.8,552.4,195.8L552.4,195.8z
			 M550.7,195.8c0,0-0.7,1.1-1.9,3c-0.5,0.8-1.1,1.7-1.3,2s-0.5,0.8-0.6,1.1l-0.3,0.5l-0.1,0c-0.3-0.1-2.8-1-3.4-1.2
			c-0.8-0.3-1.5-0.7-2.3-1c-0.6-0.3-1.1-0.6-1.7-1.1c0,0,1.3-0.4,2.9-0.8c4.2-1.1,6.6-1.8,8.1-2.3
			C550.4,195.9,550.6,195.8,550.7,195.8L550.7,195.8z M562.8,198.6L562.8,198.6c0,0.1-1.5,4.4-2.1,5.8c-0.1,0.3-0.2,0.4-0.2,0.4
			c-0.2,0-2.4-0.3-3.8-0.5c-2.4-0.4-6.4-1.1-7.5-1.3l-0.2,0l1.4-0.3c3.1-0.7,4.6-1.1,6.1-1.5c1.9-0.6,3.8-1.3,5.7-2.2
			C562.3,198.8,562.6,198.7,562.8,198.6L562.8,198.6z"/>
		<path id="Path_21363" class="st1" d="M555.6,141.5c-2,0.6-3.9,1.3-5.9,2.1c-2.4,0.9-4.6,2-6.7,3.4c-0.5,0.4-0.9,0.8-1.3,1.3
			c0,0.1-0.1,0.2-0.1,0.3l1.3,1.2l3.1,1l7.3,1.3l8.4,1.4l0.1-0.7c0,0,0,0-0.1,0l-1.1-0.2l-0.2-0.4c-1.1-2-2.4-4.5-3.1-6.2
			c-0.6-1.3-1-2.6-1.4-3.9C555.7,141.6,555.7,141.5,555.6,141.5L555.6,141.5L555.6,141.5z M555.4,142L555.4,142c0,0,0.1,0.3,0.1,0.6
			c0.2,1.4,0.5,2.7,0.9,4.1c0.4,1.1,0.4,1-0.1,0.9c-1-0.3-5.4-1-8.6-1.5c-0.5-0.1-0.9-0.1-0.9-0.1c0,0,2.3-1.3,3.3-1.7
			C551.5,143.6,555.2,142.1,555.4,142L555.4,142z M546.1,146.4l0.4,0.1c3.3,0.9,6.6,1.6,10,1.9c0.3,0,0.6,0.1,0.6,0.1
			c-0.2,0.1-0.4,0.2-0.6,0.3c-1.4,0.7-2.9,1.5-3.9,2.2c-0.2,0.1-0.4,0.3-0.6,0.3c0,0-0.2,0-0.5-0.1l-0.4-0.1l-1-0.9
			c-1.7-1.7-3-2.9-3.5-3.4L546.1,146.4z M545.7,146.7l1.4,1.7c0.7,0.9,1.5,1.9,1.7,2.1c0.1,0.1,0.2,0.2,0.3,0.4c0,0-2-0.3-3-0.6
			c-1.1-0.2-1.5-0.4-2.1-0.6l-0.5-0.2v-0.1c0-0.6,0.8-1.6,2.2-2.6L545.7,146.7L545.7,146.7z M557.3,149c0,0,0.1,0.1,0.2,0.3
			c0.3,0.7,1.4,2.7,1.6,3.1c0.1,0.1,0.2,0.1-1.1-0.1c-3.3-0.5-4.3-0.7-4.3-0.7c0.1-0.1,0.1-0.1,0.2-0.1c1-0.6,2-1.3,2.9-2
			C557,149.2,557.2,149,557.3,149C557.3,149,557.3,149,557.3,149L557.3,149z"/>
		<path id="Path_21364" class="st2" d="M541.8,148.2c-0.1,0.3-0.1,0.6,0,0.8c0.2,0.4,0.5,0.8,0.9,1.1c0,0,4.3,4.2,4.8,4.8
			c2.3,2.5,3.5,5.8,3.5,9.2c0.1,2.4-0.5,4.8-1.5,6.9c-2,4.4-6.2,9.2-12.8,14.6l1-0.3c1.1-0.8,2.2-1.4,3.4-2
			c5.1-2.8,10.5-5.1,15.9-7.1c10.5-3.8,21.3-6.7,32.4-8.7l0.9-0.1l-0.1-0.2c-0.6-0.9-1.2-1.9-1.9-2.7c-1.9-2.3-4.2-4.3-6.9-5.7
			c-4.7-2.4-9.7-4.1-14.9-5c-1.2-0.2-3.7-0.7-5.8-1c-4.4-0.7-7.3-1.2-10.4-1.7c-1.1-0.2-2.8-0.5-3.9-0.7c-0.9-0.2-1.7-0.4-2.6-0.7
			C543,149.3,542,149,541.8,148.2L541.8,148.2z M544.3,150.6c0.1,0,0.2,0.1,0.4,0.1c0.4,0.1,0.8,0.3,1.4,0.4
			c0.4,0.1,0.8,0.2,1.3,0.3c0.6,0.1,1.1,0.3,1.1,0.3c0.1,0.1,1,3.2,1.4,4.4c0.1,0.5,0.2,0.8,0.2,0.8c-0.1-0.1-0.2-0.2-0.2-0.4
			c-1.3-2.2-3-4.1-5-5.6C544.6,150.9,544.4,150.7,544.3,150.6L544.3,150.6z M549,151.9c0.2,0,0.3,0,0.5,0.1c1.6,0.4,4.6,0.9,6.5,1.2
			c0.2,0,0.4,0.1,0.6,0.1c-0.1,0.1-0.2,0.1-0.3,0.2c-0.3,0.2-1.6,0.9-2,1.2c-1,0.6-1.9,1.4-2.7,2.2c-0.3,0.3-0.5,0.5-0.5,0.5
			s-0.1-0.2-0.1-0.4c-0.4-1.6-1-3.2-1.7-4.7C549.1,152.2,549.1,152.1,549,151.9C549,151.9,549,151.9,549,151.9z M557.4,153.5
			c0.2,0.3,0.3,0.7,0.3,1.1c0.4,1.4,0.5,2.9,0.5,4.4c0,0.3,0,0.6-0.1,0.8l0,0.1l-0.5-0.2c-1-0.3-2.7-0.8-4.2-1.2
			c-0.8-0.2-1.5-0.4-1.5-0.4c0.5-0.6,1.1-1.2,1.7-1.7C554.9,155.4,556.1,154.4,557.4,153.5L557.4,153.5z M558,153.6c0,0,4,0.7,5.8,1
			c1.3,0.3,3.3,0.7,3.4,0.7c0.1,0-0.1,0.1-0.8,0.4c-2.2,1-4.3,2.1-6.3,3.4c-0.5,0.3-0.9,0.6-0.9,0.6c0-0.2,0-0.4,0-0.6
			c0-1.8-0.3-3.6-1-5.3C558.1,153.8,558.1,153.7,558,153.6L558,153.6z M568.3,155.6c0,0.4-0.1,0.9-0.2,1.3c-0.6,2-1.4,3.8-2.4,5.6
			c-0.1,0.2-0.3,0.4-0.4,0.7c-0.2-0.1-0.4-0.2-0.6-0.3c-1.2-0.7-2.5-1.3-3.8-1.9c-0.4-0.2-0.7-0.3-0.7-0.3c-0.1-0.1,3-2.1,4.7-3.1
			C566.1,156.8,568.3,155.6,568.3,155.6L568.3,155.6z M569,155.8c0.1,0,1.8,0.5,2.8,0.8c2.2,0.7,4.4,1.5,6.6,2.4l0.7,0.3l-0.5,0.1
			c-3.8,0.8-7.5,2-11.1,3.4c-0.3,0.1-0.5,0.2-0.5,0.2c0-0.2,0.1-0.3,0.2-0.5c1-2,1.6-4.2,1.9-6.4C569,155.9,569,155.8,569,155.8
			L569,155.8z M551.5,159.8c0,0,1.4,0.3,2.1,0.5c1.1,0.3,3.4,1.1,3.4,1.1c0,0-0.3,0.2-0.6,0.5c-1.3,1.1-2.5,2.2-3.9,3.6
			c-0.4,0.4-0.8,0.8-0.8,0.8s0-0.1,0-0.1c0.2-1.9,0.2-3.9-0.1-5.8C551.6,160,551.5,159.8,551.5,159.8L551.5,159.8z M579.8,159.8
			c-0.3,0.5-0.7,1.1-1,1.6c-0.6,0.8-1.4,1.9-3.4,4.3c-1,1.3-2.2,2.7-2.5,3.2s-0.7,0.9-0.7,0.9c-0.1-0.1-0.2-0.3-0.3-0.4
			c-1.1-1.6-2.4-3.1-3.9-4.3c-0.3-0.2-0.6-0.5-0.7-0.6c-0.1,0-0.1-0.1-0.2-0.2c0,0,1.6-0.7,2.9-1.2c2.2-0.9,5.2-2,7.4-2.6
			C578.5,160.1,579.7,159.8,579.8,159.8L579.8,159.8z M580.5,160c0.2,0.1,0.4,0.2,0.5,0.3c2.3,1.3,4.5,3,6.5,4.8
			c0.5,0.5,1.8,1.8,1.8,1.8c0,0-0.4,0-1,0.1c-4.8,0.4-9.6,1.2-14.3,2.4c-0.3,0.1-0.6,0.1-0.7,0.1s0.4-0.4,0.8-0.8
			c2.5-2.2,4.4-4.8,5.9-7.8C580.3,160.4,580.5,160,580.5,160L580.5,160z M559,162.2c0.1,0,1.4,0.6,2.3,1.1c0.9,0.4,2.2,1.1,2.2,1.2
			c0,0-0.5,0.3-1,0.5c-1.8,0.9-3.4,1.8-5,2.8c-0.5,0.3-0.8,0.5-0.9,0.5c0,0,0,0,0.2-0.5c0.9-1.7,1.6-3.5,2-5.3
			C558.9,162.3,559,162.2,559,162.2L559,162.2z M557.7,162.4c-0.1,0.6-0.3,1.3-0.5,1.9c-0.5,1.4-1,2.7-1.7,3.9
			c-0.2,0.3-0.4,0.7-0.5,0.9l-0.2,0.4l-0.5-0.5c-0.5-0.5-1.1-1-1.8-1.3c-0.2-0.1-0.3-0.2-0.5-0.3c0-0.1,1.7-1.6,2.9-2.7
			C555.8,163.9,557.7,162.4,557.7,162.4L557.7,162.4z M565.4,165.6l0.5,0.3c1.2,0.8,2.3,1.6,3.3,2.5c0.5,0.5,1.6,1.4,1.8,1.6
			l0.1,0.1l-0.8,0.2c-4.4,1.2-7.8,2.3-11.8,3.8c-0.4,0.2-0.8,0.3-0.8,0.3c-0.1,0-0.1,0,0.9-0.9c2.4-2.2,4.6-4.7,6.5-7.5L565.4,165.6
			L565.4,165.6z M563.4,166.1c0,0-1.3,1.9-2.1,2.9c-0.9,1.3-2.6,3.4-3.8,4.7c-0.5,0.6-0.9,1-0.9,1.1s0-0.1,0-0.4
			c0-1.2-0.3-2.4-0.8-3.5c-0.2-0.4-0.3-0.6-0.2-0.6c0.2-0.2,3-1.8,4.8-2.7C561.5,167,563.4,166.1,563.4,166.1L563.4,166.1z
			 M551.2,169.1c0.2,0.1,0.3,0.2,0.5,0.3c0.6,0.3,1.1,0.7,1.7,1.1c-0.2,0.2-0.4,0.3-0.6,0.5c-0.9,0.7-2.3,1.7-3.1,2.4
			c-0.8,0.7-0.9,0.7-0.8,0.6c0.5-0.7,0.9-1.5,1.3-2.2c0.3-0.7,0.6-1.3,0.8-2C551,169.4,551.1,169.2,551.2,169.1L551.2,169.1z
			 M554.4,171.6c0,0,0.1,0.1,0.4,0.5c0.6,0.8,0.9,1.8,1.1,2.8l0,0.2l-1.3,0.5c-2.4,0.9-4.5,1.8-6,2.5c-0.4,0.2-1.1,0.5-1.6,0.8
			s-0.9,0.4-0.9,0.4s0.3-0.2,0.7-0.5c2.7-1.9,5.1-4.2,7.3-6.7C554.2,171.9,554.4,171.6,554.4,171.6L554.4,171.6z M552.9,172
			c-0.6,0.7-1.2,1.4-1.8,2c-1.8,1.8-3.8,3.5-6,4.8c-0.3,0.2-0.5,0.3-0.6,0.4c-0.1,0,0-0.1,1-1.1c0.6-0.7,1.1-1.3,1.7-2
			c0.3-0.4,0.6-0.7,1-0.9C549.6,174.2,552.9,172,552.9,172L552.9,172z"/>
	</g>
</g>
</svg>
