<?xml version="1.0" encoding="utf-8"?>
<!-- Generator: Adobe Illustrator 23.0.2, SVG Export Plug-In . SVG Version: 6.00 Build 0)  -->
<svg version="1.1" id="Layer_1" xmlns="http://www.w3.org/2000/svg" xmlns:xlink="http://www.w3.org/1999/xlink" x="0px" y="0px"
	 viewBox="0 0 80 80" style="enable-background:new 0 0 80 80;" xml:space="preserve">
<style type="text/css">
	.st0{fill:#FFFFFF;fill-opacity:0;}
	.st1{fill:#FFFFFF;}
</style>
<g id="swagger_logo" transform="translate(3448 -5777)">
	<rect id="Rectangle_3172" x="-3448" y="5777" class="st0" width="80" height="80"/>
	<path id="Path_21332" class="st1" d="M-3407.8,5790.7c-14.5-0.2-26.4,11.5-26.6,26c-0.2,14.5,11.5,26.4,26,26.6c0.1,0,0.1,0,0.2,0
		l0,0c14.5,0.1,26.3-11.6,26.4-26.2C-3381.7,5802.7-3393.3,5790.9-3407.8,5790.7z M-3416,5832.4c-3.2,0.5-5.9-0.4-6.5-3.1
		c-0.2-1-0.4-2-0.4-3.1c-0.1-1.1,0.1-2.2,0-3.3c-0.2-3-0.6-4-3.5-4.1v-3.7c0.2,0,0.4-0.1,0.6-0.1c1.6-0.1,2.2-0.6,2.6-2.1
		c0.2-0.9,0.3-1.7,0.3-2.6c0.1-1.7,0.1-3.4,0.4-5.1c0.4-2.4,1.9-3.6,4.4-3.7c0.7,0,1.4,0,2.2,0v3.3c-0.3,0-0.6,0.1-0.9,0.1
		c-2-0.1-2.1,0.6-2.3,2.3c-0.1,1.1,0,2.1,0,3.2c-0.1,1.1-0.2,2.1-0.4,3.1c-0.3,1.5-1.2,2.7-2.5,3.6c2.5,1.6,2.8,4.1,2.9,6.7
		c0.1,1.4,0,2.7,0.2,4.1c0.1,1.1,0.5,1.3,1.6,1.4c0.4,0,0.9,0,1.4,0V5832.4z M-3415.3,5819.1L-3415.3,5819.1c0,0-0.1,0-0.1,0
		c-1.2,0-2.1-0.9-2.2-2.1c0-1.2,0.9-2.1,2.1-2.2c0.1,0,0.1,0,0.2,0h0c1.2,0,2.1,1,2.1,2.2
		C-3413.2,5818.2-3414.1,5819.1-3415.3,5819.1z M-3407.9,5819.1c-1.1,0.1-2.1-0.7-2.2-1.8c0-0.1,0-0.2,0-0.3
		c-0.1-1.1,0.8-2.1,1.9-2.2c0,0,0,0,0,0c0.1,0,0.1,0,0.2,0c1.1-0.1,2.1,0.7,2.2,1.8c0,0.1,0,0.2,0,0.3c0.1,1.1-0.7,2.1-1.8,2.2
		C-3407.7,5819.1-3407.8,5819.1-3407.9,5819.1L-3407.9,5819.1z M-3400.5,5819.1L-3400.5,5819.1c-1.2,0-2.2-1-2.2-2.2c0,0,0,0,0,0
		c0-1.2,1-2.1,2.2-2.1h0c1.2,0,2.2,1,2.2,2.2C-3398.2,5818.2-3399.2,5819.1-3400.5,5819.1
		C-3400.4,5819.1-3400.4,5819.1-3400.5,5819.1L-3400.5,5819.1z M-3389.8,5818.9c-1.8,0.1-2.6,0.9-2.8,2.7c-0.1,1.2-0.1,2.3-0.2,3.5
		c0,1.3-0.1,2.6-0.3,3.8c-0.3,2.1-2.1,3.7-4.3,3.6c-0.8,0-1.5,0-2.4,0v-3.3c0.4,0,0.8-0.1,1.2-0.1c1.4,0,1.9-0.5,2-1.9
		c0.1-1.5,0.1-3.1,0.2-4.6c0.1-2.2,0.7-4.2,2.8-5.6c-1.2-0.7-2.1-1.9-2.4-3.3c-0.3-1.7-0.4-3.4-0.6-5.1c-0.1-0.9-0.1-1.7-0.2-2.6
		c-0.1-0.9-0.7-1.2-1.6-1.3c-0.5,0-1,0-1.6,0v-3.3c3.9-0.6,6.6,0.7,6.9,4.4c0.1,1.6,0.1,3.1,0.2,4.7c0,0.9,0.2,1.7,0.4,2.5
		c0.2,1.1,1.2,1.9,2.4,1.8c0.2,0,0.4,0,0.7,0.1v3.7C-3389.5,5818.8-3389.7,5818.9-3389.8,5818.9z M-3407.8,5790.7
		c-14.5-0.2-26.4,11.5-26.6,26c-0.2,14.5,11.5,26.4,26,26.6c0.1,0,0.1,0,0.2,0l0,0c14.5,0.1,26.3-11.6,26.4-26.2
		C-3381.7,5802.7-3393.3,5790.9-3407.8,5790.7z M-3416,5832.4c-3.2,0.5-5.9-0.4-6.5-3.1c-0.2-1-0.4-2-0.4-3.1
		c-0.1-1.1,0.1-2.2,0-3.3c-0.2-3-0.6-4-3.5-4.1v-3.7c0.2,0,0.4-0.1,0.6-0.1c1.6-0.1,2.2-0.6,2.6-2.1c0.2-0.9,0.3-1.7,0.3-2.6
		c0.1-1.7,0.1-3.4,0.4-5.1c0.4-2.4,1.9-3.6,4.4-3.7c0.7,0,1.4,0,2.2,0v3.3c-0.3,0-0.6,0.1-0.9,0.1c-2-0.1-2.1,0.6-2.3,2.3
		c-0.1,1.1,0,2.1,0,3.2c-0.1,1.1-0.2,2.1-0.4,3.1c-0.3,1.5-1.2,2.7-2.5,3.6c2.5,1.6,2.8,4.1,2.9,6.7c0.1,1.4,0,2.7,0.2,4.1
		c0.1,1.1,0.5,1.3,1.6,1.4c0.4,0,0.9,0,1.4,0V5832.4z M-3415.3,5819.1L-3415.3,5819.1c0,0-0.1,0-0.1,0c-1.2,0-2.1-0.9-2.2-2.1
		c0-1.2,0.9-2.1,2.1-2.2c0.1,0,0.1,0,0.2,0h0c1.2,0,2.1,1,2.1,2.2C-3413.2,5818.2-3414.1,5819.1-3415.3,5819.1z M-3407.9,5819.1
		c-1.1,0.1-2.1-0.7-2.2-1.8c0-0.1,0-0.2,0-0.3c-0.1-1.1,0.8-2.1,1.9-2.2c0,0,0,0,0,0c0.1,0,0.1,0,0.2,0c1.1-0.1,2.1,0.7,2.2,1.8
		c0,0.1,0,0.2,0,0.3c0.1,1.1-0.7,2.1-1.8,2.2C-3407.7,5819.1-3407.8,5819.1-3407.9,5819.1L-3407.9,5819.1z M-3400.5,5819.1
		L-3400.5,5819.1c-1.2,0-2.2-1-2.2-2.2c0,0,0,0,0,0c0-1.2,1-2.1,2.2-2.1h0c1.2,0,2.2,1,2.2,2.2
		C-3398.2,5818.2-3399.2,5819.1-3400.5,5819.1C-3400.4,5819.1-3400.4,5819.1-3400.5,5819.1L-3400.5,5819.1z M-3389.8,5818.9
		c-1.8,0.1-2.6,0.9-2.8,2.7c-0.1,1.2-0.1,2.3-0.2,3.5c0,1.3-0.1,2.6-0.3,3.8c-0.3,2.1-2.1,3.7-4.3,3.6c-0.8,0-1.5,0-2.4,0v-3.3
		c0.4,0,0.8-0.1,1.2-0.1c1.4,0,1.9-0.5,2-1.9c0.1-1.5,0.1-3.1,0.2-4.6c0.1-2.2,0.7-4.2,2.8-5.6c-1.2-0.7-2.1-1.9-2.4-3.3
		c-0.3-1.7-0.4-3.4-0.6-5.1c-0.1-0.9-0.1-1.7-0.2-2.6c-0.1-0.9-0.7-1.2-1.6-1.3c-0.5,0-1,0-1.6,0v-3.3c3.9-0.6,6.6,0.7,6.9,4.4
		c0.1,1.6,0.1,3.1,0.2,4.7c0,0.9,0.2,1.7,0.4,2.5c0.2,1.1,1.2,1.9,2.4,1.8c0.2,0,0.4,0,0.7,0.1v3.7
		C-3389.5,5818.8-3389.7,5818.9-3389.8,5818.9z"/>
</g>
</svg>
