<?xml version="1.0" encoding="utf-8"?>
<!-- Generator: Adobe Illustrator 16.0.0, SVG Export Plug-In . SVG Version: 6.00 Build 0)  -->
<!DOCTYPE svg PUBLIC "-//W3C//DTD SVG 1.1//EN" "http://www.w3.org/Graphics/SVG/1.1/DTD/svg11.dtd">
<svg version="1.1" id="Layer_1" xmlns="http://www.w3.org/2000/svg" xmlns:xlink="http://www.w3.org/1999/xlink" x="0px" y="0px"
	 width="80px" height="80px" viewBox="0 0 80 80" enable-background="new 0 0 80 80" xml:space="preserve">
<g id="tableau_logo" transform="translate(3898 -9684)">
	<rect id="Rectangle_8338" x="-3898" y="9684" fill="#FFFFFF" fill-opacity="0" width="80" height="80"/>
	<g id="tableau-software" transform="translate(-3885.821 9696.548)">
		<path id="Path_21445" fill="#FFFFFF" d="M26.299,37.095h3.045v-8.3h7.658v-2.963h-7.658v-8.3h-3.045v8.3h-7.567v2.953h7.567
			V37.095z"/>
		<path id="Path_21446" fill="#FFFFFF" d="M12.18,49.091h2.584v-7.382h6.828v-2.308h-6.828v-7.474H12.18v7.474H5.352v2.308h6.828
			V49.091z"/>
		<path id="Path_21447" fill="#FFFFFF" d="M40.878,22.423h2.584v-7.382h6.922v-2.215h-6.922V5.352h-2.584v7.474H34.05v2.215h6.828
			V22.423z"/>
		<path id="Path_21448" fill="#FFFFFF" d="M26.76,54.904h2.215v-5.257h4.705v-1.94h-4.707v-5.26H26.76v5.26h-4.614v1.94h4.614
			V54.904z"/>
		<path id="Path_21449" fill="#FFFFFF" d="M12.273,22.423h2.4v-7.471h6.921v-2.126h-6.922V5.352h-2.4v7.474h-6.92v2.126h6.921
			V22.423z"/>
		<path id="Path_21450" fill="#FFFFFF" d="M48.721,33.496h2.215v-5.165h4.707v-2.03h-4.707v-5.17h-2.215v5.167h-4.613v2.033h4.613
			V33.496z"/>
		<path id="Path_21451" fill="#FFFFFF" d="M40.878,49.091h2.584v-7.382h6.922v-2.308h-6.922v-7.474h-2.584v7.474H34.05v2.308h6.828
			V49.091z"/>
		<path id="Path_21452" fill="#FFFFFF" d="M33.311,6.644V5.075H28.7V0h-1.663v5.075h-4.614v1.569h4.614v5.075H28.7V6.644H33.311z
			 M4.614,33.127h1.661v-5.075h4.614v-1.569H6.275V21.5H4.614v4.983H0v1.661l4.614-0.092V33.127z"/>
	</g>
</g>
</svg>
