<svg id="Capa_1" fill="#333" enable-background="new 0 0 512 512" height="512" viewBox="0 0 512 512" width="512" xmlns="http://www.w3.org/2000/svg"><path d="m150 329.172c-6.341 0-11.5 5.159-11.5 11.5v52c0 6.341 5.159 11.5 11.5 11.5h52c6.341 0 11.5-5.159 11.5-11.5v-52c0-6.341-5.159-11.5-11.5-11.5zm48.5 60h-45v-45h45z"/><path d="m406.185 204.94c-1.914-4.62-6.381-7.604-11.381-7.604h-56.842c-6.792 0-12.318 5.526-12.318 12.318v56.842c0 5 2.985 9.467 7.604 11.381 4.619 1.913 9.889.865 13.424-2.67l7.879-7.88 21.627 21.627c2.25 2.25 5.207 3.376 8.163 3.376s5.913-1.125 8.163-3.376l24.757-24.757c4.501-4.501 4.501-11.825 0-16.326l-21.627-21.627 7.88-7.879c3.536-3.536 4.584-8.805 2.671-13.425zm-1.973 51.094-19.871 19.871-21.627-21.627c-2.25-2.25-5.207-3.376-8.163-3.376s-5.913 1.125-8.163 3.376l-5.745 5.745v-47.686h47.686l-5.745 5.745c-4.501 4.501-4.501 11.825 0 16.326z"/><path d="m286.469 185.131h-183.613c-6.341 0-11.5 5.159-11.5 11.5v94.366c0 6.341 5.159 11.5 11.5 11.5h183.612c6.341 0 11.5-5.159 11.5-11.5v-94.366c.001-6.341-5.158-11.5-11.499-11.5zm-3.5 102.367h-176.613v-87.366h176.612v87.366z"/><path d="m235.5 348.672c0 4.142 3.358 7.5 7.5 7.5h120c4.142 0 7.5-3.358 7.5-7.5s-3.358-7.5-7.5-7.5h-120c-4.142 0-7.5 3.358-7.5 7.5z"/><path d="m363 373.172h-120c-4.142 0-7.5 3.358-7.5 7.5s3.358 7.5 7.5 7.5h120c4.142 0 7.5-3.358 7.5-7.5s-3.358-7.5-7.5-7.5z"/><path d="m504.5 398.857c-4.142 0-7.5 3.358-7.5 7.5v10.643c0 14.612-11.888 26.5-26.5 26.5h-429c-14.612 0-26.5-11.888-26.5-26.5v-201.992c0-4.142-3.358-7.5-7.5-7.5s-7.5 3.358-7.5 7.5v201.992c0 22.883 18.617 41.5 41.5 41.5h429c22.883 0 41.5-18.617 41.5-41.5v-10.643c0-4.142-3.358-7.5-7.5-7.5z"/><path d="m470.5 53.5h-22.446c-4.142 0-7.5 3.358-7.5 7.5s3.358 7.5 7.5 7.5h22.446c14.612 0 26.5 11.888 26.5 26.5v38.5h-482v-38.5c0-14.612 11.888-26.5 26.5-26.5h374.74c4.142 0 7.5-3.358 7.5-7.5s-3.358-7.5-7.5-7.5h-374.74c-22.883 0-41.5 18.617-41.5 41.5v87.357c0 4.142 3.358 7.5 7.5 7.5s7.5-3.358 7.5-7.5v-33.857h482v226.043c0 4.142 3.358 7.5 7.5 7.5s7.5-3.358 7.5-7.5v-279.543c0-22.883-18.617-41.5-41.5-41.5z"/><path d="m40.5 100.672c0 12.958 10.542 23.5 23.5 23.5s23.5-10.542 23.5-23.5-10.542-23.5-23.5-23.5-23.5 10.542-23.5 23.5zm32 0c0 4.687-3.813 8.5-8.5 8.5s-8.5-3.813-8.5-8.5 3.813-8.5 8.5-8.5 8.5 3.813 8.5 8.5z"/><path d="m97.5 100.672c0 12.958 10.542 23.5 23.5 23.5s23.5-10.542 23.5-23.5-10.542-23.5-23.5-23.5-23.5 10.542-23.5 23.5zm32 0c0 4.687-3.813 8.5-8.5 8.5s-8.5-3.813-8.5-8.5 3.813-8.5 8.5-8.5 8.5 3.813 8.5 8.5z"/><path d="m154.5 100.672c0 12.958 10.542 23.5 23.5 23.5s23.5-10.542 23.5-23.5-10.542-23.5-23.5-23.5-23.5 10.542-23.5 23.5zm32 0c0 4.687-3.813 8.5-8.5 8.5s-8.5-3.813-8.5-8.5 3.813-8.5 8.5-8.5 8.5 3.813 8.5 8.5z"/></svg>