<?xml version="1.0" encoding="utf-8"?>
<!-- Generator: Adobe Illustrator 16.0.0, SVG Export Plug-In . SVG Version: 6.00 Build 0)  -->
<!DOCTYPE svg PUBLIC "-//W3C//DTD SVG 1.1//EN" "http://www.w3.org/Graphics/SVG/1.1/DTD/svg11.dtd">
<svg version="1.1" id="Layer_1" xmlns="http://www.w3.org/2000/svg" xmlns:xlink="http://www.w3.org/1999/xlink" x="0px" y="0px"
	 width="80px" height="80px" viewBox="0 0 80 80" enable-background="new 0 0 80 80" xml:space="preserve">
<g id="wordpress_logo" transform="translate(3898 -7347)">
	<rect id="Rectangle_8338" x="-3898" y="7347" fill="#FFFFFF" fill-opacity="0" width="80" height="80"/>
	<g id="wordpress-logo" transform="translate(-3888.001 7356.999)">
		<g id="Group_12376" transform="translate(0.001)">
			<path id="Path_21379" fill="#FFFFFF" d="M30.415,32.069l-7.094,20.613c4.763,1.404,9.847,1.271,14.531-0.377
				c-0.064-0.104-0.121-0.213-0.168-0.326L30.415,32.069z"/>
			<path id="Path_21380" fill="#FFFFFF" d="M6.355,30c-0.001,9.062,5.175,17.325,13.328,21.28L8.404,20.38
				C7.052,23.407,6.353,26.685,6.355,30z"/>
			<path id="Path_21381" fill="#FFFFFF" d="M45.962,28.806c-0.031-2.313-0.706-4.572-1.948-6.523
				c-1.199-1.948-2.322-3.6-2.322-5.545c-0.06-2.255,1.716-4.133,3.971-4.2c0.105,0,0.199,0.013,0.307,0.018
				c-9.629-8.817-24.583-8.158-33.399,1.471c-0.853,0.932-1.63,1.93-2.323,2.986c0.554,0.017,1.076,0.028,1.521,0.028
				c2.474,0,6.3-0.3,6.3-0.3c0.538-0.038,1.004,0.368,1.042,0.906c0.037,0.531-0.359,0.994-0.889,1.04c0,0-1.281,0.15-2.706,0.226
				l8.612,25.613l5.174-15.521l-3.685-10.093c-1.273-0.075-2.479-0.226-2.479-0.226c-0.537-0.051-0.931-0.527-0.88-1.063
				c0.049-0.523,0.504-0.914,1.029-0.882c0,0,3.906,0.3,6.228,0.3c2.472,0,6.3-0.3,6.3-0.3c0.537-0.033,1,0.376,1.033,0.914
				c0.033,0.526-0.358,0.983-0.884,1.032c0,0-1.282,0.15-2.706,0.226l8.549,25.418l2.358-7.881
				C45.186,33.183,45.962,30.83,45.962,28.806z"/>
			<path id="Path_21382" fill="#FFFFFF" d="M50.748,18.656c0.107,0.806,0.161,1.618,0.16,2.431
				c-0.041,2.914-0.652,5.791-1.801,8.469l-7.224,20.882c11.079-6.443,15.009-20.538,8.861-31.782H50.748z"/>
			<path id="Path_21383" fill="#FFFFFF" d="M29.999,0c-16.568,0-30,13.432-30,30s13.432,30,30,30s30-13.432,30-30S46.567,0,29.999,0
				z M29.999,56.3c-14.525,0-26.3-11.775-26.3-26.3c0-14.525,11.775-26.3,26.3-26.3c14.524,0,26.3,11.775,26.3,26.3
				C56.283,44.519,44.518,56.284,29.999,56.3z"/>
		</g>
	</g>
</g>
</svg>
