<?xml version="1.0" encoding="utf-8"?>
<!-- Generator: Adobe Illustrator 16.0.0, SVG Export Plug-In . SVG Version: 6.00 Build 0)  -->
<!DOCTYPE svg PUBLIC "-//W3C//DTD SVG 1.1//EN" "http://www.w3.org/Graphics/SVG/1.1/DTD/svg11.dtd">
<svg version="1.1" id="Layer_1" xmlns="http://www.w3.org/2000/svg" xmlns:xlink="http://www.w3.org/1999/xlink" x="0px" y="0px"
	 width="80px" height="80px" viewBox="0 0 80 80" enable-background="new 0 0 80 80" xml:space="preserve">
<g id="zend_framework_logo" transform="translate(3719 -7379)">
	<rect id="Rectangle_3172" x="-3719" y="7379" fill="#FFFFFF" fill-opacity="0" width="80" height="80"/>
	<g id="zend-framework" transform="translate(-3709.067 7404.239)">
		<path id="Path_21384" fill="#FFFFFF" d="M28.301,8.764c0,0,0-7.878,7.879-7.878h23.635c0,0,0,7.879-7.879,7.879L28.301,8.764
			 M28.301,18.832c0,0,0-7.878,7.879-7.878h11.816c0,0,0,7.878-7.879,7.878H28.301 M28.301,28.899c0,0,0-7.878,7.879-7.878h3.939
			c0,0,0,7.878-7.879,7.878H28.301"/>
		<path id="Path_21385" fill="#FFFFFF" d="M25.656,22.75v6.285H0.32L16.641,6.772H2.63V0.486h26.431L12.815,22.75H25.656"/>
	</g>
</g>
</svg>
